G04*
G04 #@! TF.GenerationSoftware,Altium Limited,Altium Designer,21.7.2 (23)*
G04*
G04 Layer_Color=16711935*
%FSLAX25Y25*%
%MOIN*%
G70*
G04*
G04 #@! TF.SameCoordinates,4BFCC9AB-D371-4FE3-9C4A-9AD3909CC9B1*
G04*
G04*
G04 #@! TF.FilePolarity,Positive*
G04*
G01*
G75*
%ADD13C,0.01000*%
%ADD123C,0.00394*%
D13*
X11811Y11811D02*
X381890D01*
X11811Y494095D02*
X381890D01*
Y11811D02*
Y494095D01*
X11811Y11811D02*
Y494095D01*
D123*
X158878Y466048D02*
X158434Y466941D01*
X157945Y467810D01*
X157413Y468654D01*
X156839Y469469D01*
X156224Y470255D01*
X155570Y471008D01*
X154878Y471727D01*
X154152Y472410D01*
X153391Y473055D01*
X152599Y473661D01*
X151778Y474226D01*
X150928Y474749D01*
X150053Y475228D01*
X149155Y475662D01*
X148237Y476050D01*
X147300Y476392D01*
X146346Y476685D01*
X145379Y476929D01*
X144401Y477125D01*
X143415Y477270D01*
X142422Y477365D01*
X141426Y477410D01*
X140428Y477405D01*
X139432Y477349D01*
X138441Y477242D01*
X137456Y477085D01*
X136480Y476879D01*
X135516Y476624D01*
X134566Y476320D01*
X133633Y475968D01*
X132718Y475570D01*
X131825Y475126D01*
X130956Y474637D01*
X130113Y474104D01*
X129297Y473530D01*
X128512Y472915D01*
X127759Y472261D01*
X127040Y471570D01*
X126357Y470843D01*
X125712Y470083D01*
X125106Y469291D01*
X124540Y468469D01*
X124018Y467620D01*
X123539Y466745D01*
X123104Y465847D01*
X122716Y464928D01*
X122375Y463991D01*
X122082Y463038D01*
X121837Y462071D01*
X121642Y461093D01*
X121497Y460106D01*
X121401Y459113D01*
X121356Y458117D01*
X121362Y457120D01*
X121418Y456124D01*
X121525Y455132D01*
X121681Y454147D01*
X121888Y453171D01*
X122143Y452207D01*
X122447Y451257D01*
X122799Y450324D01*
X123197Y449410D01*
X123641Y448517D01*
X124130Y447647D01*
X124662Y446804D01*
X125237Y445989D01*
X125852Y445203D01*
X126506Y444450D01*
X127197Y443731D01*
X127924Y443048D01*
X128684Y442403D01*
X129476Y441797D01*
X130298Y441232D01*
X131147Y440709D01*
X132022Y440230D01*
X132920Y439796D01*
X133839Y439408D01*
X134776Y439067D01*
X135729Y438773D01*
X136696Y438529D01*
X137674Y438334D01*
X138661Y438188D01*
X139654Y438093D01*
X140650Y438048D01*
X141647Y438053D01*
X142643Y438110D01*
X143635Y438216D01*
X144620Y438373D01*
X145595Y438579D01*
X146560Y438834D01*
X147509Y439138D01*
X148443Y439490D01*
X149357Y439888D01*
X150250Y440333D01*
X151119Y440822D01*
X151963Y441354D01*
X152778Y441928D01*
X153563Y442543D01*
X154316Y443197D01*
X155035Y443888D01*
X155718Y444615D01*
X156364Y445375D01*
X156970Y446168D01*
X157535Y446989D01*
X158058Y447839D01*
X158537Y448713D01*
X158971Y449611D01*
X159359Y450530D01*
X159700Y451467D01*
X159993Y452421D01*
X160238Y453387D01*
X160433Y454365D01*
X160579Y455352D01*
X160674Y456345D01*
X160719Y457341D01*
X160713Y458339D01*
X160657Y459334D01*
X160551Y460326D01*
X160394Y461311D01*
X160188Y462287D01*
X159932Y463251D01*
X159628Y464201D01*
X159277Y465134D01*
X158878Y466048D01*
X326428Y348481D02*
X325984Y349374D01*
X325495Y350243D01*
X324963Y351086D01*
X324388Y351902D01*
X323773Y352687D01*
X323119Y353440D01*
X322428Y354159D01*
X321702Y354842D01*
X320941Y355487D01*
X320149Y356093D01*
X319327Y356658D01*
X318478Y357181D01*
X317603Y357660D01*
X316705Y358095D01*
X315787Y358483D01*
X314849Y358824D01*
X313896Y359117D01*
X312929Y359362D01*
X311951Y359557D01*
X310964Y359702D01*
X309972Y359798D01*
X308975Y359842D01*
X307978Y359837D01*
X306982Y359781D01*
X305991Y359674D01*
X305006Y359518D01*
X304030Y359311D01*
X303066Y359056D01*
X302116Y358752D01*
X301183Y358400D01*
X300268Y358002D01*
X299375Y357558D01*
X298506Y357069D01*
X297662Y356537D01*
X296847Y355962D01*
X296062Y355347D01*
X295309Y354693D01*
X294590Y354002D01*
X293907Y353275D01*
X293261Y352515D01*
X292655Y351723D01*
X292090Y350901D01*
X291567Y350052D01*
X291088Y349177D01*
X290654Y348279D01*
X290266Y347360D01*
X289925Y346423D01*
X289632Y345470D01*
X289387Y344503D01*
X289192Y343525D01*
X289047Y342538D01*
X288951Y341545D01*
X288906Y340549D01*
X288912Y339552D01*
X288968Y338556D01*
X289074Y337564D01*
X289231Y336579D01*
X289437Y335604D01*
X289693Y334640D01*
X289997Y333690D01*
X290348Y332756D01*
X290747Y331842D01*
X291191Y330949D01*
X291680Y330080D01*
X292212Y329236D01*
X292787Y328421D01*
X293402Y327636D01*
X294055Y326883D01*
X294747Y326164D01*
X295473Y325481D01*
X296234Y324835D01*
X297026Y324229D01*
X297848Y323664D01*
X298697Y323141D01*
X299572Y322662D01*
X300470Y322228D01*
X301388Y321840D01*
X302326Y321499D01*
X303279Y321205D01*
X304246Y320961D01*
X305224Y320766D01*
X306210Y320620D01*
X307203Y320525D01*
X308200Y320480D01*
X309197Y320486D01*
X310193Y320542D01*
X311184Y320648D01*
X312169Y320805D01*
X313145Y321011D01*
X314109Y321267D01*
X315059Y321570D01*
X315992Y321922D01*
X316907Y322321D01*
X317800Y322765D01*
X318669Y323254D01*
X319512Y323786D01*
X320328Y324360D01*
X321113Y324975D01*
X321866Y325629D01*
X322585Y326321D01*
X323268Y327047D01*
X323914Y327808D01*
X324519Y328600D01*
X325085Y329421D01*
X325607Y330271D01*
X326087Y331146D01*
X326521Y332044D01*
X326909Y332962D01*
X327250Y333899D01*
X327543Y334853D01*
X327788Y335820D01*
X327983Y336798D01*
X328129Y337784D01*
X328224Y338777D01*
X328269Y339774D01*
X328263Y340771D01*
X328207Y341767D01*
X328100Y342758D01*
X327944Y343743D01*
X327738Y344719D01*
X327482Y345683D01*
X327178Y346633D01*
X326827Y347566D01*
X326428Y348481D01*
X151918Y338237D02*
X151443Y339114D01*
X150924Y339965D01*
X150363Y340790D01*
X149760Y341584D01*
X149118Y342348D01*
X148438Y343078D01*
X147722Y343772D01*
X146972Y344429D01*
X146190Y345048D01*
X145377Y345626D01*
X144536Y346162D01*
X143669Y346655D01*
X142778Y347103D01*
X141866Y347506D01*
X140934Y347861D01*
X139985Y348170D01*
X139023Y348429D01*
X138048Y348640D01*
X137063Y348801D01*
X136072Y348912D01*
X135077Y348973D01*
X134079Y348983D01*
X133083Y348942D01*
X132090Y348851D01*
X131102Y348710D01*
X130123Y348520D01*
X129155Y348279D01*
X128201Y347990D01*
X127262Y347654D01*
X126342Y347270D01*
X125442Y346839D01*
X124565Y346364D01*
X123713Y345845D01*
X122889Y345284D01*
X122094Y344681D01*
X121331Y344040D01*
X120601Y343360D01*
X119906Y342644D01*
X119249Y341894D01*
X118631Y341111D01*
X118053Y340299D01*
X117517Y339458D01*
X117024Y338590D01*
X116576Y337699D01*
X116173Y336787D01*
X115817Y335855D01*
X115509Y334907D01*
X115249Y333944D01*
X115039Y332969D01*
X114877Y331985D01*
X114767Y330994D01*
X114706Y329998D01*
X114696Y329001D01*
X114736Y328004D01*
X114827Y327011D01*
X114968Y326024D01*
X115159Y325045D01*
X115399Y324077D01*
X115688Y323122D01*
X116025Y322183D01*
X116409Y321263D01*
X116839Y320363D01*
X117314Y319486D01*
X117833Y318635D01*
X118395Y317810D01*
X118997Y317015D01*
X119639Y316252D01*
X120319Y315522D01*
X121035Y314828D01*
X121785Y314171D01*
X122567Y313552D01*
X123380Y312974D01*
X124221Y312438D01*
X125088Y311945D01*
X125979Y311497D01*
X126892Y311094D01*
X127823Y310738D01*
X128772Y310430D01*
X129735Y310171D01*
X130710Y309960D01*
X131694Y309799D01*
X132685Y309688D01*
X133681Y309627D01*
X134678Y309617D01*
X135674Y309658D01*
X136668Y309748D01*
X137655Y309890D01*
X138634Y310080D01*
X139602Y310320D01*
X140557Y310609D01*
X141495Y310946D01*
X142416Y311330D01*
X143315Y311760D01*
X144192Y312236D01*
X145044Y312755D01*
X145868Y313316D01*
X146663Y313918D01*
X147426Y314560D01*
X148156Y315240D01*
X148851Y315956D01*
X149508Y316706D01*
X150127Y317489D01*
X150705Y318302D01*
X151241Y319143D01*
X151733Y320010D01*
X152182Y320901D01*
X152584Y321813D01*
X152940Y322745D01*
X153248Y323693D01*
X153508Y324656D01*
X153719Y325631D01*
X153880Y326615D01*
X153991Y327606D01*
X154051Y328602D01*
X154061Y329599D01*
X154021Y330596D01*
X153930Y331589D01*
X153789Y332576D01*
X153598Y333555D01*
X153358Y334523D01*
X153069Y335478D01*
X152732Y336417D01*
X152348Y337337D01*
X151918Y338237D01*
X323469Y226588D02*
X322994Y227465D01*
X322475Y228317D01*
X321913Y229141D01*
X321311Y229936D01*
X320669Y230699D01*
X319989Y231429D01*
X319273Y232123D01*
X318523Y232781D01*
X317741Y233399D01*
X316928Y233977D01*
X316087Y234513D01*
X315220Y235006D01*
X314329Y235454D01*
X313416Y235857D01*
X312485Y236213D01*
X311536Y236521D01*
X310573Y236781D01*
X309598Y236991D01*
X308614Y237152D01*
X307623Y237263D01*
X306627Y237324D01*
X305630Y237334D01*
X304634Y237294D01*
X303640Y237203D01*
X302653Y237062D01*
X301674Y236871D01*
X300706Y236631D01*
X299752Y236342D01*
X298813Y236005D01*
X297892Y235621D01*
X296992Y235191D01*
X296116Y234716D01*
X295264Y234196D01*
X294440Y233635D01*
X293645Y233033D01*
X292881Y232391D01*
X292152Y231711D01*
X291457Y230995D01*
X290800Y230245D01*
X290181Y229463D01*
X289603Y228650D01*
X289067Y227809D01*
X288575Y226942D01*
X288126Y226051D01*
X287724Y225138D01*
X287368Y224206D01*
X287060Y223258D01*
X286800Y222295D01*
X286589Y221320D01*
X286428Y220336D01*
X286317Y219345D01*
X286257Y218349D01*
X286247Y217352D01*
X286287Y216355D01*
X286378Y215362D01*
X286519Y214375D01*
X286710Y213396D01*
X286950Y212428D01*
X287239Y211473D01*
X287576Y210535D01*
X287960Y209614D01*
X288390Y208714D01*
X288865Y207837D01*
X289384Y206986D01*
X289945Y206161D01*
X290548Y205367D01*
X291190Y204603D01*
X291870Y203873D01*
X292585Y203179D01*
X293336Y202522D01*
X294118Y201903D01*
X294931Y201325D01*
X295772Y200789D01*
X296639Y200296D01*
X297530Y199848D01*
X298442Y199445D01*
X299374Y199090D01*
X300323Y198782D01*
X301286Y198522D01*
X302260Y198311D01*
X303245Y198150D01*
X304236Y198039D01*
X305231Y197978D01*
X306229Y197968D01*
X307225Y198009D01*
X308218Y198100D01*
X309206Y198241D01*
X310185Y198432D01*
X311153Y198672D01*
X312107Y198961D01*
X313046Y199298D01*
X313966Y199682D01*
X314866Y200112D01*
X315743Y200587D01*
X316595Y201106D01*
X317419Y201667D01*
X318214Y202270D01*
X318977Y202912D01*
X319707Y203591D01*
X320402Y204307D01*
X321059Y205058D01*
X321677Y205840D01*
X322255Y206653D01*
X322791Y207494D01*
X323284Y208361D01*
X323732Y209252D01*
X324135Y210164D01*
X324491Y211096D01*
X324799Y212045D01*
X325059Y213007D01*
X325270Y213982D01*
X325430Y214967D01*
X325541Y215958D01*
X325602Y216953D01*
X325612Y217951D01*
X325572Y218947D01*
X325481Y219940D01*
X325340Y220928D01*
X325149Y221906D01*
X324909Y222874D01*
X324620Y223829D01*
X324283Y224768D01*
X323899Y225688D01*
X323469Y226588D01*
X149457Y210078D02*
X148952Y210937D01*
X148404Y211770D01*
X147814Y212575D01*
X147184Y213348D01*
X146516Y214088D01*
X145811Y214794D01*
X145071Y215463D01*
X144299Y216094D01*
X143495Y216684D01*
X142663Y217234D01*
X141803Y217740D01*
X140919Y218202D01*
X140014Y218619D01*
X139087Y218990D01*
X138144Y219313D01*
X137185Y219588D01*
X136214Y219814D01*
X135232Y219990D01*
X134243Y220117D01*
X133248Y220193D01*
X132252Y220219D01*
X131254Y220194D01*
X130260Y220119D01*
X129271Y219994D01*
X128289Y219818D01*
X127317Y219593D01*
X126358Y219320D01*
X125414Y218998D01*
X124488Y218628D01*
X123581Y218212D01*
X122697Y217751D01*
X121837Y217245D01*
X121004Y216697D01*
X120200Y216107D01*
X119427Y215477D01*
X118686Y214809D01*
X117981Y214104D01*
X117311Y213365D01*
X116681Y212592D01*
X116090Y211789D01*
X115541Y210956D01*
X115034Y210097D01*
X114572Y209213D01*
X114155Y208307D01*
X113785Y207381D01*
X113461Y206437D01*
X113187Y205479D01*
X112961Y204507D01*
X112784Y203526D01*
X112657Y202537D01*
X112581Y201542D01*
X112555Y200545D01*
X112580Y199548D01*
X112655Y198554D01*
X112781Y197564D01*
X112956Y196582D01*
X113181Y195611D01*
X113455Y194651D01*
X113777Y193708D01*
X114146Y192781D01*
X114562Y191875D01*
X115024Y190990D01*
X115529Y190131D01*
X116077Y189298D01*
X116667Y188493D01*
X117297Y187720D01*
X117965Y186980D01*
X118670Y186274D01*
X119410Y185605D01*
X120182Y184974D01*
X120986Y184383D01*
X121818Y183834D01*
X122678Y183328D01*
X123561Y182866D01*
X124467Y182449D01*
X125393Y182078D01*
X126337Y181755D01*
X127296Y181480D01*
X128267Y181254D01*
X129249Y181078D01*
X130238Y180951D01*
X131232Y180875D01*
X132229Y180849D01*
X133226Y180874D01*
X134221Y180949D01*
X135210Y181074D01*
X136192Y181250D01*
X137164Y181475D01*
X138123Y181748D01*
X139067Y182071D01*
X139993Y182440D01*
X140900Y182856D01*
X141784Y183317D01*
X142644Y183823D01*
X143477Y184371D01*
X144281Y184961D01*
X145054Y185591D01*
X145795Y186259D01*
X146500Y186964D01*
X147169Y187703D01*
X147800Y188476D01*
X148391Y189279D01*
X148940Y190112D01*
X149447Y190971D01*
X149909Y191855D01*
X150326Y192761D01*
X150696Y193687D01*
X151019Y194631D01*
X151294Y195589D01*
X151520Y196561D01*
X151697Y197542D01*
X151823Y198531D01*
X151900Y199526D01*
X151926Y200523D01*
X151901Y201520D01*
X151826Y202515D01*
X151700Y203504D01*
X151525Y204486D01*
X151300Y205457D01*
X151026Y206417D01*
X150704Y207360D01*
X150335Y208287D01*
X149919Y209193D01*
X149457Y210078D01*
X324800Y104484D02*
X324295Y105343D01*
X323746Y106177D01*
X323156Y106981D01*
X322527Y107754D01*
X321858Y108495D01*
X321153Y109200D01*
X320414Y109869D01*
X319641Y110500D01*
X318838Y111091D01*
X318005Y111640D01*
X317146Y112146D01*
X316262Y112609D01*
X315356Y113026D01*
X314430Y113396D01*
X313487Y113719D01*
X312528Y113994D01*
X311557Y114220D01*
X310575Y114397D01*
X309586Y114523D01*
X308591Y114600D01*
X307594Y114625D01*
X306597Y114601D01*
X305603Y114525D01*
X304613Y114400D01*
X303631Y114225D01*
X302660Y114000D01*
X301701Y113726D01*
X300757Y113404D01*
X299830Y113034D01*
X298924Y112619D01*
X298040Y112157D01*
X297180Y111652D01*
X296347Y111103D01*
X295543Y110513D01*
X294769Y109884D01*
X294029Y109215D01*
X293323Y108511D01*
X292654Y107771D01*
X292023Y106998D01*
X291433Y106195D01*
X290883Y105362D01*
X290377Y104503D01*
X289915Y103619D01*
X289498Y102713D01*
X289127Y101787D01*
X288804Y100844D01*
X288529Y99885D01*
X288303Y98914D01*
X288127Y97932D01*
X288000Y96943D01*
X287924Y95948D01*
X287898Y94951D01*
X287923Y93954D01*
X287998Y92960D01*
X288123Y91970D01*
X288299Y90988D01*
X288524Y90017D01*
X288798Y89058D01*
X289120Y88114D01*
X289489Y87187D01*
X289905Y86281D01*
X290366Y85397D01*
X290872Y84537D01*
X291420Y83704D01*
X292010Y82900D01*
X292640Y82126D01*
X293308Y81386D01*
X294013Y80680D01*
X294753Y80011D01*
X295525Y79381D01*
X296329Y78790D01*
X297161Y78241D01*
X298020Y77734D01*
X298904Y77272D01*
X299810Y76855D01*
X300736Y76484D01*
X301680Y76161D01*
X302638Y75886D01*
X303610Y75660D01*
X304591Y75484D01*
X305581Y75357D01*
X306575Y75281D01*
X307572Y75255D01*
X308569Y75280D01*
X309564Y75355D01*
X310553Y75481D01*
X311535Y75656D01*
X312507Y75881D01*
X313466Y76155D01*
X314409Y76477D01*
X315336Y76846D01*
X316242Y77262D01*
X317127Y77723D01*
X317986Y78229D01*
X318819Y78777D01*
X319624Y79367D01*
X320397Y79997D01*
X321137Y80665D01*
X321843Y81370D01*
X322512Y82110D01*
X323143Y82882D01*
X323734Y83686D01*
X324283Y84518D01*
X324789Y85378D01*
X325252Y86261D01*
X325669Y87167D01*
X326039Y88093D01*
X326362Y89037D01*
X326637Y89995D01*
X326863Y90967D01*
X327040Y91948D01*
X327166Y92938D01*
X327242Y93932D01*
X327268Y94929D01*
X327243Y95926D01*
X327168Y96921D01*
X327043Y97910D01*
X326867Y98892D01*
X326642Y99864D01*
X326369Y100823D01*
X326047Y101767D01*
X325677Y102693D01*
X325261Y103600D01*
X324800Y104484D01*
M02*
