G04*
G04 #@! TF.GenerationSoftware,Altium Limited,Altium Designer,21.7.2 (23)*
G04*
G04 Layer_Color=39423*
%FSLAX25Y25*%
%MOIN*%
G70*
G04*
G04 #@! TF.SameCoordinates,560326E4-0408-43C8-B7F1-86A7F47A34FC*
G04*
G04*
G04 #@! TF.FilePolarity,Positive*
G04*
G01*
G75*
%ADD12C,0.00787*%
%ADD13C,0.01000*%
%ADD67C,0.00709*%
%ADD68C,0.00591*%
%ADD122C,0.00984*%
D12*
X329404Y318809D02*
X328240Y321306D01*
X324672Y319642D02*
X328240Y321306D01*
X333231Y310602D02*
X332066Y313100D01*
X329663Y308938D02*
X333231Y310602D01*
X185660Y427712D02*
X188158Y428877D01*
X186494Y432445D01*
X177453Y423885D02*
X179951Y425050D01*
X177453Y423885D02*
X175790Y427453D01*
X200825Y434783D02*
X203322Y435948D01*
X201659Y439516D01*
X192618Y430957D02*
X195116Y432121D01*
X192618Y430957D02*
X190954Y434525D01*
X236479Y398847D02*
X234815Y402415D01*
X236479Y398847D02*
X245756Y403173D01*
X230489Y411692D02*
X228825Y415260D01*
X238102Y419586D01*
X282845Y351734D02*
X284176Y354588D01*
X282781Y354080D01*
X282273Y355475D01*
X280943Y352622D01*
X280403Y355189D02*
X279452Y355633D01*
X278754Y355379D01*
X278089Y353952D01*
X279516Y353287D01*
X280213Y353541D01*
X279960Y354238D01*
X278533Y354904D01*
X276566Y358137D02*
X275236Y355283D01*
X276662Y354618D01*
X277360Y354871D01*
X277803Y355823D01*
X277550Y356520D01*
X276123Y357185D01*
X272858Y356392D02*
X273809Y355948D01*
X274506Y356202D01*
X274950Y357153D01*
X274696Y357851D01*
X273745Y358294D01*
X273047Y358040D01*
X272826Y357565D01*
X274728Y356678D01*
X269908Y361241D02*
X268577Y358388D01*
X267150Y359053D01*
X266897Y359751D01*
X267118Y360226D01*
X267340Y360702D01*
X268038Y360956D01*
X269464Y360290D01*
X266611Y361621D02*
X265945Y360194D01*
X265248Y359940D01*
X263821Y360606D01*
X263599Y360130D01*
X263853Y359433D01*
X264329Y359211D01*
X263821Y360606D02*
X264708Y362508D01*
X279434Y349387D02*
X281337Y348500D01*
X280672Y347073D01*
X279720Y347517D01*
X280672Y347073D01*
X280006Y345646D01*
X277153Y346977D02*
X276201Y347421D01*
X276677Y347199D01*
X278008Y350052D01*
X278483Y349831D01*
X274299Y348308D02*
X273348Y348751D01*
X273094Y349448D01*
X273537Y350400D01*
X274235Y350654D01*
X275186Y350210D01*
X275440Y349513D01*
X274996Y348561D01*
X274299Y348308D01*
X272808Y351319D02*
X271921Y349416D01*
X272365Y350368D01*
X272111Y351065D01*
X271857Y351762D01*
X271381Y351984D01*
X269067Y350747D02*
X268116Y351191D01*
X268592Y350969D01*
X269479Y352871D01*
X269954Y352649D01*
X266689Y351856D02*
X265263Y352521D01*
X265009Y353219D01*
X265706Y353472D01*
X266657Y353029D01*
X267355Y353283D01*
X267101Y353980D01*
X265674Y354645D01*
X261869Y356420D02*
X260031Y354961D01*
X259967Y357307D01*
X258540Y357972D02*
X257589Y358416D01*
X256892Y358162D01*
X256226Y356735D01*
X257653Y356070D01*
X258350Y356324D01*
X258097Y357021D01*
X256670Y357686D01*
X255275Y357179D02*
X256162Y359081D01*
X254735Y359746D01*
X254038Y359492D01*
X253373Y358066D01*
X248996Y363581D02*
X247666Y360727D01*
X249092Y360062D01*
X249790Y360315D01*
X250233Y361267D01*
X249979Y361964D01*
X248553Y362629D01*
X245287Y361836D02*
X246239Y361392D01*
X246936Y361646D01*
X247380Y362597D01*
X247126Y363295D01*
X246175Y363738D01*
X245477Y363485D01*
X245255Y363009D01*
X247158Y362122D01*
X244748Y364404D02*
X243861Y362501D01*
X244304Y363452D01*
X244050Y364150D01*
X243797Y364847D01*
X243321Y365069D01*
X239484Y368016D02*
X238154Y365162D01*
X238819Y366589D01*
X236916Y367476D01*
X237582Y368903D01*
X236251Y366050D01*
X233873Y367159D02*
X234824Y366715D01*
X235522Y366969D01*
X235965Y367920D01*
X235711Y368617D01*
X234760Y369061D01*
X234063Y368807D01*
X233841Y368332D01*
X235743Y367444D01*
X232446Y367824D02*
X231495Y368267D01*
X231971Y368046D01*
X232858Y369948D01*
X233333Y369726D01*
X229625Y367982D02*
X229149Y368203D01*
X228895Y368901D01*
X230004Y371279D01*
X226643Y374004D02*
X225312Y371150D01*
X226739Y370485D01*
X227436Y370739D01*
X227880Y371690D01*
X227626Y372388D01*
X226199Y373053D01*
X222934Y372259D02*
X223885Y371816D01*
X224583Y372070D01*
X225026Y373021D01*
X224773Y373718D01*
X223821Y374162D01*
X223124Y373908D01*
X222902Y373432D01*
X224805Y372545D01*
X220810Y372671D02*
X220556Y373368D01*
X220778Y373844D01*
X221254Y373622D01*
X221032Y373146D01*
X220556Y373368D01*
X220810Y372671D01*
X221064Y371973D01*
X215229Y379327D02*
X216180Y378883D01*
X215704Y379105D01*
X214595Y376727D01*
X214849Y376029D01*
X215325Y375808D01*
X216022Y376062D01*
X212471Y377138D02*
X211520Y377582D01*
X211266Y378279D01*
X211710Y379230D01*
X212407Y379484D01*
X213358Y379041D01*
X213612Y378343D01*
X213169Y377392D01*
X212471Y377138D01*
X210980Y380150D02*
X210093Y378247D01*
X210537Y379199D01*
X210283Y379896D01*
X210029Y380593D01*
X209554Y380815D01*
X207240Y379578D02*
X208127Y381480D01*
X206700Y382146D01*
X206002Y381892D01*
X205337Y380465D01*
X202419Y384142D02*
X200581Y382683D01*
X200517Y385029D01*
X199090Y385694D02*
X198139Y386138D01*
X197442Y385884D01*
X196776Y384457D01*
X198203Y383792D01*
X198901Y384046D01*
X198647Y384743D01*
X197220Y385408D01*
X195825Y384900D02*
X196712Y386803D01*
X195285Y387468D01*
X194588Y387214D01*
X193923Y385788D01*
X276595Y343299D02*
X275265Y340445D01*
X276692Y339780D01*
X277389Y340034D01*
X277833Y340985D01*
X277579Y341682D01*
X276152Y342348D01*
X272887Y341554D02*
X273838Y341110D01*
X274535Y341364D01*
X274979Y342316D01*
X274725Y343013D01*
X273774Y343456D01*
X273077Y343203D01*
X272855Y342727D01*
X274757Y341840D01*
X272347Y344122D02*
X271460Y342219D01*
X271904Y343171D01*
X271650Y343868D01*
X271396Y344565D01*
X270920Y344787D01*
X267084Y347734D02*
X265753Y344881D01*
X263850Y345768D01*
X262899Y346211D02*
X261948Y346655D01*
X262424Y346433D01*
X263311Y348336D01*
X263786Y348114D01*
X260521Y347320D02*
X261408Y349223D01*
X259982Y349888D01*
X259284Y349634D01*
X258619Y348207D01*
X257096Y352392D02*
X255765Y349538D01*
X257192Y348873D01*
X257889Y349127D01*
X258333Y350078D01*
X258079Y350775D01*
X256652Y351440D01*
X253387Y350647D02*
X254339Y350203D01*
X255036Y350457D01*
X255479Y351408D01*
X255226Y352106D01*
X254274Y352549D01*
X253577Y352295D01*
X253355Y351820D01*
X255258Y350933D01*
X251960Y351312D02*
X252848Y353215D01*
X251421Y353880D01*
X250723Y353626D01*
X250058Y352199D01*
X244827Y354639D02*
X245778Y354195D01*
X246475Y354449D01*
X246919Y355400D01*
X246665Y356098D01*
X245714Y356541D01*
X245016Y356287D01*
X244794Y355812D01*
X246697Y354925D01*
X243400Y355304D02*
X244287Y357207D01*
X242860Y357872D01*
X242163Y357618D01*
X241497Y356191D01*
X239023Y360819D02*
X237692Y357965D01*
X238136Y358917D01*
X237121Y361706D01*
X237882Y359614D01*
X235790Y358853D01*
X234363Y359518D02*
X233412Y359961D01*
X233158Y360659D01*
X233602Y361610D01*
X234299Y361864D01*
X235250Y361420D01*
X235504Y360723D01*
X235061Y359772D01*
X234363Y359518D01*
X230558Y361292D02*
X231510Y360848D01*
X232207Y361102D01*
X232651Y362053D01*
X232397Y362751D01*
X231446Y363194D01*
X230748Y362941D01*
X230526Y362465D01*
X232429Y361578D01*
X229132Y361957D02*
X230019Y363860D01*
X228592Y364525D01*
X227895Y364271D01*
X227229Y362844D01*
X224312Y366521D02*
X222473Y365062D01*
X222409Y367408D01*
X220983Y368074D02*
X220031Y368517D01*
X219334Y368263D01*
X218669Y366836D01*
X220095Y366171D01*
X220793Y366425D01*
X220539Y367122D01*
X219112Y367788D01*
X217717Y367280D02*
X218604Y369182D01*
X217178Y369848D01*
X216480Y369594D01*
X215815Y368167D01*
X212010Y369941D02*
X213341Y372795D01*
X211914Y373460D01*
X211217Y373206D01*
X210773Y372255D01*
X211027Y371558D01*
X212454Y370893D01*
X211503Y371336D02*
X210108Y370828D01*
X207730Y371937D02*
X208681Y371494D01*
X209378Y371748D01*
X209822Y372699D01*
X209568Y373396D01*
X208617Y373840D01*
X207920Y373586D01*
X207698Y373110D01*
X209600Y372223D01*
X206303Y372603D02*
X207190Y374505D01*
X206715Y374727D01*
X206017Y374473D01*
X205352Y373046D01*
X206017Y374473D01*
X205763Y375170D01*
X205066Y374917D01*
X204401Y373490D01*
X204337Y375836D02*
X203671Y374409D01*
X202974Y374155D01*
X201547Y374820D01*
X202434Y376723D01*
X200596Y375264D02*
X201483Y377166D01*
X200056Y377832D01*
X199359Y377578D01*
X198693Y376151D01*
X197170Y380335D02*
X195840Y377482D01*
X197267Y376816D01*
X197964Y377070D01*
X198408Y378021D01*
X198154Y378719D01*
X196727Y379384D01*
X195522Y380525D02*
X195300Y380049D01*
X195776Y379828D01*
X194825Y380271D01*
X195300Y380049D01*
X194635Y378623D01*
X193937Y378369D01*
X325769Y344769D02*
X322915Y343439D01*
X323581Y342012D01*
X324278Y341758D01*
X325229Y342202D01*
X325483Y342899D01*
X324818Y344326D01*
X325261Y343375D02*
X326656Y342867D01*
X325133Y338683D02*
X325165Y339856D01*
X325673Y341250D01*
X326624Y341694D01*
X327321Y341440D01*
X327765Y340489D01*
X327511Y339792D01*
X327035Y339570D01*
X326338Y339824D01*
X325673Y341250D01*
X219615Y421970D02*
X219932Y422841D01*
X221121Y423396D01*
X221993Y423078D01*
X223102Y420700D01*
X222784Y419829D01*
X221595Y419274D01*
X220724Y419592D01*
X219812Y418443D02*
X218623Y417888D01*
X219217Y418165D01*
X217554Y421732D01*
X218426Y421415D01*
X329839Y75092D02*
X328503Y77502D01*
X325059Y75594D02*
X328503Y77502D01*
X334229Y67172D02*
X332893Y69582D01*
X330785Y65263D02*
X334229Y67172D01*
X178848Y173703D02*
X181258Y175039D01*
X179350Y178482D01*
X170928Y169313D02*
X173339Y170649D01*
X170928Y169313D02*
X169020Y172756D01*
X193482Y181815D02*
X195893Y183151D01*
X193984Y186594D01*
X185563Y177425D02*
X187973Y178761D01*
X185563Y177425D02*
X183654Y180868D01*
X231556Y148453D02*
X229648Y151896D01*
X231556Y148453D02*
X240509Y153415D01*
X224685Y160849D02*
X222776Y164292D01*
X231729Y169255D01*
X281096Y104690D02*
X282225Y107629D01*
X280869Y107025D01*
X280265Y108381D01*
X279137Y105442D01*
X278419Y107966D02*
X277439Y108342D01*
X276761Y108040D01*
X276197Y106570D01*
X277667Y106006D01*
X278345Y106308D01*
X278043Y106986D01*
X276573Y107550D01*
X274386Y110638D02*
X273258Y107699D01*
X274727Y107134D01*
X275405Y107436D01*
X275781Y108416D01*
X275480Y109094D01*
X274010Y109658D01*
X270808Y108639D02*
X271788Y108263D01*
X272466Y108565D01*
X272842Y109544D01*
X272540Y110222D01*
X271560Y110599D01*
X270882Y110297D01*
X270694Y109807D01*
X272654Y109055D01*
X267527Y113271D02*
X266399Y110331D01*
X264929Y110896D01*
X264627Y111574D01*
X264815Y112064D01*
X265003Y112553D01*
X265681Y112855D01*
X267151Y112291D01*
X264212Y113419D02*
X263648Y111950D01*
X262970Y111648D01*
X261500Y112212D01*
X261312Y111722D01*
X261614Y111044D01*
X262104Y110856D01*
X261500Y112212D02*
X262252Y114172D01*
X277858Y102110D02*
X279817Y101358D01*
X279253Y99888D01*
X278273Y100264D01*
X279253Y99888D01*
X278689Y98418D01*
X275749Y99547D02*
X274770Y99923D01*
X275259Y99735D01*
X276388Y102674D01*
X276878Y102486D01*
X272810Y100675D02*
X271830Y101051D01*
X271528Y101729D01*
X271904Y102709D01*
X272582Y103011D01*
X273562Y102635D01*
X273864Y101957D01*
X273488Y100977D01*
X272810Y100675D01*
X271113Y103575D02*
X270360Y101615D01*
X270737Y102595D01*
X270435Y103273D01*
X270133Y103951D01*
X269643Y104139D01*
X267421Y102744D02*
X266441Y103120D01*
X266931Y102932D01*
X267683Y104891D01*
X268173Y104703D01*
X264971Y103684D02*
X263502Y104248D01*
X263200Y104926D01*
X263878Y105228D01*
X264858Y104852D01*
X265536Y105154D01*
X265234Y105832D01*
X263764Y106396D01*
X259845Y107900D02*
X258113Y106317D01*
X257885Y108652D01*
X256415Y109217D02*
X255435Y109593D01*
X254757Y109291D01*
X254193Y107821D01*
X255663Y107257D01*
X256341Y107559D01*
X256039Y108237D01*
X254570Y108801D01*
X253214Y108197D02*
X253966Y110157D01*
X252496Y110721D01*
X251818Y110419D01*
X251254Y108949D01*
X246503Y114146D02*
X245375Y111206D01*
X246845Y110642D01*
X247523Y110944D01*
X247899Y111924D01*
X247597Y112602D01*
X246127Y113166D01*
X242925Y112146D02*
X243905Y111770D01*
X244583Y112072D01*
X244959Y113052D01*
X244657Y113730D01*
X243678Y114106D01*
X243000Y113804D01*
X242812Y113314D01*
X244771Y112562D01*
X242208Y114670D02*
X241456Y112711D01*
X241832Y113690D01*
X241530Y114368D01*
X241228Y115047D01*
X240738Y115234D01*
X236705Y117907D02*
X235577Y114967D01*
X236141Y116437D01*
X234181Y117189D01*
X234746Y118659D01*
X233617Y115720D01*
X231168Y116660D02*
X232147Y116284D01*
X232825Y116586D01*
X233202Y117566D01*
X232900Y118244D01*
X231920Y118620D01*
X231242Y118318D01*
X231054Y117828D01*
X233013Y117076D01*
X229698Y117224D02*
X228718Y117600D01*
X229208Y117412D01*
X229960Y119372D01*
X230450Y119184D01*
X226872Y117185D02*
X226382Y117373D01*
X226080Y118051D01*
X227021Y120500D01*
X223478Y122985D02*
X222349Y120045D01*
X223819Y119481D01*
X224497Y119783D01*
X224873Y120763D01*
X224571Y121440D01*
X223101Y122005D01*
X219900Y120985D02*
X220879Y120609D01*
X221557Y120911D01*
X221934Y121891D01*
X221632Y122569D01*
X220652Y122945D01*
X219974Y122643D01*
X219786Y122153D01*
X221745Y121401D01*
X217752Y121248D02*
X217450Y121926D01*
X217638Y122415D01*
X218128Y122227D01*
X217940Y121738D01*
X217450Y121926D01*
X217752Y121248D01*
X218054Y120570D01*
X211720Y127498D02*
X212700Y127122D01*
X212210Y127310D01*
X211269Y124860D01*
X211571Y124182D01*
X212061Y123994D01*
X212739Y124296D01*
X209122Y125123D02*
X208142Y125499D01*
X207840Y126177D01*
X208216Y127156D01*
X208894Y127458D01*
X209874Y127082D01*
X210176Y126404D01*
X209800Y125425D01*
X209122Y125123D01*
X207424Y128023D02*
X206672Y126063D01*
X207048Y127043D01*
X206746Y127721D01*
X206445Y128399D01*
X205955Y128587D01*
X203733Y127191D02*
X204485Y129151D01*
X203015Y129715D01*
X202337Y129413D01*
X201773Y127944D01*
X198606Y131408D02*
X196874Y129824D01*
X196646Y132160D01*
X195176Y132724D02*
X194197Y133100D01*
X193519Y132798D01*
X192955Y131328D01*
X194424Y130764D01*
X195102Y131066D01*
X194800Y131744D01*
X193331Y132308D01*
X191975Y131705D02*
X192727Y133664D01*
X191257Y134229D01*
X190579Y133927D01*
X190015Y132457D01*
X275450Y95838D02*
X274322Y92899D01*
X275792Y92335D01*
X276470Y92637D01*
X276846Y93616D01*
X276544Y94295D01*
X275074Y94859D01*
X271872Y93839D02*
X272852Y93463D01*
X273530Y93765D01*
X273906Y94745D01*
X273604Y95423D01*
X272624Y95799D01*
X271947Y95497D01*
X271759Y95007D01*
X273718Y94255D01*
X271155Y96363D02*
X270403Y94403D01*
X270779Y95383D01*
X270477Y96061D01*
X270175Y96739D01*
X269685Y96927D01*
X265652Y99600D02*
X264524Y96660D01*
X262564Y97413D01*
X261584Y97789D02*
X260604Y98165D01*
X261094Y97977D01*
X261846Y99936D01*
X262336Y99748D01*
X259135Y98729D02*
X259887Y100689D01*
X258417Y101253D01*
X257739Y100951D01*
X257175Y99481D01*
X255364Y103549D02*
X254236Y100610D01*
X255705Y100045D01*
X256383Y100347D01*
X256759Y101327D01*
X256457Y102005D01*
X254988Y102569D01*
X251786Y101550D02*
X252766Y101174D01*
X253444Y101476D01*
X253820Y102455D01*
X253518Y103133D01*
X252538Y103509D01*
X251860Y103208D01*
X251672Y102718D01*
X253632Y101965D01*
X250316Y102114D02*
X251068Y104074D01*
X249599Y104638D01*
X248921Y104336D01*
X248357Y102866D01*
X242968Y104935D02*
X243947Y104559D01*
X244625Y104860D01*
X245002Y105840D01*
X244700Y106518D01*
X243720Y106895D01*
X243042Y106593D01*
X242854Y106103D01*
X244813Y105350D01*
X241498Y105499D02*
X242250Y107459D01*
X240780Y108023D01*
X240102Y107721D01*
X239538Y106251D01*
X236747Y110695D02*
X235619Y107756D01*
X235995Y108736D01*
X234788Y111447D01*
X235693Y109414D01*
X233659Y108508D01*
X232190Y109072D02*
X231210Y109448D01*
X230908Y110126D01*
X231284Y111106D01*
X231962Y111408D01*
X232942Y111032D01*
X233244Y110354D01*
X232868Y109374D01*
X232190Y109072D01*
X228270Y110577D02*
X229250Y110201D01*
X229928Y110502D01*
X230304Y111482D01*
X230002Y112160D01*
X229023Y112536D01*
X228345Y112234D01*
X228156Y111744D01*
X230116Y110992D01*
X226801Y111141D02*
X227553Y113100D01*
X226083Y113665D01*
X225405Y113363D01*
X224841Y111893D01*
X221674Y115357D02*
X219942Y113774D01*
X219714Y116109D01*
X218245Y116674D02*
X217265Y117050D01*
X216587Y116748D01*
X216022Y115278D01*
X217492Y114714D01*
X218170Y115016D01*
X217868Y115694D01*
X216399Y116258D01*
X215043Y115654D02*
X215795Y117614D01*
X214325Y118178D01*
X213647Y117876D01*
X213083Y116406D01*
X209164Y117911D02*
X210292Y120850D01*
X208822Y121414D01*
X208144Y121113D01*
X207768Y120133D01*
X208070Y119455D01*
X209540Y118891D01*
X208560Y119267D02*
X207204Y118663D01*
X204755Y119603D02*
X205734Y119227D01*
X206412Y119529D01*
X206788Y120509D01*
X206487Y121187D01*
X205507Y121563D01*
X204829Y121261D01*
X204641Y120771D01*
X206600Y120019D01*
X203285Y120168D02*
X204037Y122127D01*
X203547Y122315D01*
X202869Y122013D01*
X202305Y120544D01*
X202869Y122013D01*
X202567Y122691D01*
X201889Y122390D01*
X201325Y120920D01*
X201098Y123256D02*
X200534Y121786D01*
X199855Y121484D01*
X198386Y122048D01*
X199138Y124008D01*
X197406Y122424D02*
X198158Y124384D01*
X196688Y124948D01*
X196010Y124646D01*
X195446Y123177D01*
X193635Y127244D02*
X192507Y124305D01*
X193977Y123741D01*
X194655Y124043D01*
X195031Y125022D01*
X194729Y125700D01*
X193259Y126265D01*
X191977Y127319D02*
X191789Y126829D01*
X192279Y126641D01*
X191299Y127017D01*
X191789Y126829D01*
X191225Y125359D01*
X190547Y125057D01*
X324401Y100736D02*
X321648Y99209D01*
X322411Y97832D01*
X323124Y97628D01*
X324042Y98137D01*
X324247Y98850D01*
X323483Y100227D01*
X323992Y99309D02*
X325419Y98900D01*
X324192Y94620D02*
X324142Y95792D01*
X324551Y97219D01*
X325469Y97727D01*
X326182Y97523D01*
X326691Y96605D01*
X326486Y95891D01*
X326027Y95637D01*
X325314Y95842D01*
X324551Y97219D01*
X213121Y170343D02*
X213376Y171235D01*
X214524Y171871D01*
X215415Y171615D01*
X216687Y169320D01*
X216432Y168428D01*
X215284Y167792D01*
X214392Y168048D01*
X213563Y166838D02*
X212416Y166202D01*
X212989Y166520D01*
X211081Y169963D01*
X211973Y169707D01*
X327479Y197038D02*
X326228Y199494D01*
X322720Y197706D02*
X326228Y199494D01*
X331590Y188970D02*
X330339Y191425D01*
X328082Y187182D02*
X331590Y188970D01*
X180022Y300858D02*
X182477Y302110D01*
X180690Y305617D01*
X171953Y296747D02*
X174409Y297999D01*
X171953Y296747D02*
X170166Y300255D01*
X194930Y308455D02*
X197386Y309706D01*
X195598Y313214D01*
X186862Y304344D02*
X189317Y305595D01*
X186862Y304344D02*
X185074Y307852D01*
X231817Y273784D02*
X230029Y277292D01*
X231817Y273784D02*
X240937Y278431D01*
X225382Y286413D02*
X223595Y289920D01*
X232715Y294568D01*
X279799Y228319D02*
X281029Y231217D01*
X279653Y230661D01*
X279097Y232037D01*
X277867Y229139D01*
X277238Y231686D02*
X276272Y232097D01*
X275584Y231819D01*
X274968Y230369D01*
X276417Y229754D01*
X277106Y230032D01*
X276828Y230720D01*
X275378Y231335D01*
X273300Y234498D02*
X272070Y231600D01*
X273519Y230984D01*
X274207Y231262D01*
X274617Y232229D01*
X274339Y232917D01*
X272890Y233532D01*
X269655Y232625D02*
X270621Y232215D01*
X271309Y232493D01*
X271719Y233459D01*
X271441Y234147D01*
X270475Y234557D01*
X269787Y234279D01*
X269582Y233796D01*
X271514Y232976D01*
X266538Y237368D02*
X265307Y234470D01*
X263858Y235085D01*
X263580Y235773D01*
X263785Y236257D01*
X263990Y236740D01*
X264678Y237017D01*
X266128Y236402D01*
X263229Y237633D02*
X262614Y236184D01*
X261926Y235906D01*
X260477Y236521D01*
X260272Y236038D01*
X260550Y235349D01*
X261033Y235144D01*
X260477Y236521D02*
X261297Y238453D01*
X276472Y225854D02*
X278404Y225034D01*
X277789Y223585D01*
X276823Y223995D01*
X277789Y223585D01*
X277174Y222135D01*
X274276Y223366D02*
X273310Y223776D01*
X273793Y223571D01*
X275023Y226469D01*
X275506Y226264D01*
X271377Y224596D02*
X270411Y225006D01*
X270133Y225694D01*
X270544Y226660D01*
X271232Y226938D01*
X272198Y226528D01*
X272476Y225840D01*
X272066Y224874D01*
X271377Y224596D01*
X269782Y227553D02*
X268962Y225621D01*
X269372Y226587D01*
X269094Y227275D01*
X268816Y227963D01*
X268333Y228168D01*
X266064Y226851D02*
X265098Y227261D01*
X265581Y227056D01*
X266401Y228989D01*
X266884Y228784D01*
X263649Y227877D02*
X262200Y228492D01*
X261922Y229180D01*
X262610Y229458D01*
X263576Y229048D01*
X264264Y229326D01*
X263986Y230014D01*
X262537Y230629D01*
X258672Y232269D02*
X256886Y230747D01*
X256740Y233089D01*
X255291Y233705D02*
X254325Y234115D01*
X253637Y233837D01*
X253022Y232387D01*
X254471Y231772D01*
X255159Y232050D01*
X254881Y232738D01*
X253432Y233354D01*
X252056Y232798D02*
X252876Y234730D01*
X251427Y235345D01*
X250739Y235067D01*
X250123Y233618D01*
X245557Y238977D02*
X244327Y236078D01*
X245776Y235463D01*
X246464Y235741D01*
X246874Y236707D01*
X246596Y237395D01*
X245147Y238010D01*
X241912Y237104D02*
X242878Y236693D01*
X243566Y236971D01*
X243976Y237937D01*
X243698Y238626D01*
X242732Y239036D01*
X242044Y238758D01*
X241839Y238275D01*
X243771Y237454D01*
X241283Y239651D02*
X240462Y237719D01*
X240873Y238685D01*
X240595Y239373D01*
X240316Y240061D01*
X239833Y240266D01*
X235896Y243077D02*
X234666Y240179D01*
X235281Y241628D01*
X233349Y242448D01*
X233964Y243898D01*
X232734Y240999D01*
X230318Y242024D02*
X231284Y241614D01*
X231973Y241892D01*
X232383Y242859D01*
X232105Y243547D01*
X231138Y243957D01*
X230450Y243679D01*
X230245Y243196D01*
X232178Y242375D01*
X228869Y242640D02*
X227903Y243050D01*
X228386Y242845D01*
X229206Y244777D01*
X229689Y244572D01*
X226044Y242699D02*
X225561Y242904D01*
X225283Y243592D01*
X226308Y246007D01*
X222854Y248614D02*
X221623Y245715D01*
X223073Y245100D01*
X223761Y245378D01*
X224171Y246344D01*
X223893Y247032D01*
X222444Y247647D01*
X219208Y246740D02*
X220174Y246330D01*
X220862Y246608D01*
X221272Y247574D01*
X220994Y248263D01*
X220028Y248673D01*
X219340Y248395D01*
X219135Y247912D01*
X221068Y247091D01*
X217071Y247078D02*
X216793Y247766D01*
X216998Y248249D01*
X217481Y248044D01*
X217276Y247561D01*
X216793Y247766D01*
X217071Y247078D01*
X217349Y246390D01*
X211261Y253535D02*
X212227Y253124D01*
X211744Y253329D01*
X210718Y250914D01*
X210996Y250226D01*
X211479Y250021D01*
X212168Y250299D01*
X208581Y251251D02*
X207615Y251661D01*
X207337Y252349D01*
X207747Y253316D01*
X208435Y253594D01*
X209401Y253184D01*
X209679Y252496D01*
X209269Y251529D01*
X208581Y251251D01*
X206986Y254209D02*
X206166Y252277D01*
X206576Y253243D01*
X206298Y253931D01*
X206020Y254619D01*
X205537Y254824D01*
X203268Y253507D02*
X204088Y255439D01*
X202639Y256054D01*
X201951Y255776D01*
X201335Y254327D01*
X198291Y257899D02*
X196505Y256377D01*
X196359Y258720D01*
X194910Y259335D02*
X193944Y259745D01*
X193256Y259467D01*
X192641Y258018D01*
X194090Y257403D01*
X194778Y257681D01*
X194500Y258369D01*
X193051Y258984D01*
X191674Y258428D02*
X192495Y260360D01*
X191045Y260975D01*
X190357Y260697D01*
X189742Y259248D01*
X273847Y219670D02*
X272617Y216772D01*
X274066Y216157D01*
X274754Y216435D01*
X275164Y217401D01*
X274886Y218089D01*
X273437Y218704D01*
X270202Y217797D02*
X271168Y217387D01*
X271856Y217665D01*
X272266Y218631D01*
X271988Y219319D01*
X271022Y219729D01*
X270334Y219451D01*
X270129Y218968D01*
X272061Y218148D01*
X269573Y220344D02*
X268753Y218412D01*
X269163Y219378D01*
X268885Y220066D01*
X268607Y220755D01*
X268124Y220960D01*
X264186Y223771D02*
X262956Y220873D01*
X261024Y221693D01*
X260058Y222103D02*
X259092Y222513D01*
X259575Y222308D01*
X260395Y224240D01*
X260878Y224035D01*
X257643Y223128D02*
X258463Y225061D01*
X257014Y225676D01*
X256326Y225398D01*
X255710Y223949D01*
X254042Y228077D02*
X252812Y225179D01*
X254261Y224564D01*
X254949Y224842D01*
X255360Y225808D01*
X255081Y226496D01*
X253632Y227111D01*
X250397Y226204D02*
X251363Y225794D01*
X252051Y226072D01*
X252461Y227038D01*
X252183Y227726D01*
X251217Y228136D01*
X250529Y227858D01*
X250324Y227375D01*
X252256Y226555D01*
X248948Y226819D02*
X249768Y228751D01*
X248319Y229366D01*
X247631Y229088D01*
X247016Y227639D01*
X241702Y229895D02*
X242668Y229485D01*
X243356Y229763D01*
X243766Y230729D01*
X243488Y231417D01*
X242522Y231827D01*
X241834Y231549D01*
X241629Y231066D01*
X243561Y230246D01*
X240253Y230510D02*
X241073Y232442D01*
X239624Y233057D01*
X238936Y232779D01*
X238321Y231330D01*
X235686Y235869D02*
X234456Y232970D01*
X234866Y233936D01*
X233754Y236689D01*
X234588Y234625D01*
X232524Y233790D01*
X231075Y234406D02*
X230109Y234816D01*
X229831Y235504D01*
X230241Y236470D01*
X230929Y236748D01*
X231895Y236338D01*
X232173Y235650D01*
X231763Y234684D01*
X231075Y234406D01*
X227210Y236046D02*
X228177Y235636D01*
X228865Y235914D01*
X229275Y236880D01*
X228997Y237568D01*
X228031Y237978D01*
X227343Y237700D01*
X227138Y237217D01*
X229070Y236397D01*
X225761Y236661D02*
X226582Y238593D01*
X225132Y239208D01*
X224444Y238930D01*
X223829Y237481D01*
X220785Y241054D02*
X218999Y239532D01*
X218853Y241874D01*
X217404Y242489D02*
X216438Y242899D01*
X215749Y242621D01*
X215134Y241172D01*
X216583Y240557D01*
X217272Y240835D01*
X216994Y241523D01*
X215544Y242138D01*
X214168Y241582D02*
X214988Y243514D01*
X213539Y244129D01*
X212851Y243851D01*
X212236Y242402D01*
X208372Y244043D02*
X209602Y246941D01*
X208153Y247556D01*
X207465Y247278D01*
X207055Y246312D01*
X207333Y245624D01*
X208782Y245009D01*
X207816Y245419D02*
X206439Y244863D01*
X204024Y245888D02*
X204990Y245478D01*
X205678Y245756D01*
X206088Y246722D01*
X205810Y247410D01*
X204844Y247820D01*
X204156Y247542D01*
X203951Y247059D01*
X205883Y246239D01*
X202575Y246503D02*
X203395Y248435D01*
X202912Y248640D01*
X202224Y248362D01*
X201609Y246913D01*
X202224Y248362D01*
X201946Y249050D01*
X201258Y248772D01*
X200643Y247323D01*
X200497Y249665D02*
X199882Y248216D01*
X199194Y247938D01*
X197745Y248553D01*
X198565Y250486D01*
X196779Y248964D02*
X197599Y250896D01*
X196150Y251511D01*
X195461Y251233D01*
X194846Y249784D01*
X193178Y253912D02*
X191948Y251014D01*
X193397Y250399D01*
X194085Y250677D01*
X194495Y251643D01*
X194217Y252331D01*
X192768Y252946D01*
X191524Y254044D02*
X191319Y253561D01*
X191802Y253356D01*
X190836Y253766D01*
X191319Y253561D01*
X190704Y252112D01*
X190016Y251834D01*
X322940Y222856D02*
X320134Y221427D01*
X320849Y220024D01*
X321555Y219795D01*
X322490Y220271D01*
X322719Y220977D01*
X322004Y222380D01*
X322481Y221445D02*
X323892Y220986D01*
X322516Y216751D02*
X322508Y217924D01*
X322966Y219336D01*
X323901Y219812D01*
X324607Y219583D01*
X325084Y218648D01*
X324854Y217942D01*
X324387Y217704D01*
X323681Y217933D01*
X322966Y219336D01*
X214156Y296304D02*
X214442Y297187D01*
X215611Y297782D01*
X216494Y297496D01*
X217685Y295158D01*
X217398Y294276D01*
X216229Y293680D01*
X215347Y293967D01*
X214476Y292787D02*
X213307Y292191D01*
X213891Y292489D01*
X212105Y295996D01*
X212987Y295709D01*
D13*
X210118Y418265D02*
X209603Y419115D01*
X208918Y419833D01*
X208095Y420388D01*
X207172Y420753D01*
X206191Y420911D01*
X205200Y420854D01*
X204244Y420585D01*
X203369Y420118D01*
X202614Y419473D01*
X202015Y418680D01*
X201601Y417778D01*
X201391Y416808D01*
X201394Y415815D01*
X201610Y414846D01*
X202030Y413946D01*
X202633Y413158D01*
X203392Y412517D01*
X204270Y412055D01*
X205228Y411792D01*
X206219Y411741D01*
X207198Y411905D01*
X208120Y412275D01*
X208940Y412835D01*
X209620Y413558D01*
X210129Y414410D01*
X210444Y415352D01*
X210548Y416339D01*
X210438Y417326D01*
X210118Y418265D01*
X204669Y404647D02*
X215730Y409805D01*
X196183Y422845D02*
X207244Y428003D01*
X217231Y416369D02*
X213237Y424933D01*
X215730Y409805D02*
X216968Y413206D01*
X198676Y407717D02*
X194683Y416281D01*
X201268Y405885D02*
X204669Y404647D01*
X194946Y419444D02*
X196183Y422845D01*
X207244Y428003D02*
X210645Y426765D01*
X165484Y469593D02*
X161501Y469942D01*
X163492Y469768D01*
X162970Y463792D01*
X159509Y470116D02*
X155003Y464489D01*
X155525Y470465D02*
X158986Y464141D01*
X178935Y472092D02*
X176400Y477528D01*
X173681Y476260D01*
X173198Y474932D01*
X174043Y473120D01*
X175372Y472636D01*
X178089Y473904D01*
X173498Y469557D02*
X171686Y468712D01*
X172592Y469134D01*
X170057Y474570D01*
X171386Y474087D01*
X160281Y388511D02*
X158618Y392078D01*
X156834Y391246D01*
X156517Y390374D01*
X157071Y389186D01*
X157943Y388868D01*
X159726Y389700D01*
X158537Y389145D02*
X157903Y387402D01*
X156714Y386847D02*
X155525Y386293D01*
X156119Y386570D01*
X154456Y390137D01*
X155328Y389820D01*
X152078Y389028D02*
X149700Y387920D01*
X149977Y387325D01*
X153464Y386056D01*
X153741Y385461D01*
X159849Y399531D02*
X160721Y399214D01*
X161275Y398025D01*
X160958Y397153D01*
X158580Y396044D01*
X157709Y396362D01*
X157154Y397551D01*
X157471Y398422D01*
X159295Y400720D02*
X159612Y401592D01*
X159058Y402781D01*
X158186Y403098D01*
X157591Y402821D01*
X157274Y401949D01*
X156403Y402267D01*
X155808Y401989D01*
X155491Y401118D01*
X156045Y399929D01*
X156917Y399611D01*
X157511Y399888D01*
X157829Y400760D01*
X158700Y400443D01*
X159295Y400720D01*
X157829Y400760D02*
X157274Y401949D01*
X128510Y442784D02*
X123074Y440249D01*
X124341Y437531D01*
X125670Y437047D01*
X127482Y437892D01*
X127965Y439221D01*
X126698Y441939D01*
X127543Y440127D02*
X130200Y439160D01*
X131045Y437348D02*
X131890Y435536D01*
X131467Y436442D01*
X126031Y433907D01*
X126515Y435235D01*
X129411Y426659D02*
X129472Y428893D01*
X130439Y431550D01*
X132251Y432395D01*
X133580Y431912D01*
X134424Y430100D01*
X133941Y428771D01*
X133035Y428349D01*
X131707Y428832D01*
X130439Y431550D01*
X247447Y402057D02*
X249559Y397527D01*
X249076Y396199D01*
X247264Y395354D01*
X245935Y395837D01*
X243823Y400367D01*
X240922Y392396D02*
X244546Y394086D01*
X239232Y396021D01*
X238809Y396927D01*
X239293Y398255D01*
X241105Y399100D01*
X242433Y398617D01*
X298524Y385807D02*
X300637Y381277D01*
X300153Y379948D01*
X298341Y379103D01*
X297013Y379587D01*
X294900Y384117D01*
X295623Y377836D02*
X293811Y376991D01*
X294717Y377413D01*
X292182Y382850D01*
X293511Y382366D01*
X216699Y405079D02*
X217183Y406407D01*
X218995Y407252D01*
X220323Y406768D01*
X220746Y405862D01*
X220262Y404534D01*
X218450Y403689D01*
X217967Y402360D01*
X218389Y401454D01*
X219718Y400971D01*
X221530Y401816D01*
X222013Y403144D01*
X214465Y405139D02*
X217000Y399704D01*
X214343Y400670D01*
X213375Y398013D01*
X210841Y403450D01*
X207939Y395479D02*
X211563Y397169D01*
X206249Y399103D01*
X205827Y400009D01*
X206311Y401337D01*
X208123Y402182D01*
X209451Y401699D01*
X293910Y367547D02*
X291375Y372983D01*
X288657Y371716D01*
X288174Y370387D01*
X289019Y368575D01*
X290347Y368092D01*
X293065Y369359D01*
X291253Y368514D02*
X290286Y365857D01*
X288474Y365012D02*
X286662Y364167D01*
X287568Y364590D01*
X285033Y370026D01*
X286362Y369542D01*
X277785Y366646D02*
X281409Y368336D01*
X282677Y365618D01*
X280442Y365679D01*
X279536Y365256D01*
X279053Y363928D01*
X279897Y362116D01*
X281226Y361632D01*
X283038Y362477D01*
X283522Y363806D01*
X154138Y446047D02*
X148702Y443512D01*
X149970Y440794D01*
X151298Y440310D01*
X153110Y441155D01*
X153594Y442484D01*
X152326Y445202D01*
X153171Y443390D02*
X155828Y442422D01*
X156673Y440611D02*
X157518Y438799D01*
X157096Y439705D01*
X151660Y437170D01*
X152143Y438498D01*
X160053Y433362D02*
X154617Y430828D01*
X156068Y434813D01*
X157757Y431189D01*
X161179Y430001D02*
X155743Y427467D01*
X157010Y424749D01*
X158339Y424265D01*
X160151Y425110D01*
X160634Y426439D01*
X159367Y429156D01*
X160212Y427345D02*
X162869Y426377D01*
X163714Y424565D02*
X164559Y422753D01*
X164136Y423659D01*
X158700Y421125D01*
X159184Y422453D01*
X161296Y417923D02*
X160813Y416594D01*
X161658Y414782D01*
X162986Y414299D01*
X163892Y414721D01*
X164376Y416050D01*
X163953Y416956D01*
X164376Y416050D01*
X165704Y415566D01*
X166610Y415989D01*
X167094Y417317D01*
X166249Y419129D01*
X164920Y419613D01*
X277095Y417588D02*
X271659Y415053D01*
X272926Y412335D01*
X274255Y411852D01*
X276067Y412697D01*
X276550Y414025D01*
X275283Y416743D01*
X276128Y414931D02*
X278785Y413964D01*
X279630Y412152D02*
X280475Y410340D01*
X280052Y411246D01*
X274616Y408711D01*
X275100Y410040D01*
X283432Y403998D02*
X281742Y407622D01*
X279808Y402308D01*
X278902Y401885D01*
X277574Y402369D01*
X276729Y404181D01*
X277212Y405510D01*
X193556Y405766D02*
X188119Y403231D01*
X189387Y400513D01*
X190715Y400030D01*
X192527Y400875D01*
X193011Y402203D01*
X191744Y404921D01*
X192588Y403109D02*
X195246Y402142D01*
X196090Y400330D02*
X196935Y398518D01*
X196513Y399424D01*
X191077Y396889D01*
X191560Y398218D01*
X198203Y395800D02*
X199048Y393988D01*
X198625Y394894D01*
X193189Y392359D01*
X193673Y393687D01*
X185105Y402928D02*
X179669Y400393D01*
X180936Y397675D01*
X182265Y397192D01*
X184077Y398037D01*
X184560Y399365D01*
X183293Y402083D01*
X184138Y400271D02*
X186795Y399304D01*
X187640Y397492D02*
X188485Y395680D01*
X188062Y396586D01*
X182626Y394051D01*
X183110Y395380D01*
X185222Y390850D02*
X184738Y389521D01*
X185583Y387709D01*
X186912Y387226D01*
X190536Y388916D01*
X191019Y390244D01*
X190174Y392056D01*
X188846Y392540D01*
X185222Y390850D01*
X284807Y401051D02*
X279370Y398516D01*
X280638Y395797D01*
X281966Y395314D01*
X283779Y396159D01*
X284262Y397487D01*
X282995Y400206D01*
X283840Y398394D02*
X286496Y397426D01*
X286436Y395192D02*
X287764Y394708D01*
X288609Y392896D01*
X288125Y391568D01*
X284501Y389878D01*
X283173Y390361D01*
X282328Y392174D01*
X282811Y393502D01*
X283717Y393924D01*
X285046Y393441D01*
X286313Y390723D01*
X309941Y317316D02*
X307406Y322752D01*
X304688Y321484D01*
X304204Y320156D01*
X305049Y318344D01*
X306378Y317860D01*
X309096Y319128D01*
X307284Y318283D02*
X306317Y315626D01*
X302392Y319311D02*
X301064Y319794D01*
X299252Y318949D01*
X298768Y317621D01*
X299191Y316715D01*
X300519Y316231D01*
X300036Y314903D01*
X300458Y313997D01*
X301787Y313513D01*
X303599Y314358D01*
X304082Y315687D01*
X303660Y316593D01*
X302331Y317076D01*
X302815Y318405D01*
X302392Y319311D01*
X302331Y317076D02*
X300519Y316231D01*
X174169Y393849D02*
X171634Y399285D01*
X168916Y398018D01*
X168432Y396689D01*
X169277Y394877D01*
X170606Y394394D01*
X173324Y395661D01*
X171511Y394816D02*
X170545Y392159D01*
X166198Y396750D02*
X162574Y395060D01*
X162996Y394154D01*
X168310Y392220D01*
X168732Y391314D01*
X322909Y361260D02*
X317473Y358725D01*
X318741Y356007D01*
X320069Y355523D01*
X321881Y356368D01*
X322365Y357697D01*
X321097Y360415D01*
X321942Y358603D02*
X324599Y357636D01*
X321698Y349665D02*
X320008Y353289D01*
X322726Y354556D01*
X322665Y352322D01*
X323088Y351416D01*
X324416Y350932D01*
X326228Y351777D01*
X326712Y353106D01*
X325867Y354918D01*
X324538Y355401D01*
X100310Y471318D02*
X98646Y474885D01*
X96863Y474053D01*
X96546Y473182D01*
X97100Y471993D01*
X97972Y471675D01*
X99755Y472507D01*
X98566Y471953D02*
X97932Y470209D01*
X94959Y468823D02*
X93296Y472390D01*
X95911Y471438D01*
X93533Y470329D01*
X46984Y447605D02*
X41547Y445070D01*
X42815Y442352D01*
X44143Y441868D01*
X45955Y442713D01*
X46439Y444042D01*
X45171Y446760D01*
X46016Y444948D02*
X48673Y443981D01*
X49518Y442169D02*
X50363Y440357D01*
X49941Y441263D01*
X44505Y438728D01*
X44988Y440057D01*
X196717Y447821D02*
X195027Y451445D01*
X195511Y452773D01*
X197323Y453618D01*
X198651Y453135D01*
X200341Y449511D01*
X199858Y448182D01*
X198046Y447337D01*
X198107Y449572D02*
X197140Y446915D01*
X198046Y447337D02*
X196717Y447821D01*
X193215Y450600D02*
X191887Y451083D01*
X190075Y450238D01*
X189591Y448910D01*
X190014Y448004D01*
X191342Y447520D01*
X192248Y447943D01*
X191342Y447520D01*
X190859Y446192D01*
X191281Y445286D01*
X192610Y444802D01*
X194422Y445647D01*
X194905Y446976D01*
X176616Y437361D02*
X174926Y440986D01*
X175410Y442314D01*
X177222Y443159D01*
X178550Y442675D01*
X180240Y439051D01*
X179757Y437723D01*
X177945Y436878D01*
X178006Y439113D02*
X177039Y436455D01*
X177945Y436878D02*
X176616Y437361D01*
X171603Y433921D02*
X175227Y435610D01*
X169913Y437545D01*
X169490Y438451D01*
X169974Y439779D01*
X171786Y440624D01*
X173114Y440141D01*
X316955Y320354D02*
X315265Y323978D01*
X315749Y325307D01*
X317561Y326152D01*
X318889Y325668D01*
X320579Y322044D01*
X320095Y320716D01*
X318283Y319871D01*
X318344Y322105D02*
X317377Y319448D01*
X318283Y319871D02*
X316955Y320354D01*
X315565Y318603D02*
X313753Y317758D01*
X314659Y318181D01*
X312124Y323617D01*
X313453Y323133D01*
X201305Y464160D02*
X204929Y465850D01*
X206196Y463132D01*
X204384Y462287D01*
X206196Y463132D01*
X207464Y460414D01*
X202028Y457879D02*
X200216Y457034D01*
X201121Y457457D01*
X198587Y462893D01*
X199915Y462409D01*
X323358Y332130D02*
X328795Y334665D01*
X330062Y331947D01*
X329578Y330619D01*
X325954Y328929D01*
X324626Y329412D01*
X323358Y332130D01*
X331329Y329229D02*
X332174Y327417D01*
X331752Y328323D01*
X326316Y325788D01*
X326799Y327117D01*
X257405Y382775D02*
X256077Y383259D01*
X255232Y385071D01*
X255715Y386399D01*
X259340Y388089D01*
X260668Y387606D01*
X261513Y385793D01*
X261030Y384465D01*
X257344Y380540D02*
X259034Y376916D01*
X259940Y377339D01*
X261874Y382653D01*
X262780Y383075D01*
X116205Y468990D02*
X114876Y469473D01*
X114031Y471285D01*
X114515Y472614D01*
X118139Y474304D01*
X119467Y473820D01*
X120312Y472008D01*
X119829Y470680D01*
X117834Y463131D02*
X117895Y465366D01*
X118862Y468023D01*
X120674Y468868D01*
X122002Y468384D01*
X122847Y466572D01*
X122364Y465243D01*
X121458Y464821D01*
X120129Y465305D01*
X118862Y468023D01*
X307806Y388918D02*
X308290Y390247D01*
X310102Y391092D01*
X311430Y390608D01*
X313120Y386984D01*
X312636Y385655D01*
X310824Y384811D01*
X309496Y385294D01*
X301947Y387289D02*
X305572Y388979D01*
X306839Y386261D01*
X304604Y386322D01*
X303698Y385900D01*
X303215Y384571D01*
X304060Y382759D01*
X305388Y382276D01*
X307200Y383121D01*
X307684Y384449D01*
X256683Y435669D02*
X257167Y436998D01*
X258979Y437843D01*
X260308Y437359D01*
X261997Y433735D01*
X261514Y432407D01*
X259702Y431562D01*
X258373Y432045D01*
X254266Y429027D02*
X251731Y434463D01*
X255716Y433012D01*
X252092Y431322D01*
X245979Y430678D02*
X246463Y432006D01*
X248275Y432851D01*
X249603Y432368D01*
X251293Y428744D01*
X250810Y427415D01*
X248997Y426570D01*
X247669Y427054D01*
X244167Y429833D02*
X242839Y430316D01*
X241026Y429471D01*
X240543Y428143D01*
X240965Y427237D01*
X242294Y426754D01*
X243200Y427176D01*
X242294Y426754D01*
X241810Y425425D01*
X242233Y424519D01*
X243561Y424035D01*
X245373Y424880D01*
X245857Y426209D01*
X229216Y445667D02*
X229699Y446995D01*
X231511Y447840D01*
X232839Y447357D01*
X234529Y443733D01*
X234046Y442404D01*
X232234Y441559D01*
X230905Y442043D01*
X225892Y438602D02*
X229516Y440292D01*
X224202Y442226D01*
X223779Y443132D01*
X224263Y444461D01*
X226075Y445306D01*
X227403Y444822D01*
X49963Y432904D02*
X52075Y428374D01*
X51592Y427046D01*
X49780Y426201D01*
X48451Y426685D01*
X46339Y431215D01*
X44949Y429464D02*
X43621Y429947D01*
X41809Y429102D01*
X41325Y427774D01*
X41748Y426868D01*
X43076Y426384D01*
X43982Y426807D01*
X43076Y426384D01*
X42593Y425056D01*
X43015Y424150D01*
X44344Y423666D01*
X46156Y424511D01*
X46639Y425840D01*
X203905Y165985D02*
X203333Y166797D01*
X202599Y167466D01*
X201739Y167962D01*
X200793Y168261D01*
X199804Y168350D01*
X198819Y168224D01*
X197884Y167890D01*
X197043Y167362D01*
X196335Y166666D01*
X195794Y165834D01*
X195443Y164905D01*
X195301Y163923D01*
X195373Y162932D01*
X195657Y161981D01*
X196138Y161112D01*
X196795Y160368D01*
X197596Y159782D01*
X198505Y159382D01*
X199478Y159187D01*
X200471Y159205D01*
X201436Y159437D01*
X202329Y159870D01*
X203109Y160486D01*
X203737Y161254D01*
X204186Y162140D01*
X204433Y163101D01*
X204469Y164093D01*
X204290Y165070D01*
X203905Y165985D01*
X199419Y152020D02*
X210094Y157937D01*
X189685Y169582D02*
X200360Y175499D01*
X211133Y164590D02*
X206552Y172854D01*
X210094Y157937D02*
X211091Y161416D01*
X193227Y154665D02*
X188646Y162929D01*
X195941Y153018D02*
X199419Y152020D01*
X188688Y166103D02*
X189685Y169582D01*
X200360Y175499D02*
X203838Y174501D01*
X155800Y214075D02*
X151802Y214144D01*
X153801Y214109D01*
X153696Y208112D01*
X149802Y214179D02*
X145700Y208252D01*
X145804Y214249D02*
X149698Y208182D01*
X169043Y217505D02*
X166135Y222751D01*
X163512Y221297D01*
X163122Y219938D01*
X164092Y218190D01*
X165451Y217800D01*
X168074Y219254D01*
X163797Y214597D02*
X162048Y213628D01*
X162923Y214112D01*
X160015Y219358D01*
X161374Y218969D01*
X156265Y132827D02*
X154357Y136269D01*
X152636Y135315D01*
X152380Y134423D01*
X153016Y133276D01*
X153908Y133020D01*
X155629Y133974D01*
X154482Y133338D02*
X153970Y131555D01*
X152823Y130919D02*
X151675Y130283D01*
X152249Y130601D01*
X150341Y134043D01*
X151233Y133787D01*
X148046Y132771D02*
X145751Y131499D01*
X146069Y130925D01*
X149636Y129902D01*
X149954Y129329D01*
X155066Y143790D02*
X155958Y143534D01*
X156594Y142387D01*
X156338Y141495D01*
X154043Y140223D01*
X153151Y140479D01*
X152515Y141626D01*
X152771Y142518D01*
X154430Y144938D02*
X154686Y145829D01*
X154050Y146977D01*
X153158Y147232D01*
X152584Y146914D01*
X152328Y146023D01*
X151437Y146278D01*
X150863Y145960D01*
X150607Y145069D01*
X151243Y143921D01*
X152135Y143666D01*
X152709Y143983D01*
X152964Y144875D01*
X153856Y144620D01*
X154430Y144938D01*
X152964Y144875D02*
X152328Y146023D01*
X120786Y184751D02*
X115540Y181843D01*
X116993Y179220D01*
X118352Y178831D01*
X120101Y179800D01*
X120491Y181159D01*
X119037Y183782D01*
X120006Y182033D02*
X122724Y181254D01*
X123694Y179505D02*
X124663Y177757D01*
X124178Y178631D01*
X118932Y175723D01*
X119322Y177082D01*
X122809Y168728D02*
X122714Y170962D01*
X123494Y173680D01*
X125242Y174649D01*
X126601Y174259D01*
X127571Y172511D01*
X127181Y171152D01*
X126307Y170667D01*
X124948Y171057D01*
X123494Y173680D01*
X242274Y152421D02*
X244697Y148049D01*
X244308Y146690D01*
X242559Y145721D01*
X241200Y146110D01*
X238777Y150482D01*
X236438Y142328D02*
X239936Y144267D01*
X234500Y145826D01*
X234015Y146700D01*
X234405Y148059D01*
X236154Y149028D01*
X237513Y148638D01*
X294360Y139773D02*
X296784Y135401D01*
X296394Y134042D01*
X294645Y133073D01*
X293286Y133462D01*
X290863Y137834D01*
X292022Y131619D02*
X290274Y130649D01*
X291148Y131134D01*
X288240Y136380D01*
X289599Y135991D01*
X211390Y153290D02*
X211780Y154649D01*
X213529Y155618D01*
X214888Y155228D01*
X215372Y154354D01*
X214983Y152995D01*
X213234Y152025D01*
X212844Y150667D01*
X213329Y149792D01*
X214688Y149402D01*
X216437Y150372D01*
X216826Y151731D01*
X209157Y153195D02*
X212065Y147949D01*
X209347Y148728D01*
X208568Y146010D01*
X205660Y151256D01*
X203322Y143102D02*
X206819Y145041D01*
X201383Y146599D01*
X200898Y147474D01*
X201288Y148833D01*
X203037Y149802D01*
X204396Y149412D01*
X291031Y121236D02*
X288123Y126481D01*
X285500Y125028D01*
X285111Y123669D01*
X286080Y121920D01*
X287439Y121530D01*
X290062Y122984D01*
X288313Y122015D02*
X287534Y119297D01*
X285785Y118328D02*
X284037Y117358D01*
X284911Y117843D01*
X282003Y123089D01*
X283362Y122699D01*
X275008Y119212D02*
X278506Y121150D01*
X279960Y118527D01*
X277726Y118432D01*
X276852Y117948D01*
X276462Y116589D01*
X277432Y114840D01*
X278791Y114450D01*
X280539Y115420D01*
X280929Y116779D01*
X146124Y189794D02*
X140878Y186886D01*
X142332Y184263D01*
X143691Y183873D01*
X145440Y184843D01*
X145829Y186202D01*
X144375Y188824D01*
X145345Y187076D02*
X148063Y186296D01*
X149032Y184548D02*
X150001Y182799D01*
X149517Y183674D01*
X144271Y180766D01*
X144660Y182125D01*
X152909Y177553D02*
X147663Y174645D01*
X148832Y178722D01*
X150771Y175225D01*
X154267Y174279D02*
X149021Y171371D01*
X150475Y168748D01*
X151834Y168358D01*
X153582Y169328D01*
X153972Y170687D01*
X152518Y173310D01*
X153488Y171561D02*
X156205Y170782D01*
X157175Y169033D02*
X158144Y167284D01*
X157659Y168159D01*
X152413Y165251D01*
X152803Y166610D01*
X155226Y162238D02*
X154837Y160879D01*
X155806Y159130D01*
X157165Y158741D01*
X158039Y159225D01*
X158429Y160584D01*
X157944Y161459D01*
X158429Y160584D01*
X159788Y160195D01*
X160662Y160679D01*
X161052Y162038D01*
X160083Y163787D01*
X158724Y164177D01*
X270766Y169982D02*
X265520Y167074D01*
X266974Y164451D01*
X268333Y164061D01*
X270082Y165030D01*
X270472Y166389D01*
X269018Y169012D01*
X269987Y167264D02*
X272705Y166484D01*
X273674Y164736D02*
X274644Y162987D01*
X274159Y163861D01*
X268913Y160953D01*
X269303Y162312D01*
X278036Y156867D02*
X276098Y160364D01*
X274539Y154928D01*
X273664Y154443D01*
X272305Y154833D01*
X271336Y156582D01*
X271726Y157941D01*
X188255Y152361D02*
X183009Y149453D01*
X184463Y146830D01*
X185822Y146440D01*
X187571Y147410D01*
X187960Y148769D01*
X186506Y151392D01*
X187476Y149643D02*
X190194Y148864D01*
X191163Y147115D02*
X192132Y145366D01*
X191648Y146241D01*
X186402Y143333D01*
X186791Y144692D01*
X193586Y142743D02*
X194556Y140995D01*
X194071Y141869D01*
X188825Y138961D01*
X189215Y140320D01*
X180023Y148941D02*
X174777Y146033D01*
X176231Y143410D01*
X177590Y143020D01*
X179338Y143989D01*
X179728Y145348D01*
X178274Y147971D01*
X179244Y146223D02*
X181961Y145443D01*
X182931Y143695D02*
X183900Y141946D01*
X183415Y142820D01*
X178169Y139912D01*
X178559Y141271D01*
X180982Y136900D02*
X180593Y135541D01*
X181562Y133792D01*
X182921Y133402D01*
X186418Y135341D01*
X186808Y136700D01*
X185839Y138449D01*
X184480Y138838D01*
X180982Y136900D01*
X279613Y154022D02*
X274367Y151114D01*
X275821Y148491D01*
X277180Y148102D01*
X278928Y149071D01*
X279318Y150430D01*
X277864Y153053D01*
X278833Y151304D02*
X281551Y150525D01*
X281646Y148292D02*
X283005Y147902D01*
X283975Y146153D01*
X283585Y144794D01*
X280088Y142856D01*
X278729Y143245D01*
X277759Y144994D01*
X278149Y146353D01*
X279023Y146838D01*
X280382Y146448D01*
X281836Y143825D01*
X310527Y72245D02*
X307619Y77491D01*
X304996Y76037D01*
X304606Y74678D01*
X305576Y72929D01*
X306935Y72539D01*
X309558Y73993D01*
X307809Y73024D02*
X307030Y70306D01*
X302858Y73708D02*
X301499Y74098D01*
X299750Y73129D01*
X299360Y71770D01*
X299845Y70895D01*
X301204Y70506D01*
X300814Y69147D01*
X301299Y68273D01*
X302658Y67883D01*
X304407Y68852D01*
X304796Y70211D01*
X304312Y71085D01*
X302953Y71475D01*
X303342Y72834D01*
X302858Y73708D01*
X302953Y71475D02*
X301204Y70506D01*
X169747Y139121D02*
X166839Y144367D01*
X164216Y142913D01*
X163826Y141554D01*
X164795Y139805D01*
X166154Y139415D01*
X168777Y140869D01*
X167029Y139900D02*
X166249Y137182D01*
X161593Y141459D02*
X158095Y139520D01*
X158580Y138646D01*
X164016Y137087D01*
X164501Y136213D01*
X320398Y116987D02*
X315152Y114079D01*
X316606Y111456D01*
X317965Y111066D01*
X319714Y112035D01*
X320104Y113394D01*
X318650Y116017D01*
X319619Y114269D02*
X322337Y113489D01*
X319999Y105335D02*
X318060Y108833D01*
X320683Y110287D01*
X320778Y108053D01*
X321263Y107179D01*
X322622Y106789D01*
X324371Y107758D01*
X324760Y109118D01*
X323791Y110866D01*
X322432Y111256D01*
X90664Y211249D02*
X88756Y214691D01*
X87035Y213737D01*
X86779Y212845D01*
X87415Y211698D01*
X88307Y211442D01*
X90028Y212396D01*
X88880Y211760D02*
X88369Y209977D01*
X85500Y208387D02*
X83592Y211829D01*
X86268Y211062D01*
X83973Y209790D01*
X39122Y183874D02*
X33876Y180966D01*
X35329Y178343D01*
X36689Y177953D01*
X38437Y178922D01*
X38827Y180281D01*
X37373Y182904D01*
X38342Y181156D02*
X41060Y180376D01*
X42030Y178628D02*
X42999Y176879D01*
X42514Y177753D01*
X37268Y174845D01*
X37658Y176204D01*
X188475Y194534D02*
X186537Y198031D01*
X186926Y199390D01*
X188675Y200359D01*
X190034Y199970D01*
X191973Y196472D01*
X191583Y195113D01*
X189834Y194144D01*
X189739Y196377D02*
X188960Y193659D01*
X189834Y194144D02*
X188475Y194534D01*
X184788Y197062D02*
X183429Y197451D01*
X181680Y196482D01*
X181291Y195123D01*
X181775Y194249D01*
X183134Y193859D01*
X184009Y194344D01*
X183134Y193859D01*
X182745Y192500D01*
X183229Y191626D01*
X184588Y191236D01*
X186337Y192206D01*
X186727Y193564D01*
X169153Y182698D02*
X167215Y186195D01*
X167604Y187554D01*
X169353Y188524D01*
X170712Y188134D01*
X172651Y184636D01*
X172261Y183277D01*
X170512Y182308D01*
X170417Y184542D02*
X169638Y181824D01*
X170512Y182308D02*
X169153Y182698D01*
X164392Y178916D02*
X167889Y180854D01*
X162453Y182413D01*
X161969Y183287D01*
X162358Y184646D01*
X164107Y185616D01*
X165466Y185226D01*
X317312Y75765D02*
X315373Y79262D01*
X315763Y80621D01*
X317512Y81591D01*
X318871Y81201D01*
X320809Y77704D01*
X320420Y76345D01*
X318671Y75375D01*
X318576Y77609D02*
X317796Y74891D01*
X318671Y75375D02*
X317312Y75765D01*
X316048Y73921D02*
X314299Y72952D01*
X315174Y73437D01*
X312265Y78683D01*
X313625Y78293D01*
X191912Y211154D02*
X195409Y213092D01*
X196863Y210469D01*
X195115Y209500D01*
X196863Y210469D01*
X198317Y207846D01*
X193071Y204938D02*
X191323Y203969D01*
X192197Y204453D01*
X189289Y209700D01*
X190648Y209310D01*
X322878Y87959D02*
X328124Y90867D01*
X329578Y88244D01*
X329189Y86885D01*
X325691Y84947D01*
X324332Y85336D01*
X322878Y87959D01*
X331032Y85621D02*
X332002Y83872D01*
X331517Y84747D01*
X326271Y81839D01*
X326661Y83198D01*
X253553Y133880D02*
X252194Y134270D01*
X251225Y136018D01*
X251615Y137377D01*
X255112Y139316D01*
X256471Y138926D01*
X257440Y137178D01*
X257051Y135819D01*
X253648Y131647D02*
X255587Y128149D01*
X256461Y128634D01*
X258020Y134070D01*
X258894Y134555D01*
X106682Y210035D02*
X105323Y210425D01*
X104354Y212173D01*
X104744Y213532D01*
X108241Y215471D01*
X109600Y215081D01*
X110570Y213333D01*
X110180Y211974D01*
X108716Y204304D02*
X108621Y206538D01*
X109400Y209256D01*
X111149Y210225D01*
X112508Y209835D01*
X113477Y208086D01*
X113088Y206728D01*
X112213Y206243D01*
X110854Y206632D01*
X109400Y209256D01*
X303402Y143524D02*
X303792Y144883D01*
X305541Y145852D01*
X306900Y145463D01*
X308838Y141965D01*
X308449Y140606D01*
X306700Y139637D01*
X305341Y140026D01*
X297672Y141490D02*
X301169Y143429D01*
X302623Y140806D01*
X300390Y140711D01*
X299515Y140226D01*
X299126Y138867D01*
X300095Y137119D01*
X301454Y136729D01*
X303203Y137698D01*
X303592Y139057D01*
X249143Y186595D02*
X249533Y187954D01*
X251282Y188924D01*
X252641Y188534D01*
X254579Y185036D01*
X254189Y183677D01*
X252441Y182708D01*
X251082Y183098D01*
X247195Y179800D02*
X244287Y185046D01*
X248364Y183877D01*
X244866Y181939D01*
X238813Y180869D02*
X239203Y182228D01*
X240951Y183197D01*
X242311Y182808D01*
X244249Y179310D01*
X243859Y177951D01*
X242111Y176982D01*
X240752Y177372D01*
X237064Y179900D02*
X235705Y180289D01*
X233957Y179320D01*
X233567Y177961D01*
X234052Y177087D01*
X235411Y176697D01*
X236285Y177182D01*
X235411Y176697D01*
X235021Y175338D01*
X235506Y174464D01*
X236865Y174074D01*
X238613Y175043D01*
X239003Y176402D01*
X221045Y194652D02*
X221434Y196011D01*
X223183Y196981D01*
X224542Y196591D01*
X226481Y193094D01*
X226091Y191735D01*
X224342Y190765D01*
X222983Y191155D01*
X218222Y187373D02*
X221719Y189311D01*
X216283Y190870D01*
X215799Y191744D01*
X216189Y193103D01*
X217937Y194073D01*
X219296Y193683D01*
X43119Y169417D02*
X45542Y165045D01*
X45153Y163686D01*
X43404Y162717D01*
X42045Y163107D01*
X39622Y167478D01*
X38358Y165635D02*
X36999Y166024D01*
X35250Y165055D01*
X34860Y163696D01*
X35345Y162822D01*
X36704Y162432D01*
X37578Y162917D01*
X36704Y162432D01*
X36314Y161073D01*
X36799Y160199D01*
X38158Y159809D01*
X39907Y160778D01*
X40296Y162137D01*
X204794Y292271D02*
X204250Y293102D01*
X203541Y293796D01*
X202698Y294322D01*
X201763Y294654D01*
X200778Y294778D01*
X199789Y294686D01*
X198843Y294385D01*
X197984Y293887D01*
X197253Y293216D01*
X196682Y292403D01*
X196300Y291487D01*
X196123Y290510D01*
X196161Y289518D01*
X196411Y288557D01*
X196862Y287672D01*
X197492Y286905D01*
X198272Y286292D01*
X199167Y285860D01*
X200133Y285631D01*
X201125Y285615D01*
X202098Y285813D01*
X203006Y286215D01*
X203806Y286803D01*
X204461Y287549D01*
X204940Y288418D01*
X205221Y289371D01*
X205291Y290361D01*
X205146Y291343D01*
X204794Y292271D01*
X199824Y278471D02*
X210698Y284012D01*
X190708Y296362D02*
X201583Y301903D01*
X211968Y290625D02*
X207679Y299043D01*
X210698Y284012D02*
X211816Y287454D01*
X193727Y281330D02*
X189438Y289749D01*
X196382Y279590D02*
X199824Y278471D01*
X189590Y292920D02*
X190708Y296362D01*
X201583Y301903D02*
X205025Y300784D01*
X158396Y342010D02*
X154403Y342219D01*
X156400Y342115D01*
X156086Y336125D01*
X152406Y342324D02*
X148099Y336543D01*
X148413Y342533D02*
X152092Y336334D01*
X171751Y344976D02*
X169028Y350321D01*
X166356Y348959D01*
X165919Y347615D01*
X166827Y345833D01*
X168171Y345396D01*
X170843Y346758D01*
X166407Y342253D02*
X164625Y341346D01*
X165516Y341799D01*
X162793Y347144D01*
X164138Y346707D01*
X156026Y260795D02*
X154239Y264302D01*
X152486Y263409D01*
X152199Y262527D01*
X152795Y261358D01*
X153677Y261071D01*
X155430Y261964D01*
X154261Y261369D02*
X153688Y259604D01*
X152519Y259009D02*
X151350Y258413D01*
X151935Y258711D01*
X150148Y262218D01*
X151030Y261931D01*
X147810Y261027D02*
X145472Y259835D01*
X145770Y259251D01*
X149299Y258104D01*
X149597Y257520D01*
X155210Y271794D02*
X156092Y271507D01*
X156688Y270338D01*
X156401Y269456D01*
X154063Y268265D01*
X153181Y268552D01*
X152585Y269721D01*
X152872Y270603D01*
X154614Y272963D02*
X154901Y273845D01*
X154305Y275014D01*
X153423Y275301D01*
X152839Y275003D01*
X152552Y274121D01*
X151670Y274407D01*
X151085Y274110D01*
X150799Y273227D01*
X151394Y272058D01*
X152276Y271772D01*
X152861Y272070D01*
X153148Y272952D01*
X154030Y272665D01*
X154614Y272963D01*
X153148Y272952D02*
X152552Y274121D01*
X122380Y313927D02*
X117036Y311204D01*
X118397Y308531D01*
X119742Y308095D01*
X121523Y309002D01*
X121960Y310347D01*
X120598Y313019D01*
X121506Y311238D02*
X124195Y310364D01*
X125103Y308582D02*
X126011Y306801D01*
X125557Y307692D01*
X120212Y304969D01*
X120649Y306313D01*
X123843Y297843D02*
X123826Y300078D01*
X124700Y302767D01*
X126481Y303675D01*
X127826Y303238D01*
X128734Y301456D01*
X128297Y300112D01*
X127406Y299658D01*
X126062Y300095D01*
X124700Y302767D01*
X242666Y277376D02*
X244935Y272922D01*
X244498Y271578D01*
X242717Y270670D01*
X241372Y271107D01*
X239103Y275560D01*
X236482Y267493D02*
X240045Y269308D01*
X234667Y271056D01*
X234213Y271947D01*
X234650Y273291D01*
X236431Y274199D01*
X237776Y273762D01*
X294279Y262918D02*
X296549Y258464D01*
X296112Y257120D01*
X294330Y256212D01*
X292986Y256649D01*
X290716Y261102D01*
X291658Y254850D02*
X289877Y253943D01*
X290767Y254397D01*
X288044Y259741D01*
X289389Y259304D01*
X211831Y279322D02*
X212268Y280667D01*
X214050Y281574D01*
X215394Y281137D01*
X215848Y280247D01*
X215411Y278902D01*
X213630Y277994D01*
X213193Y276650D01*
X213647Y275759D01*
X214991Y275322D01*
X216773Y276230D01*
X217210Y277574D01*
X209596Y279305D02*
X212319Y273961D01*
X209630Y274834D01*
X208756Y272145D01*
X206033Y277490D01*
X203412Y269422D02*
X206975Y271238D01*
X201597Y272985D01*
X201143Y273876D01*
X201580Y275220D01*
X203361Y276128D01*
X204706Y275691D01*
X290305Y244508D02*
X287582Y249852D01*
X284910Y248491D01*
X284473Y247146D01*
X285381Y245365D01*
X286725Y244928D01*
X289398Y246289D01*
X287616Y245382D02*
X286742Y242693D01*
X284961Y241785D02*
X283180Y240877D01*
X284070Y241331D01*
X281347Y246675D01*
X282692Y246239D01*
X274221Y243045D02*
X277784Y244860D01*
X279146Y242188D01*
X276911Y242171D01*
X276020Y241717D01*
X275583Y240373D01*
X276491Y238591D01*
X277835Y238154D01*
X279617Y239062D01*
X280054Y240406D01*
X147879Y318082D02*
X142535Y315359D01*
X143896Y312687D01*
X145241Y312250D01*
X147022Y313157D01*
X147459Y314502D01*
X146098Y317174D01*
X147005Y315393D02*
X149694Y314519D01*
X150602Y312737D02*
X151510Y310956D01*
X151056Y311847D01*
X145712Y309124D01*
X146149Y310468D01*
X154233Y305612D02*
X148889Y302889D01*
X150199Y306922D01*
X152015Y303360D01*
X155475Y302292D02*
X150131Y299569D01*
X151493Y296897D01*
X152837Y296460D01*
X154619Y297368D01*
X155055Y298712D01*
X153694Y301384D01*
X154602Y299603D02*
X157291Y298729D01*
X158198Y296948D02*
X159106Y295166D01*
X158652Y296057D01*
X153308Y293334D01*
X153745Y294679D01*
X156014Y290225D02*
X155577Y288880D01*
X156485Y287099D01*
X157829Y286662D01*
X158720Y287116D01*
X159157Y288461D01*
X158703Y289351D01*
X159157Y288461D01*
X160502Y288024D01*
X161392Y288477D01*
X161829Y289822D01*
X160922Y291603D01*
X159577Y292040D01*
X271754Y293932D02*
X266410Y291209D01*
X267771Y288537D01*
X269116Y288100D01*
X270897Y289007D01*
X271334Y290352D01*
X269972Y293024D01*
X270880Y291243D02*
X273569Y290369D01*
X274477Y288587D02*
X275385Y286806D01*
X274931Y287697D01*
X269586Y284974D01*
X270023Y286318D01*
X278562Y280571D02*
X276746Y284134D01*
X274999Y278756D01*
X274108Y278302D01*
X272763Y278739D01*
X271856Y280520D01*
X272293Y281865D01*
X188678Y279201D02*
X183334Y276478D01*
X184695Y273806D01*
X186040Y273369D01*
X187821Y274277D01*
X188258Y275622D01*
X186897Y278294D01*
X187804Y276512D02*
X190493Y275639D01*
X191401Y273857D02*
X192309Y272076D01*
X191855Y272966D01*
X186511Y270243D01*
X186948Y271588D01*
X193670Y269404D02*
X194578Y267622D01*
X194124Y268513D01*
X188780Y265790D01*
X189217Y267134D01*
X180331Y276071D02*
X174987Y273347D01*
X176349Y270675D01*
X177693Y270238D01*
X179475Y271146D01*
X179911Y272491D01*
X178550Y275163D01*
X179458Y273381D02*
X182147Y272508D01*
X183054Y270726D02*
X183962Y268945D01*
X183508Y269835D01*
X178164Y267112D01*
X178601Y268457D01*
X180870Y264003D02*
X180433Y262659D01*
X181341Y260877D01*
X182685Y260441D01*
X186248Y262256D01*
X186685Y263600D01*
X185777Y265382D01*
X184433Y265819D01*
X180870Y264003D01*
X280038Y277673D02*
X274694Y274950D01*
X276055Y272278D01*
X277400Y271841D01*
X279181Y272749D01*
X279618Y274094D01*
X278257Y276766D01*
X279164Y274984D02*
X281853Y274111D01*
X281870Y271875D02*
X283215Y271438D01*
X284123Y269657D01*
X283686Y268312D01*
X280123Y266497D01*
X278778Y266934D01*
X277871Y268715D01*
X278308Y270060D01*
X279198Y270514D01*
X280543Y270077D01*
X281904Y267405D01*
X308079Y194867D02*
X305356Y200211D01*
X302684Y198849D01*
X302247Y197505D01*
X303155Y195723D01*
X304499Y195287D01*
X307172Y196648D01*
X305390Y195740D02*
X304516Y193051D01*
X300466Y196597D02*
X299121Y197034D01*
X297340Y196126D01*
X296903Y194782D01*
X297357Y193891D01*
X298701Y193454D01*
X298264Y192110D01*
X298718Y191219D01*
X300063Y190782D01*
X301844Y191690D01*
X302281Y193034D01*
X301827Y193925D01*
X300483Y194362D01*
X300920Y195706D01*
X300466Y196597D01*
X300483Y194362D02*
X298701Y193454D01*
X169719Y266615D02*
X166996Y271959D01*
X164323Y270598D01*
X163887Y269253D01*
X164794Y267472D01*
X166139Y267035D01*
X168811Y268396D01*
X167030Y267489D02*
X166156Y264800D01*
X161651Y269236D02*
X158088Y267421D01*
X158542Y266530D01*
X163920Y264783D01*
X164374Y263892D01*
X319506Y239237D02*
X314162Y236514D01*
X315523Y233842D01*
X316868Y233405D01*
X318649Y234312D01*
X319086Y235657D01*
X317725Y238329D01*
X318632Y236548D02*
X321322Y235674D01*
X318700Y227607D02*
X316885Y231169D01*
X319557Y232531D01*
X319574Y230296D01*
X320028Y229405D01*
X321372Y228968D01*
X323154Y229876D01*
X323591Y231220D01*
X322683Y233002D01*
X321339Y233439D01*
X93201Y341459D02*
X91414Y344966D01*
X89661Y344073D01*
X89375Y343190D01*
X89970Y342021D01*
X90852Y341735D01*
X92606Y342628D01*
X91437Y342033D02*
X90863Y340268D01*
X87941Y338779D02*
X86154Y342286D01*
X88801Y341426D01*
X86463Y340235D01*
X40735Y315900D02*
X35391Y313176D01*
X36752Y310504D01*
X38097Y310068D01*
X39878Y310975D01*
X40315Y312320D01*
X38954Y314992D01*
X39861Y313211D02*
X42550Y312337D01*
X43458Y310555D02*
X44366Y308774D01*
X43912Y309665D01*
X38568Y306942D01*
X39004Y308286D01*
X190370Y321341D02*
X188555Y324904D01*
X188991Y326248D01*
X190773Y327156D01*
X192117Y326719D01*
X193933Y323156D01*
X193496Y321812D01*
X191715Y320904D01*
X191698Y323139D02*
X190824Y320450D01*
X191715Y320904D02*
X190370Y321341D01*
X186773Y323996D02*
X185429Y324433D01*
X183647Y323525D01*
X183210Y322181D01*
X183664Y321290D01*
X185009Y320853D01*
X185899Y321307D01*
X185009Y320853D01*
X184572Y319509D01*
X185026Y318618D01*
X186370Y318181D01*
X188152Y319089D01*
X188589Y320433D01*
X170646Y310187D02*
X168831Y313749D01*
X169268Y315094D01*
X171049Y316002D01*
X172394Y315565D01*
X174209Y312002D01*
X173772Y310657D01*
X171991Y309750D01*
X171974Y311985D02*
X171100Y309296D01*
X171991Y309750D02*
X170646Y310187D01*
X165756Y306573D02*
X169319Y308388D01*
X163941Y310136D01*
X163487Y311026D01*
X163924Y312371D01*
X165705Y313279D01*
X167050Y312842D01*
X314983Y198148D02*
X313168Y201711D01*
X313604Y203056D01*
X315386Y203963D01*
X316730Y203526D01*
X318546Y199963D01*
X318109Y198619D01*
X316328Y197711D01*
X316311Y199946D02*
X315437Y197257D01*
X316328Y197711D02*
X314983Y198148D01*
X313655Y196350D02*
X311874Y195442D01*
X312765Y195896D01*
X310042Y201240D01*
X311386Y200803D01*
X194384Y337830D02*
X197947Y339646D01*
X199309Y336974D01*
X197527Y336066D01*
X199309Y336974D01*
X200670Y334301D01*
X195326Y331578D02*
X193545Y330671D01*
X194435Y331125D01*
X191712Y336469D01*
X193057Y336032D01*
X320972Y210141D02*
X326316Y212864D01*
X327677Y210191D01*
X327241Y208847D01*
X323678Y207032D01*
X322333Y207469D01*
X320972Y210141D01*
X329039Y207519D02*
X329947Y205738D01*
X329493Y206629D01*
X324149Y203906D01*
X324586Y205250D01*
X253291Y258453D02*
X251947Y258890D01*
X251039Y260671D01*
X251476Y262016D01*
X255039Y263831D01*
X256383Y263394D01*
X257291Y261613D01*
X256854Y260268D01*
X253308Y256218D02*
X255124Y252655D01*
X256014Y253108D01*
X257762Y258487D01*
X258653Y258941D01*
X109168Y339687D02*
X107823Y340124D01*
X106915Y341905D01*
X107352Y343250D01*
X110915Y345065D01*
X112260Y344628D01*
X113168Y342847D01*
X112731Y341502D01*
X111000Y333889D02*
X110983Y336124D01*
X111857Y338813D01*
X113638Y339721D01*
X114983Y339284D01*
X115891Y337503D01*
X115454Y336158D01*
X114563Y335704D01*
X113218Y336141D01*
X111857Y338813D01*
X303447Y266351D02*
X303884Y267696D01*
X305665Y268603D01*
X307010Y268166D01*
X308825Y264604D01*
X308388Y263259D01*
X306607Y262351D01*
X305262Y262788D01*
X297649Y264519D02*
X301212Y266334D01*
X302573Y263662D01*
X300338Y263645D01*
X299447Y263191D01*
X299010Y261847D01*
X299918Y260065D01*
X301262Y259628D01*
X303044Y260536D01*
X303481Y261880D01*
X250724Y311290D02*
X251161Y312634D01*
X252942Y313542D01*
X254287Y313105D01*
X256102Y309542D01*
X255665Y308198D01*
X253884Y307290D01*
X252539Y307727D01*
X248539Y304567D02*
X245816Y309911D01*
X249850Y308601D01*
X246287Y306785D01*
X240200Y305928D02*
X240637Y307272D01*
X242418Y308180D01*
X243763Y307743D01*
X245578Y304180D01*
X245142Y302836D01*
X243360Y301928D01*
X242016Y302365D01*
X238419Y305020D02*
X237074Y305457D01*
X235293Y304549D01*
X234856Y303205D01*
X235310Y302314D01*
X236654Y301877D01*
X237545Y302331D01*
X236654Y301877D01*
X236217Y300533D01*
X236671Y299642D01*
X238016Y299205D01*
X239797Y300113D01*
X240234Y301457D01*
X222924Y320323D02*
X223360Y321667D01*
X225142Y322575D01*
X226486Y322138D01*
X228302Y318575D01*
X227865Y317231D01*
X226084Y316323D01*
X224739Y316760D01*
X219849Y313146D02*
X223411Y314961D01*
X218033Y316709D01*
X217579Y317600D01*
X218016Y318944D01*
X219798Y319852D01*
X221142Y319415D01*
X44226Y301312D02*
X46495Y296858D01*
X46058Y295514D01*
X44277Y294606D01*
X42932Y295043D01*
X40663Y299497D01*
X39335Y297698D02*
X37991Y298135D01*
X36209Y297227D01*
X35772Y295883D01*
X36226Y294992D01*
X37571Y294555D01*
X38462Y295009D01*
X37571Y294555D01*
X37134Y293211D01*
X37588Y292320D01*
X38932Y291883D01*
X40714Y292791D01*
X41151Y294135D01*
D67*
X175873Y453197D02*
X176591Y455169D01*
X177219Y453824D02*
X175246Y454542D01*
X179742Y465861D02*
X180460Y467833D01*
X163543Y474487D02*
X162497Y474579D01*
X163020Y474533D01*
X163294Y477670D01*
X163771Y477101D01*
X167307Y198443D02*
X167886Y200461D01*
X168606Y199162D02*
X166588Y199741D01*
X170283Y211346D02*
X170862Y213364D01*
X153522Y218821D02*
X152472Y218840D01*
X152997Y218830D01*
X153052Y221979D01*
X153568Y221445D01*
X169351Y325986D02*
X170000Y327983D01*
X170674Y326660D02*
X168677Y327309D01*
X172776Y338778D02*
X173424Y340774D01*
X156285Y346833D02*
X155237Y346888D01*
X155761Y346861D01*
X155926Y350005D01*
X156422Y349454D01*
D68*
X313404Y300488D02*
X316615Y301985D01*
X311834Y301059D02*
X307176Y311050D01*
X316615Y301985D02*
X317187Y303555D01*
X312528Y313545D01*
X307747Y312619D02*
X310958Y314117D01*
X312528Y313545D01*
X311834Y301059D02*
X313404Y300488D01*
X307176Y311050D02*
X307747Y312619D01*
X300521Y367242D02*
X311225Y372234D01*
X309728Y375445D01*
X299023Y370453D02*
X309728Y375445D01*
X300521Y367242D02*
X299023Y370453D01*
X59250Y439356D02*
X59821Y440926D01*
X53593Y451488D02*
X55162Y450916D01*
X54469Y438430D02*
X56038Y437858D01*
X59250Y439356D01*
X54469Y438430D02*
X49810Y448421D01*
X50381Y449990D01*
X59821Y440926D02*
X55162Y450916D01*
X50381Y449990D02*
X53593Y451488D01*
X104623Y456170D02*
X105195Y457740D01*
X98966Y468302D02*
X100536Y467730D01*
X99843Y455244D02*
X101412Y454672D01*
X104623Y456170D01*
X99843Y455244D02*
X95184Y465235D01*
X95755Y466804D01*
X105195Y457740D02*
X100536Y467730D01*
X95755Y466804D02*
X98966Y468302D01*
X333874Y353473D02*
X334445Y355043D01*
X328217Y365605D02*
X329787Y365033D01*
X329093Y352547D02*
X330663Y351976D01*
X333874Y353473D01*
X329093Y352547D02*
X324434Y362538D01*
X325006Y364107D01*
X334445Y355043D02*
X329787Y365033D01*
X325006Y364107D02*
X328217Y365605D01*
X330362Y340975D02*
X331932Y340404D01*
X341923Y345063D02*
X342494Y346633D01*
X328865Y344187D02*
X329436Y345756D01*
X330362Y340975D02*
X328865Y344187D01*
X329436Y345756D02*
X339427Y350415D01*
X340997Y349844D01*
X331932Y340404D02*
X341923Y345063D01*
X342494Y346633D02*
X340997Y349844D01*
X168642Y385024D02*
X170211Y384453D01*
X180202Y389112D02*
X180773Y390681D01*
X167144Y388235D02*
X167716Y389805D01*
X168642Y385024D02*
X167144Y388235D01*
X167716Y389805D02*
X177706Y394464D01*
X179276Y393893D01*
X170211Y384453D02*
X180202Y389112D01*
X180773Y390681D02*
X179276Y393893D01*
X280607Y386192D02*
X281178Y387762D01*
X274950Y398324D02*
X276519Y397753D01*
X275826Y385266D02*
X277396Y384695D01*
X280607Y386192D01*
X275826Y385266D02*
X271167Y395257D01*
X271738Y396826D01*
X281178Y387762D02*
X276519Y397753D01*
X271738Y396826D02*
X274950Y398324D01*
X171694Y412946D02*
X172266Y414516D01*
X176353Y402955D02*
X177923Y402384D01*
X175477Y416013D02*
X177047Y415442D01*
X172266Y414516D02*
X175477Y416013D01*
X181705Y405451D02*
X177047Y415442D01*
X181134Y403881D02*
X181705Y405451D01*
X176353Y402955D02*
X171694Y412946D01*
X177923Y402384D02*
X181134Y403881D01*
X180615Y417106D02*
X181186Y418675D01*
X185274Y407115D02*
X186843Y406543D01*
X184397Y420173D02*
X185967Y419601D01*
X181186Y418675D02*
X184397Y420173D01*
X190626Y409611D02*
X185967Y419601D01*
X190054Y408041D02*
X190626Y409611D01*
X185274Y407115D02*
X180615Y417106D01*
X186843Y406543D02*
X190054Y408041D01*
X273952Y400465D02*
X274523Y402034D01*
X268294Y412596D02*
X269864Y412025D01*
X269170Y399539D02*
X270740Y398967D01*
X273952Y400465D01*
X269170Y399539D02*
X264512Y409529D01*
X265083Y411099D01*
X274523Y402034D02*
X269864Y412025D01*
X265083Y411099D02*
X268294Y412596D01*
X165039Y427218D02*
X165610Y428788D01*
X169698Y417228D02*
X171267Y416656D01*
X168822Y430286D02*
X170391Y429714D01*
X165610Y428788D02*
X168822Y430286D01*
X175050Y419724D02*
X170391Y429714D01*
X174479Y418154D02*
X175050Y419724D01*
X169698Y417228D02*
X165039Y427218D01*
X171267Y416656D02*
X174479Y418154D01*
X157968Y442383D02*
X158539Y443953D01*
X162626Y432392D02*
X164196Y431821D01*
X161750Y445450D02*
X163320Y444879D01*
X158539Y443953D02*
X161750Y445450D01*
X167979Y434888D02*
X163320Y444879D01*
X167407Y433319D02*
X167979Y434888D01*
X162626Y432392D02*
X157968Y442383D01*
X164196Y431821D02*
X167407Y433319D01*
X285830Y354962D02*
X287400Y354391D01*
X297391Y359049D02*
X297962Y360619D01*
X284333Y358173D02*
X284904Y359743D01*
X285830Y354962D02*
X284333Y358173D01*
X284904Y359743D02*
X294895Y364402D01*
X296464Y363830D01*
X287400Y354391D02*
X297391Y359049D01*
X297962Y360619D02*
X296464Y363830D01*
X116403Y436033D02*
X116974Y437603D01*
X121061Y426042D02*
X122631Y425471D01*
X120185Y439100D02*
X121755Y438529D01*
X116974Y437603D02*
X120185Y439100D01*
X126414Y428538D02*
X121755Y438529D01*
X125842Y426968D02*
X126414Y428538D01*
X121061Y426042D02*
X116403Y436033D01*
X122631Y425471D02*
X125842Y426968D01*
X154369Y378369D02*
X155939Y377797D01*
X165930Y382456D02*
X166501Y384026D01*
X152872Y381580D02*
X153443Y383150D01*
X154369Y378369D02*
X152872Y381580D01*
X153443Y383150D02*
X163434Y387808D01*
X165003Y387237D01*
X155939Y377797D02*
X165930Y382456D01*
X166501Y384026D02*
X165003Y387237D01*
X226091Y418329D02*
X223761Y423324D01*
X226091Y418329D02*
X227660Y417758D01*
X239078Y423082D01*
X223761Y423324D02*
X224333Y424894D01*
X235751Y430218D01*
X239650Y424652D02*
X237320Y429647D01*
X235751Y430218D02*
X237320Y429647D01*
X239078Y423082D02*
X239650Y424652D01*
X221931Y427249D02*
X219602Y432245D01*
X221931Y427249D02*
X223501Y426678D01*
X234919Y432002D01*
X219602Y432245D02*
X220173Y433814D01*
X231591Y439139D01*
X235490Y433572D02*
X233161Y438567D01*
X231591Y439139D02*
X233161Y438567D01*
X234919Y432002D02*
X235490Y433572D01*
X253297Y408427D02*
X258293Y410756D01*
X258864Y412326D01*
X253539Y423744D01*
X251728Y408998D02*
X253297Y408427D01*
X251728Y408998D02*
X246403Y420416D01*
X246974Y421986D02*
X251970Y424315D01*
X246403Y420416D02*
X246974Y421986D01*
X251970Y424315D02*
X253539Y423744D01*
X262217Y412586D02*
X267213Y414916D01*
X267784Y416485D01*
X262460Y427903D01*
X260648Y413158D02*
X262217Y412586D01*
X260648Y413158D02*
X255324Y424576D01*
X255895Y426145D02*
X260890Y428475D01*
X255324Y424576D02*
X255895Y426145D01*
X260890Y428475D02*
X262460Y427903D01*
X317800Y367915D02*
X322796Y370244D01*
X323367Y371814D01*
X318042Y383232D01*
X316231Y368486D02*
X317800Y367915D01*
X316231Y368486D02*
X310906Y379904D01*
X311477Y381474D02*
X316473Y383803D01*
X310906Y379904D02*
X311477Y381474D01*
X316473Y383803D02*
X318042Y383232D01*
X103444Y471276D02*
X108439Y473605D01*
X102873Y469706D02*
X103444Y471276D01*
X108197Y458288D02*
X102873Y469706D01*
X108439Y473605D02*
X110009Y473034D01*
X115333Y461616D02*
X110009Y473034D01*
X109766Y457717D02*
X114762Y460046D01*
X115333Y461616D01*
X108197Y458288D02*
X109766Y457717D01*
X262901Y392488D02*
X267897Y394818D01*
X262330Y390919D02*
X262901Y392488D01*
X267654Y379501D02*
X262330Y390919D01*
X267897Y394818D02*
X269466Y394247D01*
X274791Y382828D02*
X269466Y394247D01*
X269224Y378929D02*
X274219Y381259D01*
X274791Y382828D01*
X267654Y379501D02*
X269224Y378929D01*
X203399Y454880D02*
X208395Y457210D01*
X202828Y453311D02*
X203399Y454880D01*
X208152Y441893D02*
X202828Y453311D01*
X208395Y457210D02*
X209964Y456638D01*
X215289Y445220D02*
X209964Y456638D01*
X209722Y441321D02*
X214717Y443651D01*
X215289Y445220D01*
X208152Y441893D02*
X209722Y441321D01*
X144756Y403642D02*
X149751Y405972D01*
X144185Y402073D02*
X144756Y403642D01*
X149509Y390655D02*
X144185Y402073D01*
X149751Y405972D02*
X151321Y405401D01*
X156645Y393982D02*
X151321Y405401D01*
X151078Y390083D02*
X156074Y392413D01*
X156645Y393982D01*
X149509Y390655D02*
X151078Y390083D01*
X315155Y55699D02*
X318254Y57417D01*
X313550Y56160D02*
X308206Y65801D01*
X318254Y57417D02*
X318715Y59023D01*
X313370Y68664D01*
X308666Y67407D02*
X311765Y69125D01*
X313370Y68664D01*
X313550Y56160D02*
X315155Y55699D01*
X308206Y65801D02*
X308666Y67407D01*
X297647Y121392D02*
X307977Y127119D01*
X306259Y130218D01*
X295929Y124492D02*
X306259Y130218D01*
X297647Y121392D02*
X295929Y124492D01*
X51933Y176500D02*
X52394Y178106D01*
X45444Y188208D02*
X47049Y187748D01*
X47229Y175243D02*
X48834Y174783D01*
X51933Y176500D01*
X47229Y175243D02*
X41884Y184885D01*
X42345Y186490D01*
X52394Y178106D02*
X47049Y187748D01*
X42345Y186490D02*
X45444Y188208D01*
X96024Y196439D02*
X96484Y198044D01*
X89534Y208146D02*
X91140Y207686D01*
X91319Y195181D02*
X92924Y194721D01*
X96024Y196439D01*
X91319Y195181D02*
X85975Y204823D01*
X86435Y206428D01*
X96484Y198044D02*
X91140Y207686D01*
X86435Y206428D02*
X89534Y208146D01*
X331880Y109984D02*
X332340Y111589D01*
X325390Y121691D02*
X326996Y121231D01*
X327175Y108726D02*
X328781Y108266D01*
X331880Y109984D01*
X327175Y108726D02*
X321831Y118368D01*
X322291Y119973D01*
X332340Y111589D02*
X326996Y121231D01*
X322291Y119973D02*
X325390Y121691D01*
X329248Y97271D02*
X330854Y96811D01*
X340495Y102155D02*
X340956Y103761D01*
X327530Y100370D02*
X327991Y101976D01*
X329248Y97271D02*
X327530Y100370D01*
X327991Y101976D02*
X337632Y107320D01*
X339238Y106860D01*
X330854Y96811D02*
X340495Y102155D01*
X340956Y103761D02*
X339238Y106860D01*
X164849Y129932D02*
X166455Y129471D01*
X176096Y134816D02*
X176556Y136421D01*
X163131Y133031D02*
X163592Y134636D01*
X164849Y129932D02*
X163131Y133031D01*
X163592Y134636D02*
X173233Y139981D01*
X174838Y139520D01*
X166455Y129471D02*
X176096Y134816D01*
X176556Y136421D02*
X174838Y139520D01*
X276460Y138907D02*
X276920Y140513D01*
X269970Y150615D02*
X271576Y150154D01*
X271755Y137650D02*
X273361Y137189D01*
X276460Y138907D01*
X271755Y137650D02*
X266411Y147291D01*
X266871Y148897D01*
X276920Y140513D02*
X271576Y150154D01*
X266871Y148897D02*
X269970Y150615D01*
X165946Y157999D02*
X166407Y159604D01*
X171291Y148357D02*
X172896Y147897D01*
X169506Y161322D02*
X171111Y160862D01*
X166407Y159604D02*
X169506Y161322D01*
X176456Y151220D02*
X171111Y160862D01*
X175995Y149615D02*
X176456Y151220D01*
X171291Y148357D02*
X165946Y157999D01*
X172896Y147897D02*
X175995Y149615D01*
X174555Y162770D02*
X175015Y164376D01*
X179899Y153129D02*
X181505Y152668D01*
X178114Y166094D02*
X179720Y165633D01*
X175015Y164376D02*
X178114Y166094D01*
X185064Y155992D02*
X179720Y165633D01*
X184604Y154386D02*
X185064Y155992D01*
X179899Y153129D02*
X174555Y162770D01*
X181505Y152668D02*
X184604Y154386D01*
X268825Y152681D02*
X269285Y154286D01*
X262335Y164388D02*
X263941Y163928D01*
X264120Y151423D02*
X265726Y150963D01*
X268825Y152681D01*
X264120Y151423D02*
X258776Y161065D01*
X259236Y162671D01*
X269285Y154286D02*
X263941Y163928D01*
X259236Y162671D02*
X262335Y164388D01*
X158311Y171772D02*
X158772Y173378D01*
X163656Y162131D02*
X165261Y161670D01*
X161871Y175095D02*
X163477Y174635D01*
X158772Y173378D02*
X161871Y175095D01*
X168821Y164994D02*
X163477Y174635D01*
X168361Y163388D02*
X168821Y164994D01*
X163656Y162131D02*
X158311Y171772D01*
X165261Y161670D02*
X168361Y163388D01*
X150200Y186406D02*
X150660Y188012D01*
X155544Y176765D02*
X157150Y176305D01*
X153759Y189730D02*
X155365Y189269D01*
X150660Y188012D02*
X153759Y189730D01*
X160709Y179628D02*
X155365Y189269D01*
X160249Y178022D02*
X160709Y179628D01*
X155544Y176765D02*
X150200Y186406D01*
X157150Y176305D02*
X160249Y178022D01*
X283849Y108117D02*
X285455Y107657D01*
X295096Y113001D02*
X295556Y114607D01*
X282131Y111216D02*
X282592Y112822D01*
X283849Y108117D02*
X282131Y111216D01*
X282592Y112822D02*
X292233Y118166D01*
X293839Y117706D01*
X285455Y107657D02*
X295096Y113001D01*
X295556Y114607D02*
X293839Y117706D01*
X109179Y177172D02*
X109639Y178778D01*
X114523Y167531D02*
X116129Y167071D01*
X112738Y180496D02*
X114344Y180035D01*
X109639Y178778D02*
X112738Y180496D01*
X119688Y170394D02*
X114344Y180035D01*
X119228Y168788D02*
X119688Y170394D01*
X114523Y167531D02*
X109179Y177172D01*
X116129Y167071D02*
X119228Y168788D01*
X151075Y122297D02*
X152681Y121836D01*
X162322Y127181D02*
X162783Y128787D01*
X149357Y125396D02*
X149818Y127002D01*
X151075Y122297D02*
X149357Y125396D01*
X149818Y127002D02*
X159459Y132346D01*
X161065Y131886D01*
X152681Y121836D02*
X162322Y127181D01*
X162783Y128787D02*
X161065Y131886D01*
X219835Y167163D02*
X217162Y171984D01*
X219835Y167163D02*
X221440Y166702D01*
X232459Y172810D01*
X217162Y171984D02*
X217623Y173589D01*
X228642Y179697D01*
X232920Y174416D02*
X230247Y179237D01*
X228642Y179697D02*
X230247Y179237D01*
X232459Y172810D02*
X232920Y174416D01*
X215063Y175771D02*
X212391Y180592D01*
X215063Y175771D02*
X216669Y175311D01*
X227687Y181419D01*
X212391Y180592D02*
X212851Y182198D01*
X223870Y188306D01*
X228148Y183024D02*
X225476Y187845D01*
X223870Y188306D02*
X225476Y187845D01*
X227687Y181419D02*
X228148Y183024D01*
X247666Y159183D02*
X252486Y161855D01*
X252947Y163460D01*
X246839Y174479D01*
X246060Y159643D02*
X247666Y159183D01*
X246060Y159643D02*
X239952Y170662D01*
X240412Y172267D02*
X245233Y174940D01*
X239952Y170662D02*
X240412Y172267D01*
X245233Y174940D02*
X246839Y174479D01*
X256274Y163954D02*
X261095Y166627D01*
X261555Y168232D01*
X255447Y179251D01*
X254668Y164415D02*
X256274Y163954D01*
X254668Y164415D02*
X248561Y175434D01*
X249021Y177039D02*
X253842Y179711D01*
X248561Y175434D02*
X249021Y177039D01*
X253842Y179711D02*
X255447Y179251D01*
X314837Y123269D02*
X319658Y125941D01*
X320119Y127547D01*
X314011Y138566D01*
X313232Y123729D02*
X314837Y123269D01*
X313232Y123729D02*
X307124Y134748D01*
X307584Y136354D02*
X312405Y139026D01*
X307124Y134748D02*
X307584Y136354D01*
X312405Y139026D02*
X314011Y138566D01*
X93793Y211425D02*
X98614Y214097D01*
X93333Y209820D02*
X93793Y211425D01*
X99441Y198801D02*
X93333Y209820D01*
X98614Y214097D02*
X100220Y213637D01*
X106327Y202618D02*
X100220Y213637D01*
X101046Y198340D02*
X105867Y201013D01*
X106327Y202618D01*
X99441Y198801D02*
X101046Y198340D01*
X258358Y143953D02*
X263179Y146625D01*
X257898Y142347D02*
X258358Y143953D01*
X264005Y131328D02*
X257898Y142347D01*
X263179Y146625D02*
X264785Y146165D01*
X270892Y135146D02*
X264785Y146165D01*
X265611Y130868D02*
X270432Y133540D01*
X270892Y135146D01*
X264005Y131328D02*
X265611Y130868D01*
X194649Y202042D02*
X199470Y204714D01*
X194188Y200437D02*
X194649Y202042D01*
X200296Y189418D02*
X194188Y200437D01*
X199470Y204714D02*
X201075Y204254D01*
X207183Y193235D02*
X201075Y204254D01*
X201902Y188958D02*
X206723Y191630D01*
X207183Y193235D01*
X200296Y189418D02*
X201902Y188958D01*
X139723Y146838D02*
X144543Y149511D01*
X139262Y145233D02*
X139723Y146838D01*
X145370Y134214D02*
X139262Y145233D01*
X144543Y149511D02*
X146149Y149050D01*
X152257Y138031D02*
X146149Y149050D01*
X146976Y133754D02*
X151796Y136426D01*
X152257Y138031D01*
X145370Y134214D02*
X146976Y133754D01*
X312128Y178170D02*
X315285Y179778D01*
X310539Y178686D02*
X305534Y188508D01*
X315285Y179778D02*
X315801Y181367D01*
X310796Y191189D01*
X306050Y190097D02*
X309208Y191705D01*
X310796Y191189D01*
X310539Y178686D02*
X312128Y178170D01*
X305534Y188508D02*
X306050Y190097D01*
X296922Y244434D02*
X307446Y249796D01*
X305837Y252953D01*
X295314Y247591D02*
X305837Y252953D01*
X296922Y244434D02*
X295314Y247591D01*
X53282Y308084D02*
X53798Y309672D01*
X47205Y320011D02*
X48793Y319494D01*
X48536Y306991D02*
X50125Y306475D01*
X53282Y308084D01*
X48536Y306991D02*
X43532Y316813D01*
X44048Y318402D01*
X53798Y309672D02*
X48793Y319494D01*
X44048Y318402D02*
X47205Y320011D01*
X98041Y326471D02*
X98557Y328060D01*
X91964Y338398D02*
X93553Y337882D01*
X93295Y325378D02*
X94884Y324862D01*
X98041Y326471D01*
X93295Y325378D02*
X88291Y335201D01*
X88807Y336789D01*
X98557Y328060D02*
X93553Y337882D01*
X88807Y336789D02*
X91964Y338398D01*
X330736Y231837D02*
X331252Y233426D01*
X324659Y243764D02*
X326248Y243248D01*
X325990Y230745D02*
X327579Y230229D01*
X330736Y231837D01*
X325990Y230745D02*
X320986Y240567D01*
X321502Y242156D01*
X331252Y233426D02*
X326248Y243248D01*
X321502Y242156D02*
X324659Y243764D01*
X327662Y219225D02*
X329251Y218709D01*
X339073Y223713D02*
X339589Y225302D01*
X326054Y222382D02*
X326570Y223970D01*
X327662Y219225D02*
X326054Y222382D01*
X326570Y223970D02*
X336392Y228975D01*
X337981Y228459D01*
X329251Y218709D02*
X339073Y223713D01*
X339589Y225302D02*
X337981Y228459D01*
X164503Y257603D02*
X166092Y257086D01*
X175914Y262091D02*
X176430Y263680D01*
X162895Y260760D02*
X163411Y262348D01*
X164503Y257603D02*
X162895Y260760D01*
X163411Y262348D02*
X173233Y267353D01*
X174821Y266837D01*
X166092Y257086D02*
X175914Y262091D01*
X176430Y263680D02*
X174821Y266837D01*
X276359Y262678D02*
X276875Y264266D01*
X270282Y274604D02*
X271871Y274088D01*
X271614Y261585D02*
X273202Y261069D01*
X276359Y262678D01*
X271614Y261585D02*
X266609Y271407D01*
X267125Y272996D01*
X276875Y264266D02*
X271871Y274088D01*
X267125Y272996D02*
X270282Y274604D01*
X166579Y285614D02*
X167096Y287203D01*
X171584Y275792D02*
X173173Y275276D01*
X170253Y288811D02*
X171841Y288295D01*
X167096Y287203D02*
X170253Y288811D01*
X176846Y278473D02*
X171841Y288295D01*
X176330Y276884D02*
X176846Y278473D01*
X171584Y275792D02*
X166579Y285614D01*
X173173Y275276D02*
X176330Y276884D01*
X175349Y290083D02*
X175865Y291671D01*
X180354Y280260D02*
X181942Y279744D01*
X179023Y293280D02*
X180611Y292763D01*
X175865Y291671D02*
X179023Y293280D01*
X185616Y282941D02*
X180611Y292763D01*
X185100Y281353D02*
X185616Y282941D01*
X180354Y280260D02*
X175349Y290083D01*
X181942Y279744D02*
X185100Y281353D01*
X269210Y276709D02*
X269726Y278298D01*
X263133Y288636D02*
X264721Y288120D01*
X264464Y275617D02*
X266053Y275100D01*
X269210Y276709D01*
X264464Y275617D02*
X259460Y285439D01*
X259976Y287027D01*
X269726Y278298D02*
X264721Y288120D01*
X259976Y287027D02*
X263133Y288636D01*
X159430Y299646D02*
X159946Y301234D01*
X164435Y289824D02*
X166023Y289307D01*
X163103Y302843D02*
X164692Y302327D01*
X159946Y301234D02*
X163103Y302843D01*
X169697Y292505D02*
X164692Y302327D01*
X169180Y290916D02*
X169697Y292505D01*
X164435Y289824D02*
X159430Y299646D01*
X166023Y289307D02*
X169180Y290916D01*
X151834Y314554D02*
X152350Y316143D01*
X156838Y304732D02*
X158427Y304216D01*
X155507Y317751D02*
X157096Y317235D01*
X152350Y316143D02*
X155507Y317751D01*
X162100Y307413D02*
X157096Y317235D01*
X161584Y305825D02*
X162100Y307413D01*
X156838Y304732D02*
X151834Y314554D01*
X158427Y304216D02*
X161584Y305825D01*
X282669Y231648D02*
X284258Y231132D01*
X294080Y236137D02*
X294596Y237725D01*
X281061Y234806D02*
X281577Y236394D01*
X282669Y231648D02*
X281061Y234806D01*
X281577Y236394D02*
X291399Y241399D01*
X292988Y240883D01*
X284258Y231132D02*
X294080Y236137D01*
X294596Y237725D02*
X292988Y240883D01*
X110516Y306757D02*
X111032Y308346D01*
X115520Y296935D02*
X117109Y296419D01*
X114189Y309955D02*
X115778Y309438D01*
X111032Y308346D02*
X114189Y309955D01*
X120782Y299616D02*
X115778Y309438D01*
X120266Y298028D02*
X120782Y299616D01*
X115520Y296935D02*
X110516Y306757D01*
X117109Y296419D02*
X120266Y298028D01*
X150472Y250453D02*
X152060Y249937D01*
X161882Y254942D02*
X162399Y256530D01*
X148863Y253610D02*
X149379Y255199D01*
X150472Y250453D02*
X148863Y253610D01*
X149379Y255199D02*
X159201Y260204D01*
X160790Y259687D01*
X152060Y249937D02*
X161882Y254942D01*
X162399Y256530D02*
X160790Y259687D01*
X220755Y292892D02*
X218253Y297803D01*
X220755Y292892D02*
X222343Y292376D01*
X233569Y298096D01*
X218253Y297803D02*
X218769Y299392D01*
X229994Y305111D01*
X234085Y299684D02*
X231583Y304595D01*
X229994Y305111D02*
X231583Y304595D01*
X233569Y298096D02*
X234085Y299684D01*
X216286Y301662D02*
X213784Y306573D01*
X216286Y301662D02*
X217875Y301146D01*
X229100Y306865D01*
X213784Y306573D02*
X214300Y308162D01*
X225526Y313881D01*
X229616Y308454D02*
X227114Y313365D01*
X225526Y313881D02*
X227114Y313365D01*
X229100Y306865D02*
X229616Y308454D01*
X248290Y283945D02*
X253201Y286448D01*
X253717Y288036D01*
X247998Y299262D01*
X246702Y284462D02*
X248290Y283945D01*
X246702Y284462D02*
X240982Y295687D01*
X241498Y297275D02*
X246409Y299778D01*
X240982Y295687D02*
X241498Y297275D01*
X246409Y299778D02*
X247998Y299262D01*
X257060Y288414D02*
X261971Y290916D01*
X262487Y292505D01*
X256768Y303730D01*
X255471Y288930D02*
X257060Y288414D01*
X255471Y288930D02*
X249752Y300155D01*
X250268Y301744D02*
X255179Y304246D01*
X249752Y300155D02*
X250268Y301744D01*
X255179Y304246D02*
X256768Y303730D01*
X314168Y245709D02*
X319079Y248212D01*
X319595Y249800D01*
X313876Y261026D01*
X312579Y246226D02*
X314168Y245709D01*
X312579Y246226D02*
X306860Y257451D01*
X307376Y259039D02*
X312287Y261542D01*
X306860Y257451D02*
X307376Y259039D01*
X312287Y261542D02*
X313876Y261026D01*
X96335Y341526D02*
X101246Y344029D01*
X95819Y339938D02*
X96335Y341526D01*
X101538Y328713D02*
X95819Y339938D01*
X101246Y344029D02*
X102835Y343513D01*
X108554Y332287D02*
X102835Y343513D01*
X103127Y328196D02*
X108038Y330699D01*
X108554Y332287D01*
X101538Y328713D02*
X103127Y328196D01*
X258445Y268352D02*
X263356Y270854D01*
X257929Y266763D02*
X258445Y268352D01*
X263648Y255538D02*
X257929Y266763D01*
X263356Y270854D02*
X264945Y270338D01*
X270664Y259113D02*
X264945Y270338D01*
X265237Y255022D02*
X270148Y257524D01*
X270664Y259113D01*
X263648Y255538D02*
X265237Y255022D01*
X196802Y328629D02*
X201713Y331132D01*
X196286Y327041D02*
X196802Y328629D01*
X202005Y315815D02*
X196286Y327041D01*
X201713Y331132D02*
X203301Y330615D01*
X209021Y319390D02*
X203301Y330615D01*
X203594Y315299D02*
X208505Y317802D01*
X209021Y319390D01*
X202005Y315815D02*
X203594Y315299D01*
X139982Y275376D02*
X144893Y277878D01*
X139466Y273787D02*
X139982Y275376D01*
X145185Y262562D02*
X139466Y273787D01*
X144893Y277878D02*
X146482Y277362D01*
X152201Y266137D02*
X146482Y277362D01*
X146774Y262046D02*
X151685Y264548D01*
X152201Y266137D01*
X145185Y262562D02*
X146774Y262046D01*
D122*
X328277Y306554D02*
X327428Y306628D01*
X327788Y305856D01*
X328277Y306554D01*
X173644Y429493D02*
X172794Y429568D01*
X173155Y428795D01*
X173644Y429493D01*
X188808Y436565D02*
X187959Y436639D01*
X188319Y435866D01*
X188808Y436565D01*
X240867Y420876D02*
X240018Y420950D01*
X240379Y420177D01*
X240867Y420876D01*
X329569Y62788D02*
X328717Y62803D01*
X329130Y62058D01*
X329569Y62788D01*
X166737Y174642D02*
X165884Y174656D01*
X166297Y173911D01*
X166737Y174642D01*
X181371Y182754D02*
X180519Y182768D01*
X180932Y182023D01*
X181371Y182754D01*
X234398Y170734D02*
X233546Y170749D01*
X233959Y170003D01*
X234398Y170734D01*
X326780Y184752D02*
X325928Y184796D01*
X326315Y184037D01*
X326780Y184752D01*
X167950Y302219D02*
X167099Y302264D01*
X167486Y301504D01*
X167950Y302219D01*
X182859Y309816D02*
X182008Y309860D01*
X182394Y309101D01*
X182859Y309816D01*
X235434Y295953D02*
X234583Y295998D01*
X234970Y295238D01*
X235434Y295953D01*
M02*
