G04*
G04 #@! TF.GenerationSoftware,Altium Limited,Altium Designer,21.7.2 (23)*
G04*
G04 Layer_Color=8388736*
%FSLAX25Y25*%
%MOIN*%
G70*
G04*
G04 #@! TF.SameCoordinates,560326E4-0408-43C8-B7F1-86A7F47A34FC*
G04*
G04*
G04 #@! TF.FilePolarity,Negative*
G04*
G01*
G75*
G04:AMPARAMS|DCode=69|XSize=33.86mil|YSize=33.86mil|CornerRadius=10.04mil|HoleSize=0mil|Usage=FLASHONLY|Rotation=25.000|XOffset=0mil|YOffset=0mil|HoleType=Round|Shape=RoundedRectangle|*
%AMROUNDEDRECTD69*
21,1,0.03386,0.01378,0,0,25.0*
21,1,0.01378,0.03386,0,0,25.0*
1,1,0.02008,0.00916,-0.00333*
1,1,0.02008,-0.00333,-0.00916*
1,1,0.02008,-0.00916,0.00333*
1,1,0.02008,0.00333,0.00916*
%
%ADD69ROUNDEDRECTD69*%
G04:AMPARAMS|DCode=70|XSize=59.18mil|YSize=67.06mil|CornerRadius=16.8mil|HoleSize=0mil|Usage=FLASHONLY|Rotation=205.000|XOffset=0mil|YOffset=0mil|HoleType=Round|Shape=RoundedRectangle|*
%AMROUNDEDRECTD70*
21,1,0.05918,0.03347,0,0,205.0*
21,1,0.02559,0.06706,0,0,205.0*
1,1,0.03359,-0.01867,0.00976*
1,1,0.03359,0.00453,0.02057*
1,1,0.03359,0.01867,-0.00976*
1,1,0.03359,-0.00453,-0.02057*
%
%ADD70ROUNDEDRECTD70*%
G04:AMPARAMS|DCode=71|XSize=33.86mil|YSize=33.86mil|CornerRadius=10.04mil|HoleSize=0mil|Usage=FLASHONLY|Rotation=29.000|XOffset=0mil|YOffset=0mil|HoleType=Round|Shape=RoundedRectangle|*
%AMROUNDEDRECTD71*
21,1,0.03386,0.01378,0,0,29.0*
21,1,0.01378,0.03386,0,0,29.0*
1,1,0.02008,0.00937,-0.00269*
1,1,0.02008,-0.00269,-0.00937*
1,1,0.02008,-0.00937,0.00269*
1,1,0.02008,0.00269,0.00937*
%
%ADD71ROUNDEDRECTD71*%
G04:AMPARAMS|DCode=72|XSize=59.18mil|YSize=67.06mil|CornerRadius=16.8mil|HoleSize=0mil|Usage=FLASHONLY|Rotation=209.000|XOffset=0mil|YOffset=0mil|HoleType=Round|Shape=RoundedRectangle|*
%AMROUNDEDRECTD72*
21,1,0.05918,0.03347,0,0,209.0*
21,1,0.02559,0.06706,0,0,209.0*
1,1,0.03359,-0.01930,0.00843*
1,1,0.03359,0.00308,0.02084*
1,1,0.03359,0.01930,-0.00843*
1,1,0.03359,-0.00308,-0.02084*
%
%ADD72ROUNDEDRECTD72*%
G04:AMPARAMS|DCode=73|XSize=33.86mil|YSize=33.86mil|CornerRadius=10.04mil|HoleSize=0mil|Usage=FLASHONLY|Rotation=27.000|XOffset=0mil|YOffset=0mil|HoleType=Round|Shape=RoundedRectangle|*
%AMROUNDEDRECTD73*
21,1,0.03386,0.01378,0,0,27.0*
21,1,0.01378,0.03386,0,0,27.0*
1,1,0.02008,0.00927,-0.00301*
1,1,0.02008,-0.00301,-0.00927*
1,1,0.02008,-0.00927,0.00301*
1,1,0.02008,0.00301,0.00927*
%
%ADD73ROUNDEDRECTD73*%
G04:AMPARAMS|DCode=74|XSize=59.18mil|YSize=67.06mil|CornerRadius=16.8mil|HoleSize=0mil|Usage=FLASHONLY|Rotation=207.000|XOffset=0mil|YOffset=0mil|HoleType=Round|Shape=RoundedRectangle|*
%AMROUNDEDRECTD74*
21,1,0.05918,0.03347,0,0,207.0*
21,1,0.02559,0.06706,0,0,207.0*
1,1,0.03359,-0.01900,0.00910*
1,1,0.03359,0.00380,0.02072*
1,1,0.03359,0.01900,-0.00910*
1,1,0.03359,-0.00380,-0.02072*
%
%ADD74ROUNDEDRECTD74*%
%ADD75C,0.02769*%
%ADD76C,0.02717*%
G04:AMPARAMS|DCode=77|XSize=38.58mil|YSize=78.74mil|CornerRadius=10.63mil|HoleSize=0mil|Usage=FLASHONLY|Rotation=25.000|XOffset=0mil|YOffset=0mil|HoleType=Round|Shape=RoundedRectangle|*
%AMROUNDEDRECTD77*
21,1,0.03858,0.05748,0,0,25.0*
21,1,0.01732,0.07874,0,0,25.0*
1,1,0.02126,0.02000,-0.02239*
1,1,0.02126,0.00430,-0.02971*
1,1,0.02126,-0.02000,0.02239*
1,1,0.02126,-0.00430,0.02971*
%
%ADD77ROUNDEDRECTD77*%
%ADD78C,0.09461*%
%ADD79C,0.08280*%
G04:AMPARAMS|DCode=80|XSize=74.93mil|YSize=86.74mil|CornerRadius=0mil|HoleSize=0mil|Usage=FLASHONLY|Rotation=175.000|XOffset=0mil|YOffset=0mil|HoleType=Round|Shape=Round|*
%AMOVALD80*
21,1,0.01181,0.07493,0.00000,0.00000,265.0*
1,1,0.07493,0.00052,0.00588*
1,1,0.07493,-0.00052,-0.00588*
%
%ADD80OVALD80*%

%ADD81C,0.06312*%
%ADD82C,0.07887*%
%ADD83C,0.03194*%
%ADD84C,0.05800*%
G04:AMPARAMS|DCode=85|XSize=38.58mil|YSize=78.74mil|CornerRadius=10.63mil|HoleSize=0mil|Usage=FLASHONLY|Rotation=29.000|XOffset=0mil|YOffset=0mil|HoleType=Round|Shape=RoundedRectangle|*
%AMROUNDEDRECTD85*
21,1,0.03858,0.05748,0,0,29.0*
21,1,0.01732,0.07874,0,0,29.0*
1,1,0.02126,0.02151,-0.02094*
1,1,0.02126,0.00636,-0.02934*
1,1,0.02126,-0.02151,0.02094*
1,1,0.02126,-0.00636,0.02934*
%
%ADD85ROUNDEDRECTD85*%
G04:AMPARAMS|DCode=86|XSize=74.93mil|YSize=86.74mil|CornerRadius=0mil|HoleSize=0mil|Usage=FLASHONLY|Rotation=179.000|XOffset=0mil|YOffset=0mil|HoleType=Round|Shape=Round|*
%AMOVALD86*
21,1,0.01181,0.07493,0.00000,0.00000,269.0*
1,1,0.07493,0.00010,0.00591*
1,1,0.07493,-0.00010,-0.00591*
%
%ADD86OVALD86*%

G04:AMPARAMS|DCode=87|XSize=38.58mil|YSize=78.74mil|CornerRadius=10.63mil|HoleSize=0mil|Usage=FLASHONLY|Rotation=27.000|XOffset=0mil|YOffset=0mil|HoleType=Round|Shape=RoundedRectangle|*
%AMROUNDEDRECTD87*
21,1,0.03858,0.05748,0,0,27.0*
21,1,0.01732,0.07874,0,0,27.0*
1,1,0.02126,0.02077,-0.02168*
1,1,0.02126,0.00533,-0.02954*
1,1,0.02126,-0.02077,0.02168*
1,1,0.02126,-0.00533,0.02954*
%
%ADD87ROUNDEDRECTD87*%
G04:AMPARAMS|DCode=88|XSize=74.93mil|YSize=86.74mil|CornerRadius=0mil|HoleSize=0mil|Usage=FLASHONLY|Rotation=177.000|XOffset=0mil|YOffset=0mil|HoleType=Round|Shape=Round|*
%AMOVALD88*
21,1,0.01181,0.07493,0.00000,0.00000,267.0*
1,1,0.07493,0.00031,0.00590*
1,1,0.07493,-0.00031,-0.00590*
%
%ADD88OVALD88*%

G36*
X115105Y484587D02*
X115234Y484428D01*
X115288Y484371D01*
X115306Y484216D01*
X115396Y483848D01*
X115434Y483647D01*
X115578Y483222D01*
X115572Y483001D01*
X115503Y482914D01*
X115419Y482684D01*
X115434Y482417D01*
X115431Y482307D01*
X115344Y481965D01*
X115260Y481735D01*
X115257Y481624D01*
X115170Y481283D01*
X115102Y481196D01*
X114910Y480670D01*
X114841Y480583D01*
X114688Y480266D01*
X114620Y480179D01*
X114628Y480101D01*
X114560Y480015D01*
X114512Y479883D01*
X114443Y479796D01*
X114290Y479479D01*
X114182Y479183D01*
X114021Y478944D01*
X113877Y478549D01*
X113637Y478301D01*
X113602Y478202D01*
X113533Y478115D01*
X113437Y477852D01*
X113149Y477472D01*
X113146Y477361D01*
X113039Y477065D01*
X112799Y476817D01*
X112694Y476631D01*
X112622Y476434D01*
X112323Y476021D01*
X112179Y475626D01*
X111949Y475300D01*
X111829Y474971D01*
X111647Y474776D01*
X111578Y474689D01*
X111458Y474360D01*
X111389Y474273D01*
X111179Y473903D01*
X111036Y473508D01*
X110967Y473421D01*
X110859Y473125D01*
X110856Y473014D01*
X110820Y472915D01*
X110751Y472828D01*
X110599Y472511D01*
X110467Y472149D01*
X110398Y472062D01*
X110344Y471709D01*
X110272Y471512D01*
X110203Y471425D01*
X110134Y470928D01*
X110030Y470743D01*
X110032Y470444D01*
X110071Y470243D01*
X110038Y469845D01*
X109990Y469714D01*
X110005Y469447D01*
X110370Y468607D01*
X110708Y467999D01*
X110837Y467840D01*
X111142Y467655D01*
X111761Y467206D01*
X111970Y467167D01*
X112742Y467035D01*
X112943Y467074D01*
X113952Y467489D01*
X114885Y468007D01*
X115044Y468135D01*
X115298Y468527D01*
X115628Y468817D01*
X115810Y469012D01*
X115858Y469143D01*
X115915Y469197D01*
X115906Y469275D01*
X115975Y469362D01*
X116412Y469948D01*
X116415Y470059D01*
X116484Y470146D01*
X116726Y470505D01*
X116729Y470615D01*
X116861Y470977D01*
X116930Y471064D01*
X116990Y471229D01*
X116993Y471339D01*
X117053Y471504D01*
X117211Y471633D01*
X117412Y471671D01*
X117576Y471612D01*
X117684Y471498D01*
X117702Y471342D01*
X117699Y471232D01*
X117714Y470965D01*
X117753Y470765D01*
X117875Y470385D01*
X117839Y469876D01*
X117854Y469610D01*
X117893Y469409D01*
X118003Y468996D01*
X117964Y468787D01*
X117893Y468589D01*
X117890Y468479D01*
X117908Y468323D01*
X117985Y467922D01*
X117982Y467811D01*
X117895Y467470D01*
X117859Y467371D01*
X117937Y466970D01*
X117904Y466573D01*
X117808Y466309D01*
X117907Y465863D01*
X117844Y465588D01*
X117775Y465501D01*
X117715Y465337D01*
X117739Y464993D01*
X117700Y464783D01*
X117652Y464651D01*
X117649Y464541D01*
X117613Y464032D01*
X117553Y463868D01*
X117484Y463781D01*
X117448Y463682D01*
X117412Y463173D01*
X117316Y462910D01*
X117280Y462401D01*
X117137Y462007D01*
X117107Y461719D01*
X117047Y461555D01*
X116978Y461468D01*
X116942Y461369D01*
X116939Y461259D01*
X116699Y460600D01*
X116696Y460490D01*
X116636Y460325D01*
X116568Y460238D01*
X116484Y460008D01*
X116481Y459897D01*
X116421Y459733D01*
X116352Y459646D01*
X116268Y459415D01*
X116265Y459305D01*
X116229Y459206D01*
X116160Y459119D01*
X116112Y458988D01*
X116043Y458901D01*
X116005Y458691D01*
X115921Y458461D01*
X115852Y458374D01*
X115747Y458189D01*
X115744Y458078D01*
X115660Y457848D01*
X115361Y457435D01*
X115289Y457237D01*
X114990Y456824D01*
X114846Y456430D01*
X114493Y456074D01*
X114409Y455843D01*
X114340Y455757D01*
X114089Y455475D01*
X113930Y455347D01*
X113777Y455029D01*
X113628Y454823D01*
X113469Y454695D01*
X113208Y454491D01*
X113083Y454351D01*
X112897Y454045D01*
X112625Y453809D01*
X112197Y453555D01*
X112038Y453426D01*
X111529Y453052D01*
X111371Y452924D01*
X111167Y452774D01*
X110422Y452263D01*
X110141Y452104D01*
X109853Y452134D01*
X109758Y452281D01*
X109842Y452511D01*
X110072Y452837D01*
X110120Y452969D01*
X110189Y453056D01*
X110371Y453250D01*
X110632Y453453D01*
X110758Y453594D01*
X110853Y453857D01*
X110922Y453944D01*
X111141Y454237D01*
X111144Y454348D01*
X111192Y454480D01*
X111195Y454590D01*
X111461Y455015D01*
X111497Y455114D01*
X111500Y455225D01*
X111665Y455575D01*
X111713Y455706D01*
X111716Y455817D01*
X111776Y455982D01*
X111845Y456068D01*
X111899Y456422D01*
X111937Y456631D01*
X112042Y456816D01*
X112078Y456915D01*
X112114Y457424D01*
X112186Y457621D01*
X112171Y457888D01*
X112123Y458166D01*
X112162Y458375D01*
X112234Y458573D01*
X112219Y458839D01*
X112180Y459040D01*
X112091Y459408D01*
X112076Y459674D01*
X112094Y459928D01*
X112079Y460195D01*
X112040Y460395D01*
X111750Y461134D01*
X111748Y461843D01*
X111646Y462179D01*
X111607Y462379D01*
X111359Y463029D01*
X111341Y463184D01*
X111129Y463522D01*
X110964Y463582D01*
X110716Y463412D01*
X110608Y462706D01*
X110584Y462230D01*
X110440Y461835D01*
X110437Y461724D01*
X110389Y461593D01*
X110386Y461482D01*
X110254Y461120D01*
X110185Y461033D01*
X110113Y460836D01*
X110045Y460749D01*
X109925Y460420D01*
X109694Y460094D01*
X109655Y459884D01*
X109619Y459786D01*
X109143Y459400D01*
X108617Y458771D01*
X108323Y458580D01*
X107674Y458332D01*
X107111Y458425D01*
X106648Y458482D01*
X106121Y458673D01*
X105657Y459140D01*
X105409Y459380D01*
X105218Y459673D01*
X105011Y460233D01*
X105003Y460720D01*
X104925Y461121D01*
X104958Y461519D01*
X105030Y461717D01*
X105015Y461983D01*
X105048Y462381D01*
X105168Y462710D01*
X105144Y463054D01*
X105183Y463264D01*
X105279Y463527D01*
X105315Y464036D01*
X105435Y464365D01*
X105405Y464897D01*
X105525Y465227D01*
X105510Y465493D01*
X105462Y465771D01*
X105552Y466223D01*
X105495Y466579D01*
X105331Y467049D01*
X105367Y467558D01*
X105352Y467824D01*
X105223Y467983D01*
X105059Y468043D01*
X104810Y467872D01*
X104657Y467555D01*
X104618Y466935D01*
X104570Y466804D01*
X104568Y466693D01*
X104474Y466131D01*
X104343Y465769D01*
X104340Y465658D01*
X104268Y465460D01*
X104277Y465383D01*
X104208Y465296D01*
X104172Y465197D01*
X104169Y465086D01*
X104109Y464922D01*
X104040Y464835D01*
X103873Y464374D01*
X103804Y464288D01*
X103756Y464156D01*
X103699Y464102D01*
X103696Y463991D01*
X103636Y463827D01*
X103567Y463740D01*
X103414Y463423D01*
X103283Y463061D01*
X103121Y462821D01*
X102977Y462427D01*
X102678Y462014D01*
X102582Y461751D01*
X102352Y461424D01*
X102208Y461029D01*
X101977Y460703D01*
X101834Y460308D01*
X101672Y460069D01*
X101576Y459806D01*
X101507Y459719D01*
X101298Y459348D01*
X101241Y459294D01*
X101238Y459184D01*
X101130Y458887D01*
X101061Y458801D01*
X100846Y458208D01*
X100777Y458121D01*
X100717Y457957D01*
X100714Y457846D01*
X100666Y457715D01*
X100663Y457604D01*
X100627Y457505D01*
X100558Y457418D01*
X100522Y457319D01*
X100519Y457209D01*
X100441Y456790D01*
X100369Y456592D01*
X100381Y456215D01*
X100351Y455928D01*
X100315Y455829D01*
X100246Y455743D01*
X100249Y455443D01*
X100348Y454998D01*
X100300Y454866D01*
X100297Y454755D01*
X100249Y454624D01*
X100264Y454357D01*
X100491Y453753D01*
X100635Y453328D01*
X100650Y453061D01*
X100688Y452861D01*
X101041Y451987D01*
X101582Y450709D01*
X101499Y450479D01*
X101163Y450377D01*
X101065Y450413D01*
X100807Y450731D01*
X100661Y451045D01*
X100640Y451090D01*
X100353Y451530D01*
X100203Y451733D01*
X100075Y451892D01*
X99569Y452448D01*
X99440Y452607D01*
X98161Y455235D01*
X98143Y455390D01*
X97727Y456399D01*
X97709Y456554D01*
X97697Y456931D01*
X97623Y457443D01*
X97584Y457644D01*
X97419Y458113D01*
X97512Y458676D01*
X97486Y458909D01*
X97447Y459110D01*
X97399Y459388D01*
X97441Y459708D01*
X97537Y459972D01*
X97489Y460250D01*
X97531Y460570D01*
X97603Y460768D01*
X97588Y461034D01*
X97621Y461432D01*
X97726Y461617D01*
X97762Y461716D01*
X97792Y462003D01*
X97935Y462398D01*
X97938Y462509D01*
X97986Y462640D01*
X97989Y462751D01*
X98157Y463212D01*
X98160Y463323D01*
X98412Y464014D01*
X98480Y464101D01*
X98672Y464627D01*
X98741Y464714D01*
X98909Y465175D01*
X99070Y465414D01*
X99130Y465579D01*
X99133Y465689D01*
X99169Y465788D01*
X99400Y466114D01*
X99519Y466443D01*
X99702Y466638D01*
X99932Y466964D01*
X99968Y467063D01*
X99959Y467140D01*
X100028Y467227D01*
X100328Y467640D01*
X100424Y467903D01*
X100606Y468098D01*
X100765Y468226D01*
X100870Y468412D01*
X100873Y468523D01*
X100956Y468753D01*
X101115Y468882D01*
X101375Y469085D01*
X101480Y469270D01*
X101576Y469534D01*
X101848Y469770D01*
X102052Y469919D01*
X102133Y470039D01*
X102136Y470150D01*
X102196Y470315D01*
X102378Y470509D01*
X102728Y470754D01*
X102833Y470940D01*
X102905Y471137D01*
X102974Y471224D01*
X103088Y471332D01*
X103246Y471460D01*
X103608Y471738D01*
X103863Y472130D01*
X104045Y472325D01*
X104440Y472591D01*
X104599Y472719D01*
X105114Y473315D01*
X105273Y473444D01*
X105757Y473751D01*
X105916Y473880D01*
X106272Y474347D01*
X106431Y474475D01*
X107006Y474825D01*
X107209Y474975D01*
X107368Y475104D01*
X107769Y475591D01*
X108062Y475783D01*
X108580Y476079D01*
X108694Y476186D01*
X108909Y476369D01*
X109265Y476835D01*
X109559Y477027D01*
X110031Y477302D01*
X110558Y477930D01*
X111055Y478271D01*
X111295Y478520D01*
X111330Y478618D01*
X111399Y478705D01*
X111447Y478837D01*
X111606Y478965D01*
X112070Y479318D01*
X112243Y479591D01*
X112633Y480045D01*
X112791Y480174D01*
X112944Y480491D01*
X113426Y481098D01*
X113534Y481394D01*
X113716Y481589D01*
X113878Y481828D01*
X113974Y482092D01*
X114043Y482178D01*
X114252Y482549D01*
X114288Y482648D01*
X114291Y482759D01*
X114327Y482858D01*
X114489Y483097D01*
X114525Y483195D01*
X114528Y483306D01*
X114719Y483833D01*
X114642Y484234D01*
X114660Y484488D01*
X114818Y484617D01*
X115105Y484587D01*
D02*
G37*
G36*
X107525Y355236D02*
X107659Y355082D01*
X107715Y355027D01*
X107738Y354872D01*
X107841Y354508D01*
X107886Y354309D01*
X108045Y353889D01*
X108046Y353667D01*
X107981Y353578D01*
X107905Y353345D01*
X107929Y353080D01*
X107930Y352969D01*
X107855Y352625D01*
X107779Y352392D01*
X107780Y352281D01*
X107705Y351937D01*
X107639Y351848D01*
X107466Y351315D01*
X107400Y351226D01*
X107259Y350904D01*
X107193Y350815D01*
X107205Y350737D01*
X107139Y350648D01*
X107096Y350515D01*
X107030Y350426D01*
X106888Y350103D01*
X106791Y349804D01*
X106638Y349559D01*
X106508Y349159D01*
X106277Y348903D01*
X106245Y348803D01*
X106179Y348713D01*
X106092Y348447D01*
X105818Y348057D01*
X105819Y347947D01*
X105722Y347647D01*
X105491Y347390D01*
X105393Y347201D01*
X105328Y347001D01*
X105043Y346578D01*
X104913Y346179D01*
X104694Y345845D01*
X104586Y345512D01*
X104411Y345311D01*
X104345Y345222D01*
X104236Y344889D01*
X104171Y344800D01*
X103974Y344422D01*
X103844Y344022D01*
X103779Y343933D01*
X103681Y343633D01*
X103682Y343522D01*
X103649Y343422D01*
X103584Y343333D01*
X103442Y343011D01*
X103323Y342645D01*
X103257Y342555D01*
X103216Y342201D01*
X103151Y342001D01*
X103085Y341912D01*
X103033Y341413D01*
X102935Y341224D01*
X102948Y340925D01*
X102994Y340726D01*
X102975Y340327D01*
X102932Y340194D01*
X102956Y339928D01*
X103350Y339100D01*
X103709Y338505D01*
X103843Y338351D01*
X104155Y338176D01*
X104789Y337749D01*
X105000Y337717D01*
X105776Y337613D01*
X105975Y337658D01*
X106968Y338109D01*
X107883Y338659D01*
X108037Y338793D01*
X108278Y339193D01*
X108597Y339495D01*
X108773Y339695D01*
X108816Y339829D01*
X108871Y339884D01*
X108859Y339962D01*
X108925Y340051D01*
X109341Y340652D01*
X109341Y340763D01*
X109406Y340852D01*
X109636Y341219D01*
X109635Y341330D01*
X109754Y341697D01*
X109820Y341786D01*
X109874Y341952D01*
X109873Y342063D01*
X109927Y342229D01*
X110082Y342364D01*
X110281Y342409D01*
X110447Y342355D01*
X110559Y342245D01*
X110582Y342090D01*
X110583Y341980D01*
X110607Y341714D01*
X110653Y341515D01*
X110789Y341140D01*
X110770Y340630D01*
X110794Y340364D01*
X110840Y340165D01*
X110965Y339756D01*
X110934Y339546D01*
X110869Y339346D01*
X110870Y339235D01*
X110893Y339080D01*
X110984Y338682D01*
X110985Y338571D01*
X110910Y338227D01*
X110878Y338127D01*
X110969Y337730D01*
X110950Y337331D01*
X110864Y337064D01*
X110978Y336622D01*
X110925Y336345D01*
X110859Y336256D01*
X110805Y336089D01*
X110841Y335746D01*
X110809Y335535D01*
X110766Y335402D01*
X110766Y335291D01*
X110748Y334782D01*
X110694Y334615D01*
X110628Y334526D01*
X110596Y334426D01*
X110578Y333916D01*
X110491Y333650D01*
X110473Y333140D01*
X110343Y332741D01*
X110323Y332453D01*
X110269Y332286D01*
X110203Y332197D01*
X110170Y332097D01*
X110171Y331986D01*
X109955Y331320D01*
X109956Y331209D01*
X109902Y331043D01*
X109836Y330954D01*
X109760Y330720D01*
X109761Y330610D01*
X109707Y330443D01*
X109641Y330354D01*
X109565Y330121D01*
X109566Y330010D01*
X109534Y329910D01*
X109468Y329821D01*
X109425Y329688D01*
X109359Y329599D01*
X109327Y329388D01*
X109251Y329155D01*
X109186Y329066D01*
X109087Y328877D01*
X109088Y328766D01*
X109012Y328533D01*
X108728Y328110D01*
X108663Y327910D01*
X108378Y327487D01*
X108248Y327087D01*
X107908Y326719D01*
X107832Y326486D01*
X107766Y326397D01*
X107525Y326107D01*
X107370Y325973D01*
X107229Y325651D01*
X107087Y325439D01*
X106933Y325305D01*
X106679Y325093D01*
X106559Y324948D01*
X106384Y324636D01*
X106120Y324391D01*
X105701Y324122D01*
X105547Y323988D01*
X105052Y323596D01*
X104897Y323462D01*
X104699Y323306D01*
X103972Y322768D01*
X103697Y322600D01*
X103409Y322620D01*
X103308Y322763D01*
X103384Y322996D01*
X103603Y323330D01*
X103646Y323464D01*
X103712Y323553D01*
X103887Y323753D01*
X104141Y323966D01*
X104261Y324111D01*
X104348Y324377D01*
X104414Y324466D01*
X104622Y324767D01*
X104621Y324878D01*
X104664Y325011D01*
X104663Y325122D01*
X104915Y325556D01*
X104947Y325656D01*
X104946Y325766D01*
X105099Y326122D01*
X105142Y326255D01*
X105141Y326366D01*
X105195Y326532D01*
X105261Y326622D01*
X105303Y326976D01*
X105334Y327187D01*
X105433Y327376D01*
X105465Y327476D01*
X105483Y327986D01*
X105548Y328185D01*
X105524Y328451D01*
X105467Y328727D01*
X105498Y328938D01*
X105563Y329138D01*
X105539Y329404D01*
X105493Y329603D01*
X105391Y329967D01*
X105367Y330233D01*
X105376Y330488D01*
X105352Y330753D01*
X105306Y330952D01*
X104990Y331681D01*
X104963Y332390D01*
X104849Y332721D01*
X104804Y332920D01*
X104533Y333560D01*
X104510Y333715D01*
X104286Y334046D01*
X104119Y334100D01*
X103877Y333921D01*
X103794Y333211D01*
X103786Y332735D01*
X103656Y332335D01*
X103657Y332225D01*
X103614Y332091D01*
X103614Y331981D01*
X103496Y331614D01*
X103430Y331525D01*
X103365Y331325D01*
X103299Y331236D01*
X103191Y330903D01*
X102972Y330569D01*
X102940Y330359D01*
X102908Y330259D01*
X102446Y329856D01*
X101941Y329210D01*
X101655Y329009D01*
X101014Y328738D01*
X100449Y328811D01*
X99983Y328852D01*
X99450Y329025D01*
X98971Y329476D01*
X98714Y329706D01*
X98513Y329993D01*
X98287Y330545D01*
X98261Y331032D01*
X98169Y331430D01*
X98189Y331829D01*
X98254Y332029D01*
X98229Y332294D01*
X98248Y332693D01*
X98357Y333026D01*
X98321Y333369D01*
X98352Y333580D01*
X98439Y333846D01*
X98457Y334356D01*
X98566Y334689D01*
X98517Y335220D01*
X98625Y335554D01*
X98601Y335819D01*
X98544Y336096D01*
X98618Y336550D01*
X98549Y336904D01*
X98368Y337368D01*
X98386Y337878D01*
X98362Y338143D01*
X98228Y338297D01*
X98062Y338351D01*
X97819Y338172D01*
X97678Y337850D01*
X97660Y337230D01*
X97617Y337097D01*
X97618Y336986D01*
X97544Y336420D01*
X97426Y336054D01*
X97426Y335943D01*
X97361Y335743D01*
X97373Y335666D01*
X97307Y335577D01*
X97275Y335477D01*
X97276Y335366D01*
X97221Y335199D01*
X97156Y335110D01*
X97004Y334644D01*
X96939Y334555D01*
X96895Y334422D01*
X96840Y334366D01*
X96841Y334255D01*
X96787Y334089D01*
X96721Y334000D01*
X96580Y333677D01*
X96461Y333311D01*
X96307Y333066D01*
X96178Y332666D01*
X95893Y332243D01*
X95806Y331977D01*
X95587Y331643D01*
X95457Y331243D01*
X95238Y330909D01*
X95108Y330509D01*
X94955Y330265D01*
X94869Y329998D01*
X94803Y329909D01*
X94606Y329531D01*
X94551Y329475D01*
X94552Y329364D01*
X94455Y329065D01*
X94389Y328976D01*
X94194Y328376D01*
X94129Y328287D01*
X94074Y328120D01*
X94075Y328010D01*
X94032Y327876D01*
X94033Y327766D01*
X94000Y327666D01*
X93935Y327577D01*
X93902Y327477D01*
X93903Y327366D01*
X93840Y326945D01*
X93775Y326745D01*
X93800Y326368D01*
X93780Y326080D01*
X93747Y325980D01*
X93682Y325891D01*
X93695Y325592D01*
X93809Y325150D01*
X93766Y325017D01*
X93766Y324906D01*
X93723Y324773D01*
X93747Y324507D01*
X93996Y323911D01*
X94154Y323491D01*
X94178Y323226D01*
X94224Y323027D01*
X94607Y322166D01*
X95192Y320907D01*
X95117Y320674D01*
X94785Y320561D01*
X94685Y320594D01*
X94417Y320902D01*
X94260Y321211D01*
X94237Y321255D01*
X93935Y321684D01*
X93778Y321883D01*
X93644Y322037D01*
X93120Y322575D01*
X92986Y322729D01*
X91615Y325311D01*
X91591Y325465D01*
X91141Y326459D01*
X91118Y326614D01*
X91092Y326990D01*
X91000Y327499D01*
X90954Y327698D01*
X90773Y328162D01*
X90847Y328727D01*
X90812Y328959D01*
X90766Y329159D01*
X90708Y329435D01*
X90739Y329756D01*
X90826Y330023D01*
X90768Y330299D01*
X90799Y330621D01*
X90864Y330821D01*
X90840Y331086D01*
X90859Y331485D01*
X90957Y331674D01*
X90990Y331774D01*
X91010Y332062D01*
X91140Y332462D01*
X91139Y332573D01*
X91182Y332706D01*
X91181Y332817D01*
X91333Y333283D01*
X91332Y333394D01*
X91559Y334093D01*
X91625Y334182D01*
X91798Y334715D01*
X91864Y334804D01*
X92015Y335271D01*
X92169Y335516D01*
X92223Y335682D01*
X92222Y335793D01*
X92254Y335893D01*
X92473Y336227D01*
X92581Y336560D01*
X92757Y336761D01*
X92976Y337094D01*
X93009Y337194D01*
X92997Y337272D01*
X93063Y337361D01*
X93348Y337784D01*
X93434Y338051D01*
X93610Y338251D01*
X93764Y338385D01*
X93862Y338574D01*
X93861Y338685D01*
X93937Y338918D01*
X94091Y339052D01*
X94344Y339265D01*
X94442Y339454D01*
X94529Y339720D01*
X94793Y339966D01*
X94991Y340122D01*
X95068Y340245D01*
X95067Y340356D01*
X95121Y340522D01*
X95297Y340723D01*
X95638Y340980D01*
X95736Y341169D01*
X95801Y341369D01*
X95867Y341458D01*
X95977Y341570D01*
X96131Y341704D01*
X96483Y341995D01*
X96724Y342395D01*
X96900Y342596D01*
X97285Y342876D01*
X97439Y343010D01*
X97933Y343622D01*
X98087Y343757D01*
X98561Y344081D01*
X98715Y344215D01*
X99054Y344694D01*
X99208Y344828D01*
X99771Y345198D01*
X99969Y345355D01*
X100123Y345489D01*
X100507Y345990D01*
X100793Y346192D01*
X101300Y346506D01*
X101410Y346617D01*
X101619Y346807D01*
X101959Y347286D01*
X102245Y347487D01*
X102708Y347779D01*
X103213Y348425D01*
X103697Y348783D01*
X103928Y349040D01*
X103961Y349140D01*
X104026Y349229D01*
X104070Y349362D01*
X104224Y349496D01*
X104675Y349865D01*
X104839Y350143D01*
X105212Y350611D01*
X105366Y350745D01*
X105508Y351068D01*
X105968Y351691D01*
X106065Y351991D01*
X106241Y352192D01*
X106394Y352437D01*
X106481Y352703D01*
X106547Y352792D01*
X106743Y353170D01*
X106776Y353270D01*
X106775Y353381D01*
X106807Y353481D01*
X106960Y353726D01*
X106993Y353826D01*
X106992Y353936D01*
X107165Y354469D01*
X107074Y354867D01*
X107083Y355122D01*
X107237Y355256D01*
X107525Y355236D01*
D02*
G37*
G36*
X104498Y225517D02*
X104637Y225368D01*
X104695Y225315D01*
X104724Y225161D01*
X104839Y224800D01*
X104892Y224603D01*
X105064Y224189D01*
X105074Y223968D01*
X105011Y223876D01*
X104944Y223641D01*
X104977Y223376D01*
X104982Y223265D01*
X104919Y222919D01*
X104851Y222683D01*
X104856Y222573D01*
X104793Y222226D01*
X104730Y222135D01*
X104576Y221596D01*
X104513Y221505D01*
X104383Y221178D01*
X104321Y221087D01*
X104335Y221010D01*
X104272Y220918D01*
X104234Y220784D01*
X104171Y220692D01*
X104041Y220365D01*
X103954Y220062D01*
X103809Y219812D01*
X103693Y219408D01*
X103472Y219144D01*
X103443Y219043D01*
X103380Y218952D01*
X103303Y218682D01*
X103043Y218283D01*
X103048Y218173D01*
X102961Y217869D01*
X102739Y217605D01*
X102648Y217413D01*
X102590Y217211D01*
X102320Y216778D01*
X102204Y216374D01*
X101997Y216033D01*
X101900Y215696D01*
X101732Y215489D01*
X101669Y215398D01*
X101573Y215061D01*
X101510Y214970D01*
X101327Y214585D01*
X101211Y214181D01*
X101148Y214090D01*
X101061Y213787D01*
X101066Y213676D01*
X101037Y213575D01*
X100975Y213484D01*
X100844Y213157D01*
X100738Y212787D01*
X100675Y212695D01*
X100646Y212339D01*
X100588Y212137D01*
X100526Y212046D01*
X100492Y211546D01*
X100400Y211353D01*
X100424Y211055D01*
X100477Y210858D01*
X100471Y210458D01*
X100433Y210324D01*
X100466Y210059D01*
X100889Y209246D01*
X101268Y208663D01*
X101408Y208514D01*
X101725Y208350D01*
X102374Y207945D01*
X102586Y207921D01*
X103365Y207843D01*
X103562Y207896D01*
X104539Y208381D01*
X105435Y208962D01*
X105584Y209102D01*
X105810Y209510D01*
X106119Y209823D01*
X106287Y210030D01*
X106326Y210164D01*
X106379Y210222D01*
X106365Y210299D01*
X106427Y210390D01*
X106822Y211006D01*
X106817Y211116D01*
X106880Y211208D01*
X107097Y211583D01*
X107092Y211693D01*
X107198Y212064D01*
X107261Y212155D01*
X107309Y212323D01*
X107305Y212434D01*
X107353Y212602D01*
X107502Y212742D01*
X107700Y212794D01*
X107868Y212746D01*
X107983Y212640D01*
X108012Y212486D01*
X108017Y212375D01*
X108050Y212111D01*
X108103Y211914D01*
X108252Y211543D01*
X108251Y211033D01*
X108284Y210768D01*
X108337Y210571D01*
X108476Y210167D01*
X108452Y209955D01*
X108394Y209753D01*
X108399Y209643D01*
X108428Y209489D01*
X108533Y209094D01*
X108538Y208983D01*
X108475Y208637D01*
X108446Y208536D01*
X108551Y208141D01*
X108546Y207742D01*
X108469Y207473D01*
X108598Y207035D01*
X108555Y206756D01*
X108492Y206665D01*
X108444Y206496D01*
X108492Y206155D01*
X108467Y205943D01*
X108429Y205808D01*
X108434Y205698D01*
X108433Y205188D01*
X108385Y205019D01*
X108322Y204928D01*
X108293Y204827D01*
X108293Y204317D01*
X108215Y204048D01*
X108215Y203538D01*
X108099Y203134D01*
X108089Y202845D01*
X108041Y202677D01*
X107978Y202585D01*
X107949Y202484D01*
X107954Y202374D01*
X107761Y201700D01*
X107766Y201590D01*
X107718Y201421D01*
X107655Y201330D01*
X107587Y201095D01*
X107592Y200984D01*
X107544Y200816D01*
X107481Y200724D01*
X107413Y200488D01*
X107418Y200378D01*
X107389Y200277D01*
X107327Y200185D01*
X107288Y200051D01*
X107225Y199959D01*
X107201Y199748D01*
X107134Y199512D01*
X107071Y199421D01*
X106979Y199228D01*
X106984Y199118D01*
X106916Y198882D01*
X106647Y198449D01*
X106589Y198247D01*
X106319Y197815D01*
X106203Y197411D01*
X105876Y197031D01*
X105808Y196795D01*
X105745Y196704D01*
X105514Y196406D01*
X105365Y196266D01*
X105235Y195940D01*
X105100Y195723D01*
X104950Y195584D01*
X104705Y195363D01*
X104589Y195214D01*
X104426Y194896D01*
X104170Y194641D01*
X103761Y194358D01*
X103612Y194219D01*
X103130Y193810D01*
X102981Y193671D01*
X102788Y193508D01*
X102081Y192945D01*
X101811Y192768D01*
X101523Y192777D01*
X101417Y192917D01*
X101484Y193153D01*
X101691Y193494D01*
X101730Y193629D01*
X101793Y193720D01*
X101961Y193927D01*
X102207Y194148D01*
X102322Y194297D01*
X102400Y194566D01*
X102462Y194658D01*
X102660Y194965D01*
X102655Y195076D01*
X102694Y195211D01*
X102689Y195321D01*
X102925Y195764D01*
X102954Y195865D01*
X102950Y195975D01*
X103089Y196336D01*
X103128Y196471D01*
X103123Y196581D01*
X103172Y196750D01*
X103234Y196841D01*
X103263Y197197D01*
X103288Y197409D01*
X103379Y197601D01*
X103408Y197702D01*
X103409Y198212D01*
X103467Y198414D01*
X103433Y198679D01*
X103366Y198953D01*
X103390Y199164D01*
X103448Y199366D01*
X103415Y199631D01*
X103362Y199828D01*
X103247Y200189D01*
X103214Y200454D01*
X103214Y200709D01*
X103180Y200974D01*
X103128Y201171D01*
X102787Y201888D01*
X102734Y202595D01*
X102610Y202923D01*
X102557Y203120D01*
X102264Y203750D01*
X102235Y203904D01*
X102000Y204227D01*
X101832Y204275D01*
X101596Y204088D01*
X101537Y203376D01*
X101547Y202900D01*
X101431Y202496D01*
X101435Y202385D01*
X101397Y202250D01*
X101401Y202139D01*
X101295Y201769D01*
X101233Y201678D01*
X101175Y201476D01*
X101112Y201384D01*
X101016Y201048D01*
X100808Y200706D01*
X100784Y200495D01*
X100755Y200394D01*
X100307Y199976D01*
X99826Y199312D01*
X99546Y199101D01*
X98916Y198808D01*
X98348Y198861D01*
X97882Y198886D01*
X97343Y199040D01*
X96848Y199474D01*
X96583Y199695D01*
X96372Y199975D01*
X96127Y200518D01*
X96084Y201004D01*
X95979Y201399D01*
X95984Y201798D01*
X96042Y202000D01*
X96009Y202265D01*
X96014Y202664D01*
X96110Y203001D01*
X96063Y203343D01*
X96087Y203554D01*
X96164Y203823D01*
X96165Y204333D01*
X96261Y204670D01*
X96194Y205199D01*
X96291Y205536D01*
X96257Y205801D01*
X96190Y206075D01*
X96249Y206532D01*
X96167Y206883D01*
X95970Y207340D01*
X95971Y207850D01*
X95937Y208115D01*
X95798Y208264D01*
X95630Y208313D01*
X95394Y208125D01*
X95263Y207798D01*
X95268Y207177D01*
X95229Y207043D01*
X95234Y206932D01*
X95180Y206365D01*
X95074Y205994D01*
X95079Y205884D01*
X95021Y205682D01*
X95035Y205605D01*
X94973Y205513D01*
X94944Y205412D01*
X94948Y205302D01*
X94900Y205133D01*
X94837Y205042D01*
X94702Y204571D01*
X94640Y204479D01*
X94601Y204345D01*
X94548Y204287D01*
X94553Y204176D01*
X94504Y204008D01*
X94442Y203917D01*
X94312Y203590D01*
X94205Y203219D01*
X94061Y202969D01*
X93945Y202565D01*
X93675Y202132D01*
X93598Y201863D01*
X93391Y201522D01*
X93275Y201118D01*
X93068Y200776D01*
X92952Y200372D01*
X92807Y200122D01*
X92730Y199853D01*
X92668Y199762D01*
X92484Y199377D01*
X92431Y199319D01*
X92436Y199209D01*
X92349Y198906D01*
X92286Y198814D01*
X92113Y198208D01*
X92050Y198117D01*
X92002Y197949D01*
X92007Y197838D01*
X91968Y197703D01*
X91973Y197593D01*
X91944Y197492D01*
X91881Y197400D01*
X91852Y197299D01*
X91857Y197189D01*
X91808Y196765D01*
X91750Y196563D01*
X91789Y196188D01*
X91779Y195899D01*
X91750Y195798D01*
X91687Y195707D01*
X91711Y195409D01*
X91840Y194971D01*
X91802Y194836D01*
X91806Y194726D01*
X91768Y194591D01*
X91801Y194326D01*
X92070Y193739D01*
X92243Y193325D01*
X92276Y193060D01*
X92329Y192863D01*
X92742Y192016D01*
X93371Y190779D01*
X93303Y190543D01*
X92976Y190419D01*
X92875Y190448D01*
X92596Y190746D01*
X92428Y191049D01*
X92404Y191093D01*
X92087Y191511D01*
X91924Y191704D01*
X91784Y191853D01*
X91241Y192374D01*
X91102Y192523D01*
X89642Y195055D01*
X89613Y195209D01*
X89128Y196186D01*
X89099Y196340D01*
X89061Y196715D01*
X88951Y197220D01*
X88898Y197417D01*
X88702Y197875D01*
X88755Y198442D01*
X88712Y198673D01*
X88659Y198871D01*
X88592Y199145D01*
X88612Y199467D01*
X88689Y199737D01*
X88622Y200011D01*
X88641Y200333D01*
X88699Y200535D01*
X88666Y200800D01*
X88671Y201199D01*
X88763Y201391D01*
X88792Y201492D01*
X88801Y201781D01*
X88917Y202185D01*
X88913Y202296D01*
X88951Y202430D01*
X88947Y202541D01*
X89082Y203012D01*
X89077Y203123D01*
X89280Y203830D01*
X89342Y203921D01*
X89497Y204460D01*
X89560Y204551D01*
X89695Y205023D01*
X89839Y205273D01*
X89887Y205441D01*
X89883Y205552D01*
X89912Y205653D01*
X90119Y205994D01*
X90215Y206331D01*
X90384Y206538D01*
X90591Y206879D01*
X90620Y206980D01*
X90606Y207057D01*
X90668Y207148D01*
X90938Y207581D01*
X91015Y207850D01*
X91184Y208057D01*
X91333Y208196D01*
X91425Y208389D01*
X91420Y208499D01*
X91488Y208735D01*
X91637Y208874D01*
X91883Y209096D01*
X91974Y209288D01*
X92051Y209557D01*
X92307Y209812D01*
X92499Y209975D01*
X92572Y210100D01*
X92567Y210211D01*
X92615Y210379D01*
X92784Y210586D01*
X93116Y210855D01*
X93208Y211047D01*
X93265Y211249D01*
X93328Y211341D01*
X93434Y211456D01*
X93583Y211596D01*
X93925Y211898D01*
X94152Y212307D01*
X94320Y212514D01*
X94696Y212807D01*
X94845Y212946D01*
X95317Y213576D01*
X95466Y213715D01*
X95929Y214056D01*
X96078Y214196D01*
X96400Y214686D01*
X96550Y214826D01*
X97099Y215215D01*
X97291Y215378D01*
X97440Y215517D01*
X97807Y216032D01*
X98086Y216243D01*
X98582Y216575D01*
X98688Y216690D01*
X98890Y216887D01*
X99213Y217378D01*
X99492Y217589D01*
X99944Y217897D01*
X100426Y218560D01*
X100898Y218935D01*
X101119Y219199D01*
X101148Y219300D01*
X101211Y219391D01*
X101250Y219526D01*
X101399Y219666D01*
X101837Y220050D01*
X101991Y220334D01*
X102348Y220814D01*
X102497Y220954D01*
X102627Y221281D01*
X103066Y221920D01*
X103153Y222223D01*
X103321Y222430D01*
X103466Y222680D01*
X103543Y222949D01*
X103606Y223041D01*
X103789Y223425D01*
X103818Y223526D01*
X103813Y223637D01*
X103842Y223738D01*
X103987Y223988D01*
X104016Y224089D01*
X104011Y224200D01*
X104165Y224738D01*
X104060Y225133D01*
X104060Y225388D01*
X104209Y225527D01*
X104498Y225517D01*
D02*
G37*
D69*
X88586Y400256D02*
D03*
X86756Y404181D02*
D03*
X79976Y401019D02*
D03*
X81806Y397094D02*
D03*
X103215Y407078D02*
D03*
X101385Y411003D02*
D03*
X108164Y414164D02*
D03*
X109995Y410239D02*
D03*
X131404Y420222D02*
D03*
X129573Y424147D02*
D03*
X122794Y420986D02*
D03*
X124624Y417061D02*
D03*
X93232Y428486D02*
D03*
X91402Y432411D02*
D03*
X98181Y435573D02*
D03*
X100012Y431648D02*
D03*
D70*
X114082Y389773D02*
D03*
X121218Y393101D02*
D03*
X131923Y398093D02*
D03*
X139059Y401420D02*
D03*
D71*
X83925Y139542D02*
D03*
X81826Y143330D02*
D03*
X75283Y139703D02*
D03*
X77383Y135915D02*
D03*
X98043Y147368D02*
D03*
X95944Y151155D02*
D03*
X102486Y154782D02*
D03*
X104586Y150994D02*
D03*
X125246Y162446D02*
D03*
X123146Y166234D02*
D03*
X116604Y162608D02*
D03*
X118704Y158820D02*
D03*
X86591Y168028D02*
D03*
X84491Y171816D02*
D03*
X91034Y175442D02*
D03*
X93133Y171654D02*
D03*
D72*
X110091Y130863D02*
D03*
X116977Y134681D02*
D03*
X127307Y140407D02*
D03*
X134194Y144224D02*
D03*
D73*
X83965Y270031D02*
D03*
X81998Y273890D02*
D03*
X75333Y270494D02*
D03*
X77299Y266635D02*
D03*
X98347Y277359D02*
D03*
X96381Y281218D02*
D03*
X103046Y284614D02*
D03*
X105012Y280755D02*
D03*
X126059Y291480D02*
D03*
X124093Y295338D02*
D03*
X117428Y291942D02*
D03*
X119394Y288084D02*
D03*
X87623Y298407D02*
D03*
X85657Y302266D02*
D03*
X92322Y305662D02*
D03*
X94288Y301803D02*
D03*
D74*
X109811Y260445D02*
D03*
X116827Y264019D02*
D03*
X127350Y269382D02*
D03*
X134366Y272956D02*
D03*
D75*
X77264Y386024D02*
D03*
X78839Y382382D02*
D03*
X80512Y378740D02*
D03*
X82284Y375098D02*
D03*
X83858Y371457D02*
D03*
X343209Y353740D02*
D03*
X345276Y350295D02*
D03*
X347342Y346752D02*
D03*
X349213Y343209D02*
D03*
X351181Y339764D02*
D03*
X366240Y160531D02*
D03*
X362697Y158760D02*
D03*
X359154Y156890D02*
D03*
X355610Y155020D02*
D03*
X351969Y153347D02*
D03*
X80413Y241142D02*
D03*
X78543Y244685D02*
D03*
X76772Y248228D02*
D03*
X75000Y251772D02*
D03*
X73130Y255315D02*
D03*
X91413Y477442D02*
D03*
X95079Y479134D02*
D03*
X98721Y480709D02*
D03*
X102362Y482382D02*
D03*
X106004Y484055D02*
D03*
X355881Y32166D02*
D03*
X359326Y34135D02*
D03*
X362870Y36005D02*
D03*
X366413Y37973D02*
D03*
X369858Y39942D02*
D03*
X108169Y106496D02*
D03*
X104724Y104527D02*
D03*
X101181Y102559D02*
D03*
X97638Y100689D02*
D03*
X94193Y98721D02*
D03*
X307283Y150787D02*
D03*
X310138Y147933D02*
D03*
X312992Y145079D02*
D03*
X315748Y142224D02*
D03*
X318406Y139173D02*
D03*
X322244Y142126D02*
D03*
X319882Y145374D02*
D03*
X317421Y148524D02*
D03*
X314961Y151673D02*
D03*
X312402Y154724D02*
D03*
X312992Y276969D02*
D03*
X315453Y273819D02*
D03*
X317815Y270571D02*
D03*
X320177Y267323D02*
D03*
X322539Y264075D02*
D03*
X318701Y261122D02*
D03*
X316043Y264173D02*
D03*
X313287Y267224D02*
D03*
X310630Y270177D02*
D03*
X307776Y273228D02*
D03*
X118898Y368504D02*
D03*
X122835Y369291D02*
D03*
X126772Y369685D02*
D03*
X130709Y370079D02*
D03*
X134646Y370472D02*
D03*
Y359055D02*
D03*
X130709D02*
D03*
X126772D02*
D03*
X122835D02*
D03*
X118898Y358661D02*
D03*
X119291Y229921D02*
D03*
X123228D02*
D03*
X127165D02*
D03*
X131102D02*
D03*
X135039D02*
D03*
Y242126D02*
D03*
X131102Y241732D02*
D03*
X127165Y241339D02*
D03*
X123228Y240551D02*
D03*
X119291Y239764D02*
D03*
D76*
X344139Y319163D02*
D03*
X347671Y318856D02*
D03*
X349168Y315644D02*
D03*
X347134Y312741D02*
D03*
X350666Y312433D02*
D03*
X348631Y309529D02*
D03*
X352163Y309222D02*
D03*
X350129Y306318D02*
D03*
X353661Y306010D02*
D03*
X351626Y303107D02*
D03*
X345636Y315952D02*
D03*
X356656Y299588D02*
D03*
X355158Y302799D02*
D03*
X353124Y299896D02*
D03*
X344513Y76474D02*
D03*
X348057Y76413D02*
D03*
X349775Y73314D02*
D03*
X347948Y70275D02*
D03*
X351493Y70215D02*
D03*
X349666Y67176D02*
D03*
X353211Y67116D02*
D03*
X351384Y64077D02*
D03*
X354929Y64017D02*
D03*
X353102Y60978D02*
D03*
X346231Y73374D02*
D03*
X358364Y57819D02*
D03*
X356647Y60918D02*
D03*
X354820Y57879D02*
D03*
X342192Y197907D02*
D03*
X345732Y197722D02*
D03*
X347341Y194565D02*
D03*
X345409Y191593D02*
D03*
X348950Y191408D02*
D03*
X347018Y188436D02*
D03*
X350558Y188251D02*
D03*
X348626Y185278D02*
D03*
X352167Y185094D02*
D03*
X350235Y182121D02*
D03*
X343801Y194750D02*
D03*
X355384Y178780D02*
D03*
X353776Y181937D02*
D03*
X351844Y178964D02*
D03*
D77*
X341343Y315471D02*
D03*
X349330Y298343D02*
D03*
X359535Y303102D02*
D03*
X351548Y320229D02*
D03*
D78*
X342368Y294315D02*
D03*
X317355Y282652D02*
D03*
X64069Y446208D02*
D03*
X89082Y457872D02*
D03*
X344479Y51562D02*
D03*
X320341Y38182D02*
D03*
X56263Y183672D02*
D03*
X80401Y197052D02*
D03*
X341289Y173012D02*
D03*
X316699Y160483D02*
D03*
X57859Y315100D02*
D03*
X82450Y327629D02*
D03*
D79*
X342033Y283343D02*
D03*
X325976Y275855D02*
D03*
X64404Y457181D02*
D03*
X80461Y464668D02*
D03*
X344911Y40593D02*
D03*
X329415Y32004D02*
D03*
X55832Y194641D02*
D03*
X71327Y203231D02*
D03*
X341337Y162034D02*
D03*
X325552Y153991D02*
D03*
X57811Y326078D02*
D03*
X73597Y334121D02*
D03*
D80*
X126220Y479729D02*
D03*
X136182Y478857D02*
D03*
X156106Y477114D02*
D03*
X146144Y477986D02*
D03*
D81*
X334325Y331746D02*
D03*
X343388Y335972D02*
D03*
X333845Y88341D02*
D03*
X342592Y93189D02*
D03*
X331945Y210139D02*
D03*
X340855Y214679D02*
D03*
D82*
X187886Y461096D02*
D03*
X184466Y451699D02*
D03*
X178740Y207160D02*
D03*
X175984Y197548D02*
D03*
X181081Y334300D02*
D03*
X177991Y324789D02*
D03*
D83*
X120677Y444219D02*
D03*
X110795Y431336D02*
D03*
X303109Y394296D02*
D03*
X163149Y428943D02*
D03*
X171458Y378518D02*
D03*
X186979Y382498D02*
D03*
X124671Y406657D02*
D03*
X326865Y296773D02*
D03*
X232468Y387419D02*
D03*
X143927Y415202D02*
D03*
X155296Y415508D02*
D03*
X212682Y436837D02*
D03*
X145594Y382748D02*
D03*
X166236Y413007D02*
D03*
X268630Y421658D02*
D03*
X285860Y375393D02*
D03*
X159871Y405695D02*
D03*
X169443Y401471D02*
D03*
X142682Y388992D02*
D03*
X140894Y395156D02*
D03*
X58975Y435753D02*
D03*
X112871Y185636D02*
D03*
X103913Y172096D02*
D03*
X298342Y148561D02*
D03*
X156306Y173361D02*
D03*
X168112Y123638D02*
D03*
X183317Y128690D02*
D03*
X119476Y148445D02*
D03*
X328843Y52933D02*
D03*
X228352Y136773D02*
D03*
X138089Y158312D02*
D03*
X149409Y159410D02*
D03*
X205167Y184691D02*
D03*
X142016Y126053D02*
D03*
X160497Y157679D02*
D03*
X262038Y173451D02*
D03*
X282453Y128500D02*
D03*
X154658Y149941D02*
D03*
X164501Y146394D02*
D03*
X138676Y132079D02*
D03*
X136462Y138103D02*
D03*
X51911Y172887D02*
D03*
X114502Y315088D02*
D03*
X105076Y301868D02*
D03*
X298565Y271562D02*
D03*
X157481Y301304D02*
D03*
X167545Y251199D02*
D03*
X182917Y255718D02*
D03*
X119804Y277688D02*
D03*
X325710Y174927D02*
D03*
X228207Y262224D02*
D03*
X138750Y286899D02*
D03*
X150102Y287602D02*
D03*
X206708Y310921D02*
D03*
X141549Y254523D02*
D03*
X161122Y285485D02*
D03*
X263152Y297704D02*
D03*
X281986Y252068D02*
D03*
X155017Y277955D02*
D03*
X164730Y274067D02*
D03*
X138421Y260662D02*
D03*
X136419Y266760D02*
D03*
X53133Y304473D02*
D03*
D84*
X317653Y314198D02*
D03*
X318438Y69673D02*
D03*
X315896Y192020D02*
D03*
D85*
X341981Y72595D02*
D03*
X351143Y56066D02*
D03*
X360991Y61525D02*
D03*
X351829Y78053D02*
D03*
D86*
X115924Y221446D02*
D03*
X125923Y221272D02*
D03*
X145919Y220923D02*
D03*
X135921Y221097D02*
D03*
D87*
X339527Y194119D02*
D03*
X348106Y177281D02*
D03*
X358139Y182393D02*
D03*
X349559Y199231D02*
D03*
D88*
X118802Y350769D02*
D03*
X128788Y350246D02*
D03*
X148761Y349199D02*
D03*
X138775Y349722D02*
D03*
M02*
