G04*
G04 #@! TF.GenerationSoftware,Altium Limited,Altium Designer,21.7.2 (23)*
G04*
G04 Layer_Color=16711935*
%FSLAX25Y25*%
%MOIN*%
G70*
G04*
G04 #@! TF.SameCoordinates,560326E4-0408-43C8-B7F1-86A7F47A34FC*
G04*
G04*
G04 #@! TF.FilePolarity,Positive*
G04*
G01*
G75*
%ADD13C,0.01000*%
%ADD131C,0.07874*%
D13*
X393701D01*
X0Y505905D02*
X393701D01*
Y0D02*
Y505905D01*
X0Y0D02*
Y505905D01*
D131*
X111970Y489335D02*
X110649Y488981D01*
X130296Y490059D02*
X129354Y490064D01*
X128413Y490065D01*
X127471Y490061D01*
X126530Y490053D01*
X125588Y490039D01*
X124647Y490022D01*
X123706Y490000D01*
X122765Y489973D01*
X146693Y489243D02*
X145699Y489331D01*
X144705Y489415D01*
X143710Y489493D01*
X142715Y489566D01*
X141719Y489635D01*
X171323Y485474D02*
X171291Y485481D01*
X188548Y481034D02*
X188488Y481052D01*
X207412Y474450D02*
X207363Y474470D01*
X226400Y465952D02*
X226350Y465976D01*
X239124Y459161D02*
X239070Y459191D01*
X245970Y455126D02*
X245921Y455156D01*
X332842Y373854D02*
X332836Y373862D01*
X272801Y436542D02*
X271940Y437211D01*
X271077Y437877D01*
X270211Y438541D01*
X269342Y439200D01*
X268472Y439857D01*
X287909Y423913D02*
X287130Y424607D01*
X286349Y425297D01*
X285565Y425985D01*
X284779Y426671D01*
X283991Y427353D01*
X283201Y428033D01*
X282407Y428710D01*
X111970Y489335D02*
X110647Y488980D01*
X141719Y489635D02*
X141710Y489635D01*
X171323Y485474D02*
X171282Y485483D01*
X174793Y484699D02*
X174730Y484714D01*
X181699Y482978D02*
X181635Y482995D01*
X191951Y479981D02*
X191891Y479999D01*
X195338Y478874D02*
X195283Y478892D01*
X213371Y471988D02*
X213321Y472010D01*
X229609Y464324D02*
X229560Y464349D01*
X242560Y457170D02*
X242508Y457201D01*
X242558Y457171D02*
X242503Y457203D01*
X249358Y453028D02*
X249307Y453059D01*
X277368Y432902D02*
X277361Y432908D01*
X141710Y489635D02*
X140643Y489703D01*
X139576Y489765D01*
X138509Y489821D01*
X137441Y489871D01*
X136373Y489916D01*
X171282Y485483D02*
X170328Y485685D01*
X169373Y485883D01*
X168417Y486077D01*
X167460Y486266D01*
X178251Y483867D02*
X178189Y483883D01*
X178251Y483867D02*
X178189Y483883D01*
X198378Y477830D02*
X198324Y477849D01*
X223171Y467533D02*
X223118Y467558D01*
X226403Y465950D02*
X226350Y465976D01*
X341565Y360997D02*
X341560Y361004D01*
X341030Y361827D01*
X340498Y362649D01*
X339963Y363468D01*
X339425Y364286D01*
X338884Y365102D01*
X338341Y365916D01*
X337795Y366729D01*
X253019Y450682D02*
X252968Y450716D01*
X268464Y439862D02*
X267649Y440473D01*
X266831Y441080D01*
X266011Y441684D01*
X265189Y442286D01*
X264365Y442885D01*
X141719Y489635D02*
X141710Y489635D01*
X167460Y486266D02*
X166500Y486451D01*
X165539Y486632D01*
X164577Y486808D01*
X163615Y486980D01*
X171291Y485481D02*
X171282Y485483D01*
X185129Y482034D02*
X185066Y482052D01*
X195338Y478874D02*
X195283Y478892D01*
X204413Y475619D02*
X204358Y475640D01*
X207412Y474450D02*
X207363Y474470D01*
X216656Y470552D02*
X216604Y470575D01*
X229609Y464324D02*
X229557Y464351D01*
X239119Y459163D02*
X239070Y459191D01*
X249358Y453028D02*
X249307Y453059D01*
X268472Y439857D02*
X268464Y439862D01*
X282407Y428710D02*
X281693Y429316D01*
X280977Y429919D01*
X280259Y430520D01*
X279539Y431119D01*
X278817Y431716D01*
X278093Y432310D01*
X277368Y432902D01*
X130305Y490059D02*
X130296Y490059D01*
X146702Y489242D02*
X146693Y489243D01*
X174793Y484699D02*
X174730Y484714D01*
X201401Y476746D02*
X201348Y476765D01*
X213375Y471987D02*
X213321Y472010D01*
X232799Y462649D02*
X232751Y462675D01*
X245970Y455126D02*
X245919Y455157D01*
X342327Y359803D02*
X341560Y361004D01*
X337795Y366729D02*
X337255Y367527D01*
X336712Y368324D01*
X336167Y369120D01*
X335619Y369913D01*
X335069Y370705D01*
X334516Y371495D01*
X333960Y372283D01*
X333402Y373070D01*
X332842Y373854D01*
X264365Y442885D02*
X264333Y442908D01*
X277368Y432902D02*
X277361Y432908D01*
X151297Y488769D02*
X150379Y488872D01*
X149461Y488971D01*
X148542Y489066D01*
X147622Y489156D01*
X146702Y489242D01*
X163615Y486980D02*
X162652Y487147D01*
X161687Y487310D01*
X160722Y487468D01*
X159757Y487622D01*
X185129Y482034D02*
X185068Y482051D01*
X188547Y481035D02*
X188488Y481052D01*
X198376Y477831D02*
X198324Y477849D01*
X210397Y473240D02*
X210349Y473260D01*
X232802Y462648D02*
X232751Y462675D01*
X256650Y448276D02*
X256597Y448311D01*
X332836Y373862D02*
X332251Y374676D01*
X331663Y375488D01*
X331072Y376298D01*
X330478Y377106D01*
X329882Y377912D01*
X329283Y378717D01*
X328682Y379519D01*
X328078Y380319D01*
X327471Y381118D01*
X326862Y381914D01*
X326251Y382709D01*
X325636Y383501D01*
X325019Y384291D01*
X324400Y385080D01*
X323778Y385866D01*
X323153Y386650D01*
X322526Y387433D01*
X321896Y388213D01*
X321264Y388991D01*
X320629Y389767D01*
X319992Y390542D01*
X319352Y391314D01*
X318710Y392083D01*
X318065Y392851D01*
X317418Y393617D01*
X316768Y394381D01*
X316116Y395142D01*
X315461Y395901D01*
X314804Y396659D01*
X314144Y397414D01*
X313482Y398167D01*
X312818Y398918D01*
X312151Y399666D01*
X311481Y400413D01*
X310809Y401157D01*
X310135Y401899D01*
X309458Y402639D01*
X308779Y403376D01*
X308098Y404112D01*
X307414Y404845D01*
X306728Y405576D01*
X306039Y406305D01*
X305348Y407031D01*
X304655Y407756D01*
X303959Y408477D01*
X277361Y432908D02*
X276606Y433520D01*
X275849Y434129D01*
X275090Y434736D01*
X274329Y435340D01*
X273566Y435942D01*
X272801Y436542D01*
X122765Y489973D02*
X121782Y489940D01*
X120800Y489902D01*
X119817Y489859D01*
X118835Y489811D01*
X117853Y489758D01*
X116872Y489700D01*
X115891Y489637D01*
X114910Y489569D01*
X113929Y489496D01*
X112949Y489418D01*
X111970Y489335D01*
X130305Y490059D02*
X130296Y490059D01*
X146702Y489242D02*
X146693Y489243D01*
X159757Y487622D02*
X158702Y487785D01*
X157647Y487942D01*
X156591Y488094D01*
X155534Y488240D01*
X181697Y482979D02*
X181635Y482995D01*
X204413Y475619D02*
X204363Y475638D01*
X210397Y473240D02*
X210349Y473260D01*
X219922Y469067D02*
X219871Y469090D01*
X219924Y469066D02*
X219871Y469090D01*
X235968Y460930D02*
X235921Y460956D01*
X253019Y450682D02*
X252968Y450716D01*
X332841Y373855D02*
X332836Y373862D01*
X260543Y445603D02*
X260487Y445642D01*
X136373Y489916D02*
X135362Y489953D01*
X134351Y489985D01*
X133340Y490011D01*
X132328Y490032D01*
X131316Y490048D01*
X130305Y490059D01*
X155534Y488240D02*
X154476Y488380D01*
X153417Y488516D01*
X152358Y488645D01*
X151297Y488769D01*
X191951Y479981D02*
X191893Y479999D01*
X201406Y476744D02*
X201350Y476764D01*
X216656Y470552D02*
X216600Y470577D01*
X223171Y467533D02*
X223120Y467557D01*
X235968Y460930D02*
X235918Y460957D01*
X256651Y448274D02*
X256597Y448311D01*
X260541Y445604D02*
X260485Y445643D01*
X268472Y439857D02*
X268464Y439862D01*
X303959Y408478D02*
X303255Y409203D01*
X302548Y409927D01*
X301840Y410648D01*
X301129Y411367D01*
X300415Y412084D01*
X299699Y412798D01*
X298981Y413509D01*
X298260Y414219D01*
X297537Y414926D01*
X296812Y415630D01*
X296084Y416333D01*
X295355Y417032D01*
X294622Y417730D01*
X294622Y417730D02*
X293886Y418427D01*
X293147Y419121D01*
X292405Y419813D01*
X291662Y420503D01*
X290915Y421190D01*
X290167Y421875D01*
X289417Y422557D01*
X288664Y423236D01*
X287909Y423913D01*
X191891Y479999D02*
X191893Y479999D01*
X201406Y476744D02*
X204358Y475640D01*
X216600Y470577D02*
X216604Y470575D01*
X229609Y464324D02*
X232751Y462675D01*
X242503Y457203D02*
X242508Y457201D01*
X253019Y450682D02*
X256597Y448311D01*
X260485Y445643D02*
X260487Y445642D01*
X178251Y483867D02*
X181635Y482995D01*
X188548Y481034D02*
X191891Y479999D01*
X195338Y478874D02*
X198324Y477849D01*
X213375Y471987D02*
X216600Y470577D01*
X223118Y467558D02*
X223120Y467557D01*
X171323Y485474D02*
X174730Y484714D01*
X201401Y476746D02*
X201406Y476744D01*
X213371Y471988D02*
X213375Y471987D01*
X219924Y469066D02*
X223118Y467558D01*
X239124Y459161D02*
X242503Y457203D01*
X245970Y455126D02*
X249307Y453059D01*
X256651Y448274D02*
X260485Y445643D01*
X174793Y484699D02*
X178189Y483883D01*
X188547Y481035D02*
X188548Y481034D01*
X201348Y476765D02*
X201350Y476764D01*
X204413Y475619D02*
X207363Y474470D01*
X219922Y469067D02*
X219924Y469066D01*
X239119Y459163D02*
X239124Y459161D01*
X245919Y455157D02*
X245921Y455156D01*
X256650Y448276D02*
X256651Y448274D01*
X185066Y482052D02*
X185068Y482051D01*
X198378Y477830D02*
X201348Y476765D01*
X207412Y474450D02*
X210349Y473260D01*
X229557Y464351D02*
X229560Y464349D01*
X235918Y460957D02*
X235921Y460956D01*
X264333Y442908D02*
X264338Y442904D01*
X110647Y488980D02*
X110649Y488981D01*
X185129Y482034D02*
X188488Y481052D01*
X198376Y477831D02*
X198378Y477830D01*
X226403Y465950D02*
X229557Y464351D01*
X223171Y467533D02*
X226350Y465976D01*
X242560Y457170D02*
X245919Y455157D01*
X260543Y445603D02*
X264333Y442908D01*
X181699Y482978D02*
X185066Y482052D01*
X210397Y473240D02*
X213321Y472010D01*
X216656Y470552D02*
X219871Y469090D01*
X226400Y465952D02*
X226403Y465950D01*
X232802Y462648D02*
X235918Y460957D01*
X242558Y457171D02*
X242560Y457170D01*
X181697Y482979D02*
X181699Y482978D01*
X191951Y479981D02*
X195283Y478892D01*
X204358Y475640D02*
X204363Y475638D01*
X232799Y462649D02*
X232802Y462648D01*
X235968Y460930D02*
X239070Y459191D01*
X249358Y453028D02*
X252968Y450716D01*
X260541Y445604D02*
X260543Y445603D01*
M02*
