G04*
G04 #@! TF.GenerationSoftware,Altium Limited,Altium Designer,21.7.2 (23)*
G04*
G04 Layer_Color=16711935*
%FSLAX25Y25*%
%MOIN*%
G70*
G04*
G04 #@! TF.SameCoordinates,560326E4-0408-43C8-B7F1-86A7F47A34FC*
G04*
G04*
G04 #@! TF.FilePolarity,Negative*
G04*
G01*
G75*
G04:AMPARAMS|DCode=70|XSize=59.18mil|YSize=67.06mil|CornerRadius=16.8mil|HoleSize=0mil|Usage=FLASHONLY|Rotation=205.000|XOffset=0mil|YOffset=0mil|HoleType=Round|Shape=RoundedRectangle|*
%AMROUNDEDRECTD70*
21,1,0.05918,0.03347,0,0,205.0*
21,1,0.02559,0.06706,0,0,205.0*
1,1,0.03359,-0.01867,0.00976*
1,1,0.03359,0.00453,0.02057*
1,1,0.03359,0.01867,-0.00976*
1,1,0.03359,-0.00453,-0.02057*
%
%ADD70ROUNDEDRECTD70*%
G04:AMPARAMS|DCode=72|XSize=59.18mil|YSize=67.06mil|CornerRadius=16.8mil|HoleSize=0mil|Usage=FLASHONLY|Rotation=209.000|XOffset=0mil|YOffset=0mil|HoleType=Round|Shape=RoundedRectangle|*
%AMROUNDEDRECTD72*
21,1,0.05918,0.03347,0,0,209.0*
21,1,0.02559,0.06706,0,0,209.0*
1,1,0.03359,-0.01930,0.00843*
1,1,0.03359,0.00308,0.02084*
1,1,0.03359,0.01930,-0.00843*
1,1,0.03359,-0.00308,-0.02084*
%
%ADD72ROUNDEDRECTD72*%
G04:AMPARAMS|DCode=74|XSize=59.18mil|YSize=67.06mil|CornerRadius=16.8mil|HoleSize=0mil|Usage=FLASHONLY|Rotation=207.000|XOffset=0mil|YOffset=0mil|HoleType=Round|Shape=RoundedRectangle|*
%AMROUNDEDRECTD74*
21,1,0.05918,0.03347,0,0,207.0*
21,1,0.02559,0.06706,0,0,207.0*
1,1,0.03359,-0.01900,0.00910*
1,1,0.03359,0.00380,0.02072*
1,1,0.03359,0.01900,-0.00910*
1,1,0.03359,-0.00380,-0.02072*
%
%ADD74ROUNDEDRECTD74*%
%ADD75C,0.02769*%
%ADD76C,0.02717*%
G04:AMPARAMS|DCode=77|XSize=38.58mil|YSize=78.74mil|CornerRadius=10.63mil|HoleSize=0mil|Usage=FLASHONLY|Rotation=25.000|XOffset=0mil|YOffset=0mil|HoleType=Round|Shape=RoundedRectangle|*
%AMROUNDEDRECTD77*
21,1,0.03858,0.05748,0,0,25.0*
21,1,0.01732,0.07874,0,0,25.0*
1,1,0.02126,0.02000,-0.02239*
1,1,0.02126,0.00430,-0.02971*
1,1,0.02126,-0.02000,0.02239*
1,1,0.02126,-0.00430,0.02971*
%
%ADD77ROUNDEDRECTD77*%
%ADD78C,0.09461*%
%ADD79C,0.08280*%
G04:AMPARAMS|DCode=80|XSize=74.93mil|YSize=86.74mil|CornerRadius=0mil|HoleSize=0mil|Usage=FLASHONLY|Rotation=175.000|XOffset=0mil|YOffset=0mil|HoleType=Round|Shape=Round|*
%AMOVALD80*
21,1,0.01181,0.07493,0.00000,0.00000,265.0*
1,1,0.07493,0.00052,0.00588*
1,1,0.07493,-0.00052,-0.00588*
%
%ADD80OVALD80*%

%ADD81C,0.06312*%
%ADD82C,0.07887*%
%ADD83C,0.03194*%
%ADD84C,0.05800*%
G04:AMPARAMS|DCode=85|XSize=38.58mil|YSize=78.74mil|CornerRadius=10.63mil|HoleSize=0mil|Usage=FLASHONLY|Rotation=29.000|XOffset=0mil|YOffset=0mil|HoleType=Round|Shape=RoundedRectangle|*
%AMROUNDEDRECTD85*
21,1,0.03858,0.05748,0,0,29.0*
21,1,0.01732,0.07874,0,0,29.0*
1,1,0.02126,0.02151,-0.02094*
1,1,0.02126,0.00636,-0.02934*
1,1,0.02126,-0.02151,0.02094*
1,1,0.02126,-0.00636,0.02934*
%
%ADD85ROUNDEDRECTD85*%
G04:AMPARAMS|DCode=86|XSize=74.93mil|YSize=86.74mil|CornerRadius=0mil|HoleSize=0mil|Usage=FLASHONLY|Rotation=179.000|XOffset=0mil|YOffset=0mil|HoleType=Round|Shape=Round|*
%AMOVALD86*
21,1,0.01181,0.07493,0.00000,0.00000,269.0*
1,1,0.07493,0.00010,0.00591*
1,1,0.07493,-0.00010,-0.00591*
%
%ADD86OVALD86*%

G04:AMPARAMS|DCode=87|XSize=38.58mil|YSize=78.74mil|CornerRadius=10.63mil|HoleSize=0mil|Usage=FLASHONLY|Rotation=27.000|XOffset=0mil|YOffset=0mil|HoleType=Round|Shape=RoundedRectangle|*
%AMROUNDEDRECTD87*
21,1,0.03858,0.05748,0,0,27.0*
21,1,0.01732,0.07874,0,0,27.0*
1,1,0.02126,0.02077,-0.02168*
1,1,0.02126,0.00533,-0.02954*
1,1,0.02126,-0.02077,0.02168*
1,1,0.02126,-0.00533,0.02954*
%
%ADD87ROUNDEDRECTD87*%
G04:AMPARAMS|DCode=88|XSize=74.93mil|YSize=86.74mil|CornerRadius=0mil|HoleSize=0mil|Usage=FLASHONLY|Rotation=177.000|XOffset=0mil|YOffset=0mil|HoleType=Round|Shape=Round|*
%AMOVALD88*
21,1,0.01181,0.07493,0.00000,0.00000,267.0*
1,1,0.07493,0.00031,0.00590*
1,1,0.07493,-0.00031,-0.00590*
%
%ADD88OVALD88*%

G04:AMPARAMS|DCode=89|XSize=51.31mil|YSize=47.37mil|CornerRadius=13.84mil|HoleSize=0mil|Usage=FLASHONLY|Rotation=295.000|XOffset=0mil|YOffset=0mil|HoleType=Round|Shape=RoundedRectangle|*
%AMROUNDEDRECTD89*
21,1,0.05131,0.01968,0,0,295.0*
21,1,0.02362,0.04737,0,0,295.0*
1,1,0.02769,-0.00393,-0.01486*
1,1,0.02769,-0.01391,0.00655*
1,1,0.02769,0.00393,0.01486*
1,1,0.02769,0.01391,-0.00655*
%
%ADD89ROUNDEDRECTD89*%
G04:AMPARAMS|DCode=90|XSize=31.62mil|YSize=63.12mil|CornerRadius=9.91mil|HoleSize=0mil|Usage=FLASHONLY|Rotation=25.000|XOffset=0mil|YOffset=0mil|HoleType=Round|Shape=RoundedRectangle|*
%AMROUNDEDRECTD90*
21,1,0.03162,0.04331,0,0,25.0*
21,1,0.01181,0.06312,0,0,25.0*
1,1,0.01981,0.01450,-0.01713*
1,1,0.01981,0.00380,-0.02212*
1,1,0.01981,-0.01450,0.01713*
1,1,0.01981,-0.00380,0.02212*
%
%ADD90ROUNDEDRECTD90*%
G04:AMPARAMS|DCode=91|XSize=39.5mil|YSize=43.43mil|CornerRadius=0mil|HoleSize=0mil|Usage=FLASHONLY|Rotation=295.000|XOffset=0mil|YOffset=0mil|HoleType=Round|Shape=Rectangle|*
%AMROTATEDRECTD91*
4,1,4,-0.02803,0.00872,0.01134,0.02708,0.02803,-0.00872,-0.01134,-0.02708,-0.02803,0.00872,0.0*
%
%ADD91ROTATEDRECTD91*%

G04:AMPARAMS|DCode=92|XSize=39.5mil|YSize=43.43mil|CornerRadius=0mil|HoleSize=0mil|Usage=FLASHONLY|Rotation=205.000|XOffset=0mil|YOffset=0mil|HoleType=Round|Shape=Rectangle|*
%AMROTATEDRECTD92*
4,1,4,0.00872,0.02803,0.02708,-0.01134,-0.00872,-0.02803,-0.02708,0.01134,0.00872,0.02803,0.0*
%
%ADD92ROTATEDRECTD92*%

G04:AMPARAMS|DCode=93|XSize=47.37mil|YSize=37.53mil|CornerRadius=6.95mil|HoleSize=0mil|Usage=FLASHONLY|Rotation=205.000|XOffset=0mil|YOffset=0mil|HoleType=Round|Shape=RoundedRectangle|*
%AMROUNDEDRECTD93*
21,1,0.04737,0.02362,0,0,205.0*
21,1,0.03347,0.03753,0,0,205.0*
1,1,0.01391,-0.02016,0.00363*
1,1,0.01391,0.01017,0.01778*
1,1,0.01391,0.02016,-0.00363*
1,1,0.01391,-0.01017,-0.01778*
%
%ADD93ROUNDEDRECTD93*%
G04:AMPARAMS|DCode=94|XSize=67.06mil|YSize=43.43mil|CornerRadius=12.86mil|HoleSize=0mil|Usage=FLASHONLY|Rotation=295.000|XOffset=0mil|YOffset=0mil|HoleType=Round|Shape=RoundedRectangle|*
%AMROUNDEDRECTD94*
21,1,0.06706,0.01772,0,0,295.0*
21,1,0.04134,0.04343,0,0,295.0*
1,1,0.02572,0.00071,-0.02248*
1,1,0.02572,-0.01676,0.01499*
1,1,0.02572,-0.00071,0.02248*
1,1,0.02572,0.01676,-0.01499*
%
%ADD94ROUNDEDRECTD94*%
G04:AMPARAMS|DCode=95|XSize=51.31mil|YSize=47.37mil|CornerRadius=13.84mil|HoleSize=0mil|Usage=FLASHONLY|Rotation=25.000|XOffset=0mil|YOffset=0mil|HoleType=Round|Shape=RoundedRectangle|*
%AMROUNDEDRECTD95*
21,1,0.05131,0.01968,0,0,25.0*
21,1,0.02362,0.04737,0,0,25.0*
1,1,0.02769,0.01486,-0.00393*
1,1,0.02769,-0.00655,-0.01391*
1,1,0.02769,-0.01486,0.00393*
1,1,0.02769,0.00655,0.01391*
%
%ADD95ROUNDEDRECTD95*%
G04:AMPARAMS|DCode=96|XSize=59.18mil|YSize=67.06mil|CornerRadius=16.8mil|HoleSize=0mil|Usage=FLASHONLY|Rotation=295.000|XOffset=0mil|YOffset=0mil|HoleType=Round|Shape=RoundedRectangle|*
%AMROUNDEDRECTD96*
21,1,0.05918,0.03347,0,0,295.0*
21,1,0.02559,0.06706,0,0,295.0*
1,1,0.03359,-0.00976,-0.01867*
1,1,0.03359,-0.02057,0.00453*
1,1,0.03359,0.00976,0.01867*
1,1,0.03359,0.02057,-0.00453*
%
%ADD96ROUNDEDRECTD96*%
G04:AMPARAMS|DCode=97|XSize=78.87mil|YSize=126.11mil|CornerRadius=0mil|HoleSize=0mil|Usage=FLASHONLY|Rotation=115.000|XOffset=0mil|YOffset=0mil|HoleType=Round|Shape=Octagon|*
%AMOCTAGOND97*
4,1,8,-0.04882,-0.04452,-0.06548,-0.00878,-0.05594,0.01742,0.02261,0.05405,0.04882,0.04452,0.06548,0.00878,0.05594,-0.01742,-0.02261,-0.05405,-0.04882,-0.04452,0.0*
%
%ADD97OCTAGOND97*%

G04:AMPARAMS|DCode=98|XSize=27.69mil|YSize=55.24mil|CornerRadius=0mil|HoleSize=0mil|Usage=FLASHONLY|Rotation=115.000|XOffset=0mil|YOffset=0mil|HoleType=Round|Shape=Rectangle|*
%AMROTATEDRECTD98*
4,1,4,0.03088,-0.00087,-0.01918,-0.02422,-0.03088,0.00087,0.01918,0.02422,0.03088,-0.00087,0.0*
%
%ADD98ROTATEDRECTD98*%

G04:AMPARAMS|DCode=99|XSize=27.69mil|YSize=70.99mil|CornerRadius=0mil|HoleSize=0mil|Usage=FLASHONLY|Rotation=115.000|XOffset=0mil|YOffset=0mil|HoleType=Round|Shape=Rectangle|*
%AMROTATEDRECTD99*
4,1,4,0.03802,0.00246,-0.02632,-0.02755,-0.03802,-0.00246,0.02632,0.02755,0.03802,0.00246,0.0*
%
%ADD99ROTATEDRECTD99*%

G04:AMPARAMS|DCode=100|XSize=51.31mil|YSize=47.37mil|CornerRadius=13.84mil|HoleSize=0mil|Usage=FLASHONLY|Rotation=299.000|XOffset=0mil|YOffset=0mil|HoleType=Round|Shape=RoundedRectangle|*
%AMROUNDEDRECTD100*
21,1,0.05131,0.01968,0,0,299.0*
21,1,0.02362,0.04737,0,0,299.0*
1,1,0.02769,-0.00288,-0.01510*
1,1,0.02769,-0.01434,0.00556*
1,1,0.02769,0.00288,0.01510*
1,1,0.02769,0.01434,-0.00556*
%
%ADD100ROUNDEDRECTD100*%
G04:AMPARAMS|DCode=101|XSize=31.62mil|YSize=63.12mil|CornerRadius=9.91mil|HoleSize=0mil|Usage=FLASHONLY|Rotation=29.000|XOffset=0mil|YOffset=0mil|HoleType=Round|Shape=RoundedRectangle|*
%AMROUNDEDRECTD101*
21,1,0.03162,0.04331,0,0,29.0*
21,1,0.01181,0.06312,0,0,29.0*
1,1,0.01981,0.01566,-0.01608*
1,1,0.01981,0.00533,-0.02180*
1,1,0.01981,-0.01566,0.01608*
1,1,0.01981,-0.00533,0.02180*
%
%ADD101ROUNDEDRECTD101*%
G04:AMPARAMS|DCode=102|XSize=39.5mil|YSize=43.43mil|CornerRadius=0mil|HoleSize=0mil|Usage=FLASHONLY|Rotation=299.000|XOffset=0mil|YOffset=0mil|HoleType=Round|Shape=Rectangle|*
%AMROTATEDRECTD102*
4,1,4,-0.02857,0.00674,0.00942,0.02780,0.02857,-0.00674,-0.00942,-0.02780,-0.02857,0.00674,0.0*
%
%ADD102ROTATEDRECTD102*%

G04:AMPARAMS|DCode=103|XSize=39.5mil|YSize=43.43mil|CornerRadius=0mil|HoleSize=0mil|Usage=FLASHONLY|Rotation=209.000|XOffset=0mil|YOffset=0mil|HoleType=Round|Shape=Rectangle|*
%AMROTATEDRECTD103*
4,1,4,0.00674,0.02857,0.02780,-0.00942,-0.00674,-0.02857,-0.02780,0.00942,0.00674,0.02857,0.0*
%
%ADD103ROTATEDRECTD103*%

G04:AMPARAMS|DCode=104|XSize=47.37mil|YSize=37.53mil|CornerRadius=6.95mil|HoleSize=0mil|Usage=FLASHONLY|Rotation=209.000|XOffset=0mil|YOffset=0mil|HoleType=Round|Shape=RoundedRectangle|*
%AMROUNDEDRECTD104*
21,1,0.04737,0.02362,0,0,209.0*
21,1,0.03347,0.03753,0,0,209.0*
1,1,0.01391,-0.02036,0.00222*
1,1,0.01391,0.00891,0.01844*
1,1,0.01391,0.02036,-0.00222*
1,1,0.01391,-0.00891,-0.01844*
%
%ADD104ROUNDEDRECTD104*%
G04:AMPARAMS|DCode=105|XSize=67.06mil|YSize=43.43mil|CornerRadius=12.86mil|HoleSize=0mil|Usage=FLASHONLY|Rotation=299.000|XOffset=0mil|YOffset=0mil|HoleType=Round|Shape=RoundedRectangle|*
%AMROUNDEDRECTD105*
21,1,0.06706,0.01772,0,0,299.0*
21,1,0.04134,0.04343,0,0,299.0*
1,1,0.02572,0.00227,-0.02237*
1,1,0.02572,-0.01777,0.01378*
1,1,0.02572,-0.00227,0.02237*
1,1,0.02572,0.01777,-0.01378*
%
%ADD105ROUNDEDRECTD105*%
G04:AMPARAMS|DCode=106|XSize=51.31mil|YSize=47.37mil|CornerRadius=13.84mil|HoleSize=0mil|Usage=FLASHONLY|Rotation=29.000|XOffset=0mil|YOffset=0mil|HoleType=Round|Shape=RoundedRectangle|*
%AMROUNDEDRECTD106*
21,1,0.05131,0.01968,0,0,29.0*
21,1,0.02362,0.04737,0,0,29.0*
1,1,0.02769,0.01510,-0.00288*
1,1,0.02769,-0.00556,-0.01434*
1,1,0.02769,-0.01510,0.00288*
1,1,0.02769,0.00556,0.01434*
%
%ADD106ROUNDEDRECTD106*%
G04:AMPARAMS|DCode=107|XSize=59.18mil|YSize=67.06mil|CornerRadius=16.8mil|HoleSize=0mil|Usage=FLASHONLY|Rotation=299.000|XOffset=0mil|YOffset=0mil|HoleType=Round|Shape=RoundedRectangle|*
%AMROUNDEDRECTD107*
21,1,0.05918,0.03347,0,0,299.0*
21,1,0.02559,0.06706,0,0,299.0*
1,1,0.03359,-0.00843,-0.01930*
1,1,0.03359,-0.02084,0.00308*
1,1,0.03359,0.00843,0.01930*
1,1,0.03359,0.02084,-0.00308*
%
%ADD107ROUNDEDRECTD107*%
G04:AMPARAMS|DCode=108|XSize=78.87mil|YSize=126.11mil|CornerRadius=0mil|HoleSize=0mil|Usage=FLASHONLY|Rotation=119.000|XOffset=0mil|YOffset=0mil|HoleType=Round|Shape=Octagon|*
%AMOCTAGOND108*
4,1,8,-0.04559,-0.04781,-0.06471,-0.01333,-0.05702,0.01348,0.01879,0.05550,0.04559,0.04781,0.06471,0.01333,0.05702,-0.01348,-0.01879,-0.05550,-0.04559,-0.04781,0.0*
%
%ADD108OCTAGOND108*%

G04:AMPARAMS|DCode=109|XSize=27.69mil|YSize=55.24mil|CornerRadius=0mil|HoleSize=0mil|Usage=FLASHONLY|Rotation=119.000|XOffset=0mil|YOffset=0mil|HoleType=Round|Shape=Rectangle|*
%AMROTATEDRECTD109*
4,1,4,0.03087,0.00128,-0.01745,-0.02550,-0.03087,-0.00128,0.01745,0.02550,0.03087,0.00128,0.0*
%
%ADD109ROTATEDRECTD109*%

G04:AMPARAMS|DCode=110|XSize=27.69mil|YSize=70.99mil|CornerRadius=0mil|HoleSize=0mil|Usage=FLASHONLY|Rotation=119.000|XOffset=0mil|YOffset=0mil|HoleType=Round|Shape=Rectangle|*
%AMROTATEDRECTD110*
4,1,4,0.03776,0.00510,-0.02434,-0.02932,-0.03776,-0.00510,0.02434,0.02932,0.03776,0.00510,0.0*
%
%ADD110ROTATEDRECTD110*%

G04:AMPARAMS|DCode=111|XSize=51.31mil|YSize=47.37mil|CornerRadius=13.84mil|HoleSize=0mil|Usage=FLASHONLY|Rotation=297.000|XOffset=0mil|YOffset=0mil|HoleType=Round|Shape=RoundedRectangle|*
%AMROUNDEDRECTD111*
21,1,0.05131,0.01968,0,0,297.0*
21,1,0.02362,0.04737,0,0,297.0*
1,1,0.02769,-0.00341,-0.01499*
1,1,0.02769,-0.01413,0.00606*
1,1,0.02769,0.00341,0.01499*
1,1,0.02769,0.01413,-0.00606*
%
%ADD111ROUNDEDRECTD111*%
G04:AMPARAMS|DCode=112|XSize=31.62mil|YSize=63.12mil|CornerRadius=9.91mil|HoleSize=0mil|Usage=FLASHONLY|Rotation=27.000|XOffset=0mil|YOffset=0mil|HoleType=Round|Shape=RoundedRectangle|*
%AMROUNDEDRECTD112*
21,1,0.03162,0.04331,0,0,27.0*
21,1,0.01181,0.06312,0,0,27.0*
1,1,0.01981,0.01509,-0.01661*
1,1,0.01981,0.00457,-0.02197*
1,1,0.01981,-0.01509,0.01661*
1,1,0.01981,-0.00457,0.02197*
%
%ADD112ROUNDEDRECTD112*%
G04:AMPARAMS|DCode=113|XSize=39.5mil|YSize=43.43mil|CornerRadius=0mil|HoleSize=0mil|Usage=FLASHONLY|Rotation=297.000|XOffset=0mil|YOffset=0mil|HoleType=Round|Shape=Rectangle|*
%AMROTATEDRECTD113*
4,1,4,-0.02832,0.00774,0.01038,0.02745,0.02832,-0.00774,-0.01038,-0.02745,-0.02832,0.00774,0.0*
%
%ADD113ROTATEDRECTD113*%

G04:AMPARAMS|DCode=114|XSize=39.5mil|YSize=43.43mil|CornerRadius=0mil|HoleSize=0mil|Usage=FLASHONLY|Rotation=207.000|XOffset=0mil|YOffset=0mil|HoleType=Round|Shape=Rectangle|*
%AMROTATEDRECTD114*
4,1,4,0.00774,0.02832,0.02745,-0.01038,-0.00774,-0.02832,-0.02745,0.01038,0.00774,0.02832,0.0*
%
%ADD114ROTATEDRECTD114*%

G04:AMPARAMS|DCode=115|XSize=47.37mil|YSize=37.53mil|CornerRadius=6.95mil|HoleSize=0mil|Usage=FLASHONLY|Rotation=207.000|XOffset=0mil|YOffset=0mil|HoleType=Round|Shape=RoundedRectangle|*
%AMROUNDEDRECTD115*
21,1,0.04737,0.02362,0,0,207.0*
21,1,0.03347,0.03753,0,0,207.0*
1,1,0.01391,-0.02027,0.00293*
1,1,0.01391,0.00955,0.01812*
1,1,0.01391,0.02027,-0.00293*
1,1,0.01391,-0.00955,-0.01812*
%
%ADD115ROUNDEDRECTD115*%
G04:AMPARAMS|DCode=116|XSize=67.06mil|YSize=43.43mil|CornerRadius=12.86mil|HoleSize=0mil|Usage=FLASHONLY|Rotation=297.000|XOffset=0mil|YOffset=0mil|HoleType=Round|Shape=RoundedRectangle|*
%AMROUNDEDRECTD116*
21,1,0.06706,0.01772,0,0,297.0*
21,1,0.04134,0.04343,0,0,297.0*
1,1,0.02572,0.00149,-0.02244*
1,1,0.02572,-0.01728,0.01440*
1,1,0.02572,-0.00149,0.02244*
1,1,0.02572,0.01728,-0.01440*
%
%ADD116ROUNDEDRECTD116*%
G04:AMPARAMS|DCode=117|XSize=51.31mil|YSize=47.37mil|CornerRadius=13.84mil|HoleSize=0mil|Usage=FLASHONLY|Rotation=27.000|XOffset=0mil|YOffset=0mil|HoleType=Round|Shape=RoundedRectangle|*
%AMROUNDEDRECTD117*
21,1,0.05131,0.01968,0,0,27.0*
21,1,0.02362,0.04737,0,0,27.0*
1,1,0.02769,0.01499,-0.00341*
1,1,0.02769,-0.00606,-0.01413*
1,1,0.02769,-0.01499,0.00341*
1,1,0.02769,0.00606,0.01413*
%
%ADD117ROUNDEDRECTD117*%
G04:AMPARAMS|DCode=118|XSize=59.18mil|YSize=67.06mil|CornerRadius=16.8mil|HoleSize=0mil|Usage=FLASHONLY|Rotation=297.000|XOffset=0mil|YOffset=0mil|HoleType=Round|Shape=RoundedRectangle|*
%AMROUNDEDRECTD118*
21,1,0.05918,0.03347,0,0,297.0*
21,1,0.02559,0.06706,0,0,297.0*
1,1,0.03359,-0.00910,-0.01900*
1,1,0.03359,-0.02072,0.00380*
1,1,0.03359,0.00910,0.01900*
1,1,0.03359,0.02072,-0.00380*
%
%ADD118ROUNDEDRECTD118*%
G04:AMPARAMS|DCode=119|XSize=78.87mil|YSize=126.11mil|CornerRadius=0mil|HoleSize=0mil|Usage=FLASHONLY|Rotation=117.000|XOffset=0mil|YOffset=0mil|HoleType=Round|Shape=Octagon|*
%AMOCTAGOND119*
4,1,8,-0.04723,-0.04619,-0.06513,-0.01106,-0.05652,0.01546,0.02071,0.05481,0.04723,0.04619,0.06513,0.01106,0.05652,-0.01546,-0.02071,-0.05481,-0.04723,-0.04619,0.0*
%
%ADD119OCTAGOND119*%

G04:AMPARAMS|DCode=120|XSize=27.69mil|YSize=55.24mil|CornerRadius=0mil|HoleSize=0mil|Usage=FLASHONLY|Rotation=117.000|XOffset=0mil|YOffset=0mil|HoleType=Round|Shape=Rectangle|*
%AMROTATEDRECTD120*
4,1,4,0.03090,0.00021,-0.01833,-0.02487,-0.03090,-0.00021,0.01833,0.02487,0.03090,0.00021,0.0*
%
%ADD120ROTATEDRECTD120*%

G04:AMPARAMS|DCode=121|XSize=27.69mil|YSize=70.99mil|CornerRadius=0mil|HoleSize=0mil|Usage=FLASHONLY|Rotation=117.000|XOffset=0mil|YOffset=0mil|HoleType=Round|Shape=Rectangle|*
%AMROTATEDRECTD121*
4,1,4,0.03791,0.00378,-0.02534,-0.02845,-0.03791,-0.00378,0.02534,0.02845,0.03791,0.00378,0.0*
%
%ADD121ROTATEDRECTD121*%

D70*
X228137Y422324D02*
D03*
X235274Y425652D02*
D03*
X223978Y431245D02*
D03*
X231114Y434572D02*
D03*
D72*
X221598Y171291D02*
D03*
X228484Y175109D02*
D03*
X216826Y179900D02*
D03*
X223713Y183717D02*
D03*
D74*
X222661Y296956D02*
D03*
X229677Y300531D02*
D03*
X218193Y305726D02*
D03*
X225208Y309301D02*
D03*
D75*
X77264Y386024D02*
D03*
X78839Y382382D02*
D03*
X80512Y378740D02*
D03*
X82284Y375098D02*
D03*
X83858Y371457D02*
D03*
X343209Y353740D02*
D03*
X345276Y350295D02*
D03*
X347342Y346752D02*
D03*
X349213Y343209D02*
D03*
X351181Y339764D02*
D03*
X366240Y160531D02*
D03*
X362697Y158760D02*
D03*
X359154Y156890D02*
D03*
X355610Y155020D02*
D03*
X351969Y153347D02*
D03*
X80413Y241142D02*
D03*
X78543Y244685D02*
D03*
X76772Y248228D02*
D03*
X75000Y251772D02*
D03*
X73130Y255315D02*
D03*
X91413Y477442D02*
D03*
X95079Y479134D02*
D03*
X98721Y480709D02*
D03*
X102362Y482382D02*
D03*
X106004Y484055D02*
D03*
X355881Y32166D02*
D03*
X359326Y34135D02*
D03*
X362870Y36005D02*
D03*
X366413Y37973D02*
D03*
X369858Y39942D02*
D03*
X108169Y106496D02*
D03*
X104724Y104527D02*
D03*
X101181Y102559D02*
D03*
X97638Y100689D02*
D03*
X94193Y98721D02*
D03*
X307283Y150787D02*
D03*
X310138Y147933D02*
D03*
X312992Y145079D02*
D03*
X315748Y142224D02*
D03*
X318406Y139173D02*
D03*
X322244Y142126D02*
D03*
X319882Y145374D02*
D03*
X317421Y148524D02*
D03*
X314961Y151673D02*
D03*
X312402Y154724D02*
D03*
X312992Y276969D02*
D03*
X315453Y273819D02*
D03*
X317815Y270571D02*
D03*
X320177Y267323D02*
D03*
X322539Y264075D02*
D03*
X318701Y261122D02*
D03*
X316043Y264173D02*
D03*
X313287Y267224D02*
D03*
X310630Y270177D02*
D03*
X307776Y273228D02*
D03*
X118898Y368504D02*
D03*
X122835Y369291D02*
D03*
X126772Y369685D02*
D03*
X130709Y370079D02*
D03*
X134646Y370472D02*
D03*
Y359055D02*
D03*
X130709D02*
D03*
X126772D02*
D03*
X122835D02*
D03*
X118898Y358661D02*
D03*
X119291Y229921D02*
D03*
X123228D02*
D03*
X127165D02*
D03*
X131102D02*
D03*
X135039D02*
D03*
Y242126D02*
D03*
X131102Y241732D02*
D03*
X127165Y241339D02*
D03*
X123228Y240551D02*
D03*
X119291Y239764D02*
D03*
D76*
X344139Y319163D02*
D03*
X347671Y318856D02*
D03*
X349168Y315644D02*
D03*
X347134Y312741D02*
D03*
X350666Y312433D02*
D03*
X348631Y309529D02*
D03*
X352163Y309222D02*
D03*
X350129Y306318D02*
D03*
X353661Y306010D02*
D03*
X351626Y303107D02*
D03*
X345636Y315952D02*
D03*
X356656Y299588D02*
D03*
X355158Y302799D02*
D03*
X353124Y299896D02*
D03*
X344513Y76474D02*
D03*
X348057Y76413D02*
D03*
X349775Y73314D02*
D03*
X347948Y70275D02*
D03*
X351493Y70215D02*
D03*
X349666Y67176D02*
D03*
X353211Y67116D02*
D03*
X351384Y64077D02*
D03*
X354929Y64017D02*
D03*
X353102Y60978D02*
D03*
X346231Y73374D02*
D03*
X358364Y57819D02*
D03*
X356647Y60918D02*
D03*
X354820Y57879D02*
D03*
X342192Y197907D02*
D03*
X345732Y197722D02*
D03*
X347341Y194565D02*
D03*
X345409Y191593D02*
D03*
X348950Y191408D02*
D03*
X347018Y188436D02*
D03*
X350558Y188251D02*
D03*
X348626Y185278D02*
D03*
X352167Y185094D02*
D03*
X350235Y182121D02*
D03*
X343801Y194750D02*
D03*
X355384Y178780D02*
D03*
X353776Y181937D02*
D03*
X351844Y178964D02*
D03*
D77*
X341343Y315471D02*
D03*
X349330Y298343D02*
D03*
X359535Y303102D02*
D03*
X351548Y320229D02*
D03*
D78*
X342368Y294315D02*
D03*
X317355Y282652D02*
D03*
X64069Y446208D02*
D03*
X89082Y457872D02*
D03*
X344479Y51562D02*
D03*
X320341Y38182D02*
D03*
X56263Y183672D02*
D03*
X80401Y197052D02*
D03*
X341289Y173012D02*
D03*
X316699Y160483D02*
D03*
X57859Y315100D02*
D03*
X82450Y327629D02*
D03*
D79*
X342033Y283343D02*
D03*
X325976Y275855D02*
D03*
X64404Y457181D02*
D03*
X80461Y464668D02*
D03*
X344911Y40593D02*
D03*
X329415Y32004D02*
D03*
X55832Y194641D02*
D03*
X71327Y203231D02*
D03*
X341337Y162034D02*
D03*
X325552Y153991D02*
D03*
X57811Y326078D02*
D03*
X73597Y334121D02*
D03*
D80*
X126220Y479729D02*
D03*
X136182Y478857D02*
D03*
X156106Y477114D02*
D03*
X146144Y477986D02*
D03*
D81*
X334325Y331746D02*
D03*
X343388Y335972D02*
D03*
X333845Y88341D02*
D03*
X342592Y93189D02*
D03*
X331945Y210139D02*
D03*
X340855Y214679D02*
D03*
D82*
X187886Y461096D02*
D03*
X184466Y451699D02*
D03*
X178740Y207160D02*
D03*
X175984Y197548D02*
D03*
X181081Y334300D02*
D03*
X177991Y324789D02*
D03*
D83*
X120677Y444219D02*
D03*
X110795Y431336D02*
D03*
X303109Y394296D02*
D03*
X163149Y428943D02*
D03*
X171458Y378518D02*
D03*
X186979Y382498D02*
D03*
X124671Y406657D02*
D03*
X326865Y296773D02*
D03*
X232468Y387419D02*
D03*
X143927Y415202D02*
D03*
X155296Y415508D02*
D03*
X212682Y436837D02*
D03*
X145594Y382748D02*
D03*
X166236Y413007D02*
D03*
X268630Y421658D02*
D03*
X285860Y375393D02*
D03*
X159871Y405695D02*
D03*
X169443Y401471D02*
D03*
X142682Y388992D02*
D03*
X140894Y395156D02*
D03*
X58975Y435753D02*
D03*
X112871Y185636D02*
D03*
X103913Y172096D02*
D03*
X298342Y148561D02*
D03*
X156306Y173361D02*
D03*
X168112Y123638D02*
D03*
X183317Y128690D02*
D03*
X119476Y148445D02*
D03*
X328843Y52933D02*
D03*
X228352Y136773D02*
D03*
X138089Y158312D02*
D03*
X149409Y159410D02*
D03*
X205167Y184691D02*
D03*
X142016Y126053D02*
D03*
X160497Y157679D02*
D03*
X262038Y173451D02*
D03*
X282453Y128500D02*
D03*
X154658Y149941D02*
D03*
X164501Y146394D02*
D03*
X138676Y132079D02*
D03*
X136462Y138103D02*
D03*
X51911Y172887D02*
D03*
X114502Y315088D02*
D03*
X105076Y301868D02*
D03*
X298565Y271562D02*
D03*
X157481Y301304D02*
D03*
X167545Y251199D02*
D03*
X182917Y255718D02*
D03*
X119804Y277688D02*
D03*
X325710Y174927D02*
D03*
X228207Y262224D02*
D03*
X138750Y286899D02*
D03*
X150102Y287602D02*
D03*
X206708Y310921D02*
D03*
X141549Y254523D02*
D03*
X161122Y285485D02*
D03*
X263152Y297704D02*
D03*
X281986Y252068D02*
D03*
X155017Y277955D02*
D03*
X164730Y274067D02*
D03*
X138421Y260662D02*
D03*
X136419Y266760D02*
D03*
X53133Y304473D02*
D03*
D84*
X317653Y314198D02*
D03*
X318438Y69673D02*
D03*
X315896Y192020D02*
D03*
D85*
X341981Y72595D02*
D03*
X351143Y56066D02*
D03*
X360991Y61525D02*
D03*
X351829Y78053D02*
D03*
D86*
X115924Y221446D02*
D03*
X125923Y221272D02*
D03*
X145919Y220923D02*
D03*
X135921Y221097D02*
D03*
D87*
X339527Y194119D02*
D03*
X348106Y177281D02*
D03*
X358139Y182393D02*
D03*
X349559Y199231D02*
D03*
D88*
X118802Y350769D02*
D03*
X128788Y350246D02*
D03*
X148761Y349199D02*
D03*
X138775Y349722D02*
D03*
D89*
X310684Y310513D02*
D03*
X313679Y304091D02*
D03*
X53318Y447884D02*
D03*
X56313Y441462D02*
D03*
X98692Y464698D02*
D03*
X101687Y458276D02*
D03*
X327942Y362001D02*
D03*
X330937Y355579D02*
D03*
X274675Y394721D02*
D03*
X277670Y388298D02*
D03*
X178197Y405987D02*
D03*
X175202Y412410D02*
D03*
X187118Y410147D02*
D03*
X184123Y416569D02*
D03*
X268020Y408993D02*
D03*
X271015Y402570D02*
D03*
X171542Y420260D02*
D03*
X168547Y426682D02*
D03*
X164471Y435424D02*
D03*
X161476Y441847D02*
D03*
X122906Y429074D02*
D03*
X119911Y435497D02*
D03*
D90*
X303885Y364684D02*
D03*
X306377Y378009D02*
D03*
X299212Y374668D02*
D03*
X311022Y368012D02*
D03*
X302795Y376339D02*
D03*
D91*
X326250Y309736D02*
D03*
X323089Y316515D02*
D03*
X331806Y316453D02*
D03*
D92*
X176587Y430866D02*
D03*
X183367Y434027D02*
D03*
X183305Y425310D02*
D03*
X191752Y437937D02*
D03*
X198531Y441099D02*
D03*
X198469Y432382D02*
D03*
D93*
X192133Y418024D02*
D03*
X198372Y404643D02*
D03*
X219781Y414627D02*
D03*
X213541Y428007D02*
D03*
D94*
X136236Y385117D02*
D03*
X130883Y382621D02*
D03*
X125531Y380125D02*
D03*
X120179Y377630D02*
D03*
X114827Y375134D02*
D03*
X109475Y372638D02*
D03*
X104122Y370142D02*
D03*
X98770Y367647D02*
D03*
X93418Y365151D02*
D03*
X105787Y450414D02*
D03*
X100435Y447918D02*
D03*
X95083Y445422D02*
D03*
X89731Y442927D02*
D03*
X84378Y440431D02*
D03*
X79026Y437935D02*
D03*
X73674Y435439D02*
D03*
X68322Y432943D02*
D03*
X62969Y430448D02*
D03*
D95*
X338891Y346907D02*
D03*
X332468Y343912D02*
D03*
X177170Y390956D02*
D03*
X170747Y387961D02*
D03*
X294359Y360894D02*
D03*
X287936Y357898D02*
D03*
X162898Y384300D02*
D03*
X156475Y381305D02*
D03*
D96*
X254297Y412803D02*
D03*
X250970Y419939D02*
D03*
X263218Y416962D02*
D03*
X259890Y424099D02*
D03*
X318800Y372291D02*
D03*
X315473Y379427D02*
D03*
X107439Y469229D02*
D03*
X110767Y462093D02*
D03*
X266896Y390442D02*
D03*
X270224Y383305D02*
D03*
X207395Y452834D02*
D03*
X210722Y445697D02*
D03*
X148751Y401596D02*
D03*
X152079Y394460D02*
D03*
D97*
X234793Y408052D02*
D03*
D98*
X246209Y406859D02*
D03*
X241217Y417563D02*
D03*
D99*
X243000Y411878D02*
D03*
D100*
X311742Y65511D02*
D03*
X315178Y59313D02*
D03*
X45421Y184594D02*
D03*
X48857Y178396D02*
D03*
X89512Y204533D02*
D03*
X92947Y198334D02*
D03*
X325367Y118077D02*
D03*
X328803Y111879D02*
D03*
X269948Y147001D02*
D03*
X273383Y140803D02*
D03*
X172919Y151510D02*
D03*
X169483Y157708D02*
D03*
X181527Y156282D02*
D03*
X178092Y162480D02*
D03*
X262313Y160775D02*
D03*
X265749Y154577D02*
D03*
X165284Y165284D02*
D03*
X161848Y171482D02*
D03*
X157172Y179918D02*
D03*
X153736Y186116D02*
D03*
X116151Y170684D02*
D03*
X112716Y176882D02*
D03*
D101*
X301182Y119076D02*
D03*
X302738Y132542D02*
D03*
X295824Y128709D02*
D03*
X308069Y122893D02*
D03*
X299281Y130626D02*
D03*
D102*
X327325Y65821D02*
D03*
X323699Y72364D02*
D03*
X332399Y72910D02*
D03*
D103*
X169577Y176216D02*
D03*
X176120Y179843D02*
D03*
X176666Y171143D02*
D03*
X184212Y184328D02*
D03*
X190754Y187955D02*
D03*
X191300Y179255D02*
D03*
D104*
X185980Y164490D02*
D03*
X193138Y151577D02*
D03*
X213798Y163029D02*
D03*
X206641Y175942D02*
D03*
D105*
X132515Y127764D02*
D03*
X127350Y124901D02*
D03*
X122185Y122038D02*
D03*
X117020Y119175D02*
D03*
X111855Y116312D02*
D03*
X106690Y113449D02*
D03*
X101525Y110585D02*
D03*
X96360Y107722D02*
D03*
X91195Y104859D02*
D03*
X97586Y190778D02*
D03*
X92421Y187915D02*
D03*
X87256Y185052D02*
D03*
X82091Y182188D02*
D03*
X76926Y179325D02*
D03*
X71761Y176462D02*
D03*
X66596Y173599D02*
D03*
X61431Y170736D02*
D03*
X56265Y167873D02*
D03*
D106*
X337342Y103784D02*
D03*
X331144Y100348D02*
D03*
X172943Y136444D02*
D03*
X166745Y133008D02*
D03*
X291943Y114629D02*
D03*
X285745Y111194D02*
D03*
X159169Y128809D02*
D03*
X152971Y125373D02*
D03*
D107*
X248358Y163618D02*
D03*
X244541Y170504D02*
D03*
X256966Y168389D02*
D03*
X253149Y175276D02*
D03*
X315530Y127704D02*
D03*
X311713Y134591D02*
D03*
X97921Y209662D02*
D03*
X101739Y202776D02*
D03*
X262486Y142190D02*
D03*
X266304Y135303D02*
D03*
X198777Y200279D02*
D03*
X202594Y193393D02*
D03*
X143851Y145076D02*
D03*
X147668Y138189D02*
D03*
D108*
X229233Y157518D02*
D03*
D109*
X240704Y157124D02*
D03*
X234978Y167454D02*
D03*
D110*
X237152Y161908D02*
D03*
D111*
X309059Y188095D02*
D03*
X312276Y181780D02*
D03*
X47056Y316400D02*
D03*
X50273Y310086D02*
D03*
X91815Y334787D02*
D03*
X95033Y328473D02*
D03*
X324510Y240154D02*
D03*
X327728Y233839D02*
D03*
X270134Y270994D02*
D03*
X273351Y264680D02*
D03*
X173321Y278886D02*
D03*
X170104Y285201D02*
D03*
X182091Y283355D02*
D03*
X178874Y289669D02*
D03*
X262984Y285025D02*
D03*
X266201Y278711D02*
D03*
X166172Y292918D02*
D03*
X162955Y299232D02*
D03*
X158576Y307827D02*
D03*
X155358Y314141D02*
D03*
X117258Y300030D02*
D03*
X114040Y306344D02*
D03*
D112*
X300374Y241995D02*
D03*
X302399Y255399D02*
D03*
X295356Y251810D02*
D03*
X307390Y245570D02*
D03*
X298878Y253605D02*
D03*
D113*
X324643Y187861D02*
D03*
X321247Y194526D02*
D03*
X329961Y194768D02*
D03*
D114*
X170844Y303694D02*
D03*
X177509Y307090D02*
D03*
X177751Y298376D02*
D03*
X185753Y311290D02*
D03*
X192418Y314686D02*
D03*
X192660Y305973D02*
D03*
D115*
X186828Y291402D02*
D03*
X193531Y278247D02*
D03*
X214578Y288972D02*
D03*
X207875Y302126D02*
D03*
D116*
X132114Y256564D02*
D03*
X126852Y253883D02*
D03*
X121590Y251202D02*
D03*
X116328Y248521D02*
D03*
X111066Y245840D02*
D03*
X105804Y243159D02*
D03*
X100542Y240478D02*
D03*
X95281Y237797D02*
D03*
X90019Y235116D02*
D03*
X99405Y320759D02*
D03*
X94143Y318078D02*
D03*
X88881Y315397D02*
D03*
X83619Y312716D02*
D03*
X78357Y310035D02*
D03*
X73096Y307354D02*
D03*
X67834Y304673D02*
D03*
X62572Y301992D02*
D03*
X57310Y299311D02*
D03*
D117*
X335979Y225450D02*
D03*
X329664Y222233D02*
D03*
X172819Y263828D02*
D03*
X166505Y260611D02*
D03*
X290986Y237874D02*
D03*
X284671Y234657D02*
D03*
X158788Y256679D02*
D03*
X152474Y253462D02*
D03*
D118*
X249137Y288354D02*
D03*
X245562Y295370D02*
D03*
X257907Y292822D02*
D03*
X254332Y299838D02*
D03*
X315015Y250118D02*
D03*
X311440Y257133D02*
D03*
X100399Y339620D02*
D03*
X103974Y332605D02*
D03*
X262509Y266446D02*
D03*
X266084Y259430D02*
D03*
X200866Y326723D02*
D03*
X204441Y319708D02*
D03*
X144046Y273470D02*
D03*
X147621Y266454D02*
D03*
D119*
X229810Y282925D02*
D03*
D120*
X241261Y282131D02*
D03*
X235899Y292655D02*
D03*
D121*
X237878Y287036D02*
D03*
M02*
